<?xml version="1.0"?>
<svg xmlns="http://www.w3.org/2000/svg" viewBox="0 0 64 64" width="512" height="512"><g id="Setting"><path d="M59,26H53.551a1.957,1.957,0,0,1-1.841-1.271q-.282-.769-.624-1.508A1.979,1.979,0,0,1,51.492,21L55.33,17.15a1.986,1.986,0,0,0,0-2.83L49.68,8.67a1.986,1.986,0,0,0-2.83,0L43,12.508a1.979,1.979,0,0,1-2.225.406q-.732-.338-1.494-.619A1.98,1.98,0,0,1,38,10.433V5a2.006,2.006,0,0,0-2-2H28a2,2,0,0,0-2,2v5.448a1.961,1.961,0,0,1-1.275,1.846c-.511.188-1.012.4-1.5.623A1.979,1.979,0,0,1,21,12.508L17.15,8.67a1.986,1.986,0,0,0-2.83,0L8.67,14.32a1.986,1.986,0,0,0,0,2.83L12.508,21a1.979,1.979,0,0,1,.406,2.225q-.338.732-.619,1.494A1.98,1.98,0,0,1,10.433,26H5a2.006,2.006,0,0,0-2,2v8a2,2,0,0,0,2,2h5.438a1.977,1.977,0,0,1,1.86,1.285q.28.761.619,1.494A1.979,1.979,0,0,1,12.508,43L8.67,46.85a1.986,1.986,0,0,0,0,2.83l5.65,5.65a1.986,1.986,0,0,0,2.83,0L21,51.492a1.979,1.979,0,0,1,2.225-.406q.732.338,1.494.619A1.98,1.98,0,0,1,26,53.567V59a2.006,2.006,0,0,0,2,2h8a2,2,0,0,0,2-2V53.56a1.968,1.968,0,0,1,1.28-1.853q.764-.282,1.5-.621A1.979,1.979,0,0,1,43,51.492L46.85,55.33a1.986,1.986,0,0,0,2.83,0l5.65-5.65a1.986,1.986,0,0,0,0-2.83L51.492,43a1.979,1.979,0,0,1-.406-2.225q.338-.732.619-1.494A1.98,1.98,0,0,1,53.567,38H59a2.006,2.006,0,0,0,2-2V28A2,2,0,0,0,59,26ZM32,45A13,13,0,1,1,45,32,13.015,13.015,0,0,1,32,45Z" style="fill:#2488ff"/><path d="M59,26H53.551a1.957,1.957,0,0,1-1.841-1.271q-.282-.769-.624-1.508A1.979,1.979,0,0,1,51.492,21L55.33,17.15a1.986,1.986,0,0,0,0-2.83L49.68,8.67a1.986,1.986,0,0,0-2.83,0L43,12.508a1.979,1.979,0,0,1-2.225.406q-.732-.338-1.494-.619A1.98,1.98,0,0,1,38,10.433V5a2.006,2.006,0,0,0-2-2H32V19a13,13,0,0,1,0,26V61h4a2,2,0,0,0,2-2V53.56a1.968,1.968,0,0,1,1.28-1.853q.764-.282,1.5-.621A1.979,1.979,0,0,1,43,51.492L46.85,55.33a1.986,1.986,0,0,0,2.83,0l5.65-5.65a1.986,1.986,0,0,0,0-2.83L51.492,43a1.979,1.979,0,0,1-.406-2.225q.338-.732.619-1.494A1.98,1.98,0,0,1,53.567,38H59a2.006,2.006,0,0,0,2-2V28A2,2,0,0,0,59,26Z" style="fill:#57a4ff"/></g></svg>
