<svg height="512pt" viewBox="-43 0 511 512" width="512pt" 
    xmlns="http://www.w3.org/2000/svg">
    <path fill="#FFFFFF" d="m394 422.292969h-.078125v-332.585938h.078125c17.367188 0 31.5-14.132812 31.5-31.5 0-32.09375-26.109375-58.207031-58.207031-58.207031h-308.585938c-32.09375 0-58.207031 26.113281-58.207031 58.207031 0 17.367188 14.132812 31.5 31.5 31.5h.078125v332.585938h-.078125c-17.367188 0-31.5 14.132812-31.5 31.5 0 32.097656 26.113281 58.207031 58.207031 58.207031h308.585938c32.097656 0 58.207031-26.109375 58.207031-58.207031 0-17.367188-14.132812-31.5-31.5-31.5zm-30.078125 0h-36.238281v-67.109375c0-42.433594-23.265625-79.535156-57.710938-99.214844 34.453125-19.695312 57.710938-56.742188 57.710938-99.105469v-67.15625h36.238281zm-235.105469-332.585938h168.867188v67.15625c0 46.394531-37.875 84.136719-84.433594 84.136719s-84.433594-37.742188-84.433594-84.136719zm84.6875 181.292969c46.417969 0 84.179688 37.765625 84.179688 84.183594v.402344c-23.703125-18.828126-53.371094-29.441407-84.433594-29.441407-31.105469 0-60.746094 10.601563-84.433594 29.425781v-.386718c0-46.417969 37.761719-84.183594 84.183594-84.183594zm-84.6875 127.222656c19.910156-26.445312 51.089844-42.078125 84.433594-42.078125 33.292969 0 64.523438 15.648438 84.433594 42.078125v24.070313h-168.867188zm-98.316406-340.015625c0-15.554687 12.652344-28.207031 28.207031-28.207031h308.585938c15.554687 0 28.207031 12.652344 28.207031 28.207031 0 .828125-.671875 1.5-1.5 1.5h-362c-.828125 0-1.5-.671875-1.5-1.5zm31.578125 31.5h36.738281v67.15625c0 42.363281 23.257813 79.410157 57.710938 99.105469-34.445313 19.679688-57.710938 56.78125-57.710938 99.214844v67.109375h-36.738281zm305.214844 392.292969h-308.585938c-15.554687 0-28.207031-12.652344-28.207031-28.207031 0-.824219.671875-1.5 1.5-1.5h362c.828125 0 1.5.675781 1.5 1.5 0 15.554687-12.652344 28.207031-28.207031 28.207031zm0 0"/>
</svg>