<?xml version="1.0" encoding="UTF-8"?>
<svg width="16px" height="16px" viewBox="0 0 16 16" version="1.1" xmlns="http://www.w3.org/2000/svg" xmlns:xlink="http://www.w3.org/1999/xlink">
    <!-- Generator: Sketch 51.3 (57544) - http://www.bohemiancoding.com/sketch -->
    <title>expander</title>
    <desc>Created with Sketch.</desc>
    <defs></defs>
    <g id="expander" stroke="none" stroke-width="1" fill="none" fill-rule="evenodd">
        <g id="full-size" transform="translate(1.000000, 1.000000)" fill="#FFFFFF" fill-rule="nonzero">
            <path d="M0.600645271,5.21313903 C0.932441719,5.21313903 1.20129054,4.9441761 1.20129054,4.61241778 L1.20129054,2.05110261 L5.06984652,5.91934692 C5.18717256,6.0366077 5.34085767,6.0952381 5.49454277,6.0952381 C5.64830796,6.0952381 5.80207315,6.0366077 5.9193191,5.91926682 C6.1538911,5.68466515 6.1538911,5.30428846 5.91923902,5.06976689 L2.05052287,1.20144248 L4.61207474,1.20144248 C4.9437911,1.20144248 5.21272001,0.932479558 5.21272001,0.600721241 C5.21272001,0.268962924 4.94387118,0 4.61207474,0 L0.600645271,0 C0.268848823,0 0,0.268962924 0,0.600721241 L0,4.61249788 C0,4.9441761 0.268848823,5.21313903 0.600645271,5.21313903 Z" id="Shape"></path>
            <path d="M13.4107952,8.88744292 C13.0853618,8.88744292 12.8216689,9.15122459 12.8216689,9.47659199 L12.8216689,11.9886451 L8.91049868,8.07732367 C8.68034667,7.84724132 8.30739045,7.84724132 8.077317,8.07732367 C7.84724354,8.30740602 7.84724354,8.68045521 8.077317,8.91045901 L11.9884086,12.8217019 L9.47660977,12.8217019 C9.1511764,12.8217019 8.88748347,13.0854835 8.88748347,13.4108509 C8.88748347,13.7362183 9.1511764,14 9.47660977,14 L13.4108737,14 C13.7363071,14 14,13.7362183 14,13.4108509 L14,9.47659199 C13.9999214,9.15122459 13.73615,8.88744292 13.4107952,8.88744292 Z" id="Shape"></path>
            <path d="M5.08943175,8.07732876 L1.1783456,11.9884645 L1.1783456,9.47655876 C1.1783456,9.15120028 0.914631853,8.88742583 0.589172799,8.88742583 C0.263713745,8.88742583 0,9.15120028 0,9.47655876 L0,13.4108671 C0,13.7362255 0.263713745,14 0.589172799,14 L4.52359019,14 C4.84897069,14 5.11276299,13.7362255 5.11276299,13.4108671 C5.11276299,13.0855086 4.84904925,12.8217341 4.52359019,12.8217341 L2.01151449,12.8217341 L5.9226792,8.91044129 C6.15277082,8.68036524 6.15277082,8.30732626 5.92260064,8.07725021 C5.69266614,7.84725271 5.31960192,7.84725271 5.08943175,8.07732876 Z" id="Shape"></path>
            <path d="M13.3992273,0 L9.38772183,0 C9.05589922,0 8.7870292,0.268945253 8.7870292,0.600681774 C8.7870292,0.932418295 9.05589922,1.20136355 9.38772183,1.20136355 L11.9489951,1.20136355 L8.08069476,5.06983426 C7.84610427,5.30442052 7.84610427,5.68477222 8.08077486,5.91935847 C8.19803006,6.03661155 8.35180737,6.0952381 8.50550459,6.0952381 C8.65920181,6.0952381 8.81297912,6.03653146 8.93031442,5.91927838 L12.7986147,2.05080767 L12.7986147,4.61211475 C12.7986147,4.94385127 13.0674848,5.21279652 13.3993074,5.21279652 C13.73113,5.21279652 14,4.94385127 14,4.61211475 L14,0.600681774 C13.9999199,0.268865162 13.7309698,0 13.3992273,0 Z" id="Shape"></path>
        </g>
    </g>
</svg>