<?xml version="1.0" encoding="iso-8859-1"?>
<!-- Generator: Adobe Illustrator 19.0.0, SVG Export Plug-In . SVG Version: 6.00 Build 0)  -->
<svg version="1.1" id="Layer_1" xmlns="http://www.w3.org/2000/svg" xmlns:xlink="http://www.w3.org/1999/xlink" x="0px" y="0px"
	 viewBox="0 0 512 512" style="enable-background:new 0 0 512 512;" xml:space="preserve">
<path style="fill:#1E0478;" d="M511.999,118.896v22.356c0,8.926-6.646,16.65-15.446,17.967c-3.965,0.584-8.021,1.169-12.112,1.707
	c-2.063,6.864-4.824,13.51-8.216,19.824c2.498,3.266,4.973,6.554,7.357,9.774c5.294,7.162,4.526,17.314-1.776,23.628l-15.813,15.802
	c-6.302,6.314-16.466,7.081-23.628,1.776c-3.231-2.383-6.509-4.859-9.774-7.345c-6.314,3.392-12.96,6.153-19.812,8.204
	c-0.55,4.102-1.123,8.159-1.719,12.112c-1.318,8.812-9.041,15.446-17.956,15.446h-22.356c-8.926,0-16.65-6.635-17.967-15.446
	c-0.584-3.953-1.169-8.021-1.707-12.112c-6.864-2.051-13.51-4.813-19.824-8.204c-3.266,2.487-6.543,4.962-9.774,7.345
	c-7.162,5.305-17.314,4.538-23.628-1.776l-15.802-15.802c-6.314-6.314-7.082-16.466-1.788-23.628
	c2.395-3.22,4.859-6.509,7.357-9.774c-3.392-6.314-6.142-12.96-8.204-19.824c-4.102-0.539-8.159-1.123-12.112-1.707
	c-8.812-1.318-15.446-9.041-15.446-17.967v-22.356c0-8.915,6.635-16.638,15.446-17.956c3.953-0.596,8.021-1.169,12.112-1.719
	c2.063-6.852,4.813-13.498,8.204-19.812c-2.498-3.277-4.962-6.554-7.345-9.774c-5.305-7.162-4.538-17.326,1.776-23.628
	l15.802-15.813c6.314-6.302,16.466-7.07,23.628-1.776c3.231,2.395,6.509,4.859,9.774,7.357c6.314-3.392,12.96-6.153,19.824-8.216
	c0.539-4.091,1.123-8.147,1.707-12.112C354.097,6.646,361.82,0,370.747,0h22.356c8.915,0,16.638,6.646,17.956,15.446
	c0.596,3.965,1.169,8.021,1.719,12.112c6.852,2.063,13.498,4.824,19.812,8.216c3.266-2.498,6.543-4.962,9.786-7.357
	c7.15-5.294,17.314-4.526,23.617,1.776l15.813,15.813c6.302,6.302,7.07,16.466,1.776,23.616c-2.383,3.231-4.859,6.509-7.357,9.786
	c3.392,6.314,6.153,12.96,8.216,19.812c4.091,0.55,8.147,1.123,12.112,1.719C505.353,102.258,511.999,109.981,511.999,118.896z
	 M490.227,138.147v-16.134c-3.598-0.516-7.265-1.02-10.943-1.501c-7.265-0.951-13.223-6.119-15.16-13.155
	c-1.856-6.738-4.549-13.235-8.01-19.331c-3.609-6.348-3.048-14.209,1.421-20.03c2.257-2.933,4.492-5.878,6.669-8.8l-11.401-11.401
	c-2.933,2.189-5.878,4.423-8.8,6.669c-5.821,4.469-13.682,5.03-20.03,1.421c-6.096-3.461-12.593-6.153-19.331-8.01
	c-7.047-1.937-12.204-7.895-13.155-15.171c-0.481-3.667-0.985-7.334-1.501-10.932h-16.134c-0.516,3.598-1.02,7.265-1.501,10.943
	c-0.951,7.265-6.108,13.223-13.155,15.16c-6.738,1.856-13.235,4.549-19.319,8.01c-6.36,3.61-14.22,3.048-20.041-1.421
	c-2.922-2.246-5.867-4.48-8.8-6.669l-11.401,11.401c2.177,2.922,4.412,5.867,6.669,8.8c4.48,5.821,5.03,13.682,1.421,20.03
	c-3.461,6.096-6.153,12.593-8.01,19.331c-1.937,7.036-7.884,12.204-15.16,13.155c-3.678,0.481-7.345,0.985-10.932,1.501v16.134
	c3.587,0.516,7.253,1.02,10.932,1.501c7.276,0.951,13.223,6.108,15.16,13.155c1.856,6.738,4.549,13.235,8.01,19.319
	c3.609,6.36,3.06,14.22-1.409,20.03c-2.269,2.933-4.503,5.89-6.68,8.8l11.401,11.413c2.933-2.189,5.878-4.423,8.812-6.669
	c5.81-4.48,13.67-5.03,20.03-1.421c6.085,3.461,12.593,6.153,19.319,8.01c7.047,1.937,12.204,7.895,13.155,15.16
	c0.481,3.678,0.985,7.345,1.501,10.932h16.134c0.516-3.587,1.02-7.253,1.501-10.932c0.951-7.265,6.107-13.223,13.155-15.16
	c6.738-1.856,13.235-4.549,19.319-8.01c6.36-3.609,14.22-3.059,20.041,1.421c2.922,2.246,5.878,4.48,8.8,6.669l11.401-11.413
	c-2.177-2.911-4.412-5.867-6.669-8.8c-4.469-5.81-5.03-13.67-1.421-20.03c3.461-6.085,6.153-12.582,8.01-19.319
	c1.937-7.047,7.895-12.204,15.16-13.155C482.962,139.167,486.629,138.662,490.227,138.147z"/>
<path style="fill:#9B8CCC;" d="M490.227,122.013v16.134c-3.598,0.516-7.265,1.02-10.943,1.501
	c-7.265,0.951-13.223,6.108-15.16,13.155c-1.856,6.738-4.549,13.235-8.01,19.319c-3.609,6.36-3.048,14.22,1.421,20.03
	c2.257,2.933,4.492,5.89,6.669,8.8l-11.401,11.413c-2.922-2.189-5.878-4.423-8.8-6.669c-5.821-4.48-13.682-5.03-20.041-1.421
	c-6.085,3.461-12.582,6.153-19.319,8.01c-7.047,1.937-12.204,7.895-13.155,15.16c-0.481,3.678-0.985,7.345-1.501,10.932h-16.134
	c-0.516-3.587-1.02-7.253-1.501-10.932c-0.951-7.265-6.108-13.223-13.155-15.16c-6.726-1.856-13.235-4.549-19.319-8.01
	c-6.36-3.609-14.22-3.059-20.03,1.421c-2.933,2.246-5.878,4.48-8.812,6.669l-11.401-11.413c2.177-2.911,4.412-5.867,6.68-8.8
	c4.469-5.81,5.019-13.67,1.409-20.03c-3.461-6.085-6.153-12.582-8.01-19.319c-1.937-7.047-7.884-12.204-15.16-13.155
	c-3.678-0.481-7.345-0.985-10.932-1.501v-16.134c3.587-0.516,7.253-1.02,10.932-1.501c7.276-0.951,13.223-6.119,15.16-13.155
	c1.856-6.738,4.549-13.235,8.01-19.331c3.609-6.348,3.06-14.209-1.421-20.03c-2.257-2.933-4.492-5.878-6.669-8.8l11.401-11.401
	c2.933,2.189,5.878,4.423,8.8,6.669c5.821,4.469,13.682,5.03,20.041,1.421c6.085-3.461,12.582-6.153,19.319-8.01
	c7.047-1.937,12.204-7.895,13.155-15.16c0.481-3.678,0.985-7.345,1.501-10.943h16.134c0.516,3.598,1.02,7.265,1.501,10.932
	c0.951,7.276,6.108,13.235,13.155,15.171c6.738,1.856,13.235,4.549,19.331,8.01c6.348,3.61,14.209,3.048,20.03-1.421
	c2.922-2.246,5.867-4.48,8.8-6.669l11.401,11.401c-2.177,2.922-4.412,5.867-6.669,8.8c-4.469,5.821-5.03,13.682-1.421,20.03
	c3.461,6.096,6.153,12.593,8.01,19.331c1.937,7.036,7.895,12.204,15.16,13.155C482.962,120.993,486.629,121.497,490.227,122.013z
	 M428.315,130.08c0-25.587-20.809-46.396-46.396-46.396s-46.396,20.809-46.396,46.396s20.809,46.396,46.396,46.396
	C407.506,176.476,428.315,155.667,428.315,130.08z"/>
<g>
	<path style="fill:#1E0478;" d="M381.919,83.683c25.587,0,46.396,20.809,46.396,46.396s-20.809,46.396-46.396,46.396
		s-46.396-20.809-46.396-46.396S356.331,83.683,381.919,83.683z M407.69,130.08c0-14.209-11.562-25.771-25.771-25.771
		c-14.209,0-25.771,11.562-25.771,25.771c0,14.209,11.562,25.771,25.771,25.771C396.128,155.85,407.69,144.289,407.69,130.08z"/>
	<path style="fill:#1E0478;" d="M337.585,289.471c4.033,9.74,0.275,21.176-8.743,26.596c-5.363,3.22-10.886,6.474-16.432,9.671
		c1.295,11.046,1.295,22.253,0,33.322c5.523,3.186,11.046,6.44,16.432,9.671c9.018,5.42,12.777,16.856,8.743,26.596l-11.768,28.418
		c-4.045,9.751-14.782,15.183-25.003,12.639c-6.073-1.513-12.272-3.128-18.46-4.778c-6.898,8.743-14.816,16.661-23.548,23.559
		c1.662,6.222,3.277,12.421,4.778,18.449c2.544,10.221-2.888,20.958-12.628,24.992l-28.418,11.78
		c-9.751,4.033-21.187,0.275-26.607-8.743c-3.243-5.397-6.497-10.92-9.671-16.432c-11.058,1.295-22.253,1.295-33.322,0
		c-3.208,5.569-6.463,11.104-9.671,16.432c-3.953,6.577-11.104,10.359-18.46,10.359c-2.739,0-5.5-0.527-8.136-1.616l-28.429-11.78
		c-9.74-4.033-15.171-14.77-12.628-24.992c1.513-6.062,3.117-12.272,4.778-18.46c-8.743-6.898-16.661-14.816-23.559-23.548
		c-6.188,1.662-12.387,3.266-18.449,4.778c-10.221,2.544-20.958-2.888-24.992-12.628l-11.78-28.418
		c-4.033-9.751-0.275-21.187,8.743-26.607c5.363-3.231,10.886-6.474,16.432-9.671c-1.295-11.058-1.295-22.253,0-33.322
		c-5.535-3.186-11.058-6.44-16.432-9.671c-9.018-5.42-12.777-16.856-8.743-26.596l11.768-28.418
		c4.045-9.751,14.782-15.183,24.992-12.639c6.062,1.513,12.272,3.117,18.472,4.778c6.898-8.743,14.816-16.661,23.548-23.559
		c-1.65-6.165-3.254-12.364-4.778-18.449c-2.544-10.221,2.888-20.958,12.628-24.992l28.418-11.78
		c9.751-4.033,21.187-0.275,26.607,8.743c3.22,5.351,6.474,10.874,9.671,16.432c11.058-1.295,22.253-1.295,33.322,0
		c3.186-5.535,6.44-11.058,9.671-16.432c5.42-9.018,16.856-12.777,26.607-8.743l28.418,11.78c9.74,4.033,15.171,14.77,12.628,24.992
		c-1.513,6.073-3.128,12.272-4.778,18.46c8.743,6.898,16.661,14.816,23.559,23.548c6.176-1.662,12.387-3.266,18.449-4.778
		c10.221-2.544,20.958,2.888,24.992,12.628l11.78,28.418C337.585,289.471,337.585,289.471,337.585,289.471z M315.928,297.091
		l-10.817-26.126c-5.821,1.467-11.768,3.002-17.692,4.606c-8.376,2.246-17.211-0.688-22.505-7.505
		c-6.096-7.815-13.143-14.862-20.981-20.958c-6.807-5.305-9.763-14.152-7.505-22.516c1.593-5.924,3.14-11.871,4.606-17.704
		l-26.126-10.817c-3.094,5.156-6.211,10.462-9.259,15.767c-4.331,7.517-12.65,11.688-21.233,10.611
		c-9.855-1.226-19.824-1.226-29.655,0c-8.548,1.066-16.89-3.105-21.21-10.622c-3.071-5.317-6.176-10.611-9.259-15.756
		l-26.126,10.817c1.467,5.844,3.014,11.791,4.606,17.692c2.246,8.376-0.688,17.211-7.494,22.505
		c-7.826,6.096-14.873,13.143-20.97,20.981c-5.305,6.806-14.152,9.763-22.516,7.505c-5.936-1.604-11.883-3.151-17.704-4.606
		l-10.817,26.126c5.168,3.094,10.462,6.211,15.767,9.259c7.517,4.331,11.688,12.662,10.611,21.233
		c-1.226,9.843-1.226,19.824,0,29.655c1.066,8.56-3.105,16.89-10.622,21.21c-5.305,3.06-10.599,6.165-15.756,9.259l10.817,26.126
		c5.821-1.455,11.768-3.002,17.692-4.606c8.376-2.246,17.211,0.688,22.505,7.505c6.096,7.815,13.143,14.862,20.981,20.958
		c6.807,5.305,9.751,14.152,7.505,22.516c-1.604,5.936-3.151,11.883-4.606,17.704l26.126,10.817
		c3.071-5.122,6.176-10.427,9.259-15.767c4.331-7.517,12.65-11.676,21.233-10.611c9.843,1.226,19.824,1.226,29.655,0
		c8.56-1.054,16.89,3.105,21.21,10.622c3.048,5.282,6.153,10.576,9.259,15.756l26.126-10.817
		c-1.455-5.798-3.002-11.734-4.606-17.692c-2.246-8.376,0.688-17.211,7.494-22.505c7.815-6.096,14.873-13.143,20.97-20.981
		c5.305-6.807,14.14-9.751,22.516-7.505c5.924,1.593,11.871,3.14,17.704,4.606l10.817-26.126
		c-5.168-3.094-10.473-6.211-15.767-9.259c-7.517-4.331-11.676-12.662-10.611-21.233c1.226-9.843,1.226-19.824,0-29.655
		c-1.066-8.56,3.105-16.89,10.622-21.21C305.477,303.29,310.783,300.173,315.928,297.091z"/>
</g>
<path style="fill:#6F7CCD;" d="M305.111,270.965l10.817,26.126c-5.145,3.082-10.45,6.199-15.756,9.259
	c-7.517,4.32-11.688,12.65-10.622,21.21c1.226,9.832,1.226,19.812,0,29.655c-1.066,8.571,3.094,16.902,10.611,21.233
	c5.294,3.048,10.599,6.165,15.767,9.259l-10.817,26.126c-5.833-1.467-11.78-3.014-17.704-4.606
	c-8.376-2.246-17.211,0.699-22.516,7.505c-6.096,7.838-13.155,14.885-20.97,20.981c-6.807,5.294-9.74,14.129-7.494,22.505
	c1.604,5.959,3.151,11.894,4.606,17.692l-26.126,10.817c-3.105-5.179-6.211-10.473-9.259-15.756
	c-4.32-7.517-12.65-11.676-21.21-10.622c-9.832,1.226-19.812,1.226-29.655,0c-8.583-1.066-16.902,3.094-21.233,10.611
	c-3.082,5.34-6.188,10.645-9.259,15.767L98.166,477.91c1.455-5.821,3.002-11.768,4.606-17.704
	c2.246-8.365-0.699-17.211-7.505-22.516c-7.838-6.096-14.885-13.143-20.981-20.958c-5.294-6.818-14.129-9.751-22.505-7.505
	c-5.924,1.604-11.871,3.151-17.692,4.606l-10.817-26.126c5.156-3.094,10.45-6.199,15.756-9.259
	c7.517-4.32,11.688-12.65,10.622-21.21c-1.226-9.832-1.226-19.812,0-29.655c1.077-8.571-3.094-16.902-10.611-21.233
	c-5.305-3.048-10.599-6.165-15.767-9.259l10.817-26.126c5.821,1.455,11.768,3.002,17.704,4.606
	c8.365,2.257,17.211-0.699,22.516-7.505c6.096-7.838,13.143-14.885,20.97-20.981c6.806-5.294,9.74-14.129,7.494-22.505
	c-1.593-5.901-3.14-11.848-4.606-17.692l26.126-10.817c3.082,5.145,6.188,10.439,9.259,15.756
	c4.32,7.517,12.662,11.688,21.21,10.622c9.832-1.226,19.801-1.226,29.655,0c8.583,1.077,16.902-3.094,21.233-10.611
	c3.048-5.305,6.165-10.611,9.259-15.767l26.126,10.817c-1.467,5.832-3.014,11.78-4.606,17.704
	c-2.257,8.365,0.699,17.211,7.505,22.516c7.838,6.096,14.885,13.143,20.981,20.958c5.294,6.818,14.129,9.751,22.505,7.505
	C293.343,273.967,299.29,272.432,305.111,270.965z M247.702,342.307c0-9.946-1.914-20.053-5.947-29.793
	c-16.478-39.796-62.255-58.76-102.04-42.271c-39.796,16.478-58.76,62.255-42.271,102.04c7.975,19.285,22.998,34.296,42.271,42.271
	c9.637,3.999,19.755,5.993,29.884,5.993s20.248-1.994,29.884-5.993C229.529,402.111,247.702,372.96,247.702,342.307z"/>
<path style="fill:#1E0478;" d="M241.755,312.515c4.033,9.74,5.947,19.847,5.947,29.793c0,30.652-18.174,59.803-48.218,72.247
	c-9.637,3.999-19.755,5.993-29.884,5.993s-20.248-1.994-29.884-5.993c-19.274-7.975-34.296-22.986-42.271-42.271
	c-16.489-39.785,2.475-85.563,42.271-102.04C179.5,253.754,225.278,272.718,241.755,312.515z M190.718,393.39
	c28.12-11.654,41.515-44.002,29.873-72.11c-8.8-21.233-29.392-34.067-51.06-34.067c-7.024,0-14.163,1.352-21.05,4.194
	c-28.12,11.654-41.515,44.002-29.873,72.11c5.649,13.624,16.249,24.224,29.873,29.873
	C162.106,399.028,177.105,399.028,190.718,393.39z"/>
<g>
</g>
<g>
</g>
<g>
</g>
<g>
</g>
<g>
</g>
<g>
</g>
<g>
</g>
<g>
</g>
<g>
</g>
<g>
</g>
<g>
</g>
<g>
</g>
<g>
</g>
<g>
</g>
<g>
</g>
</svg>
