<svg height="512pt" viewBox="0 0 512 512" width="512pt" xmlns="http://www.w3.org/2000/svg"><path d="m480.109375 128.144531-244.125-20.015625v295.742188l244.125-20.015625zm0 0" fill="#03232e"/><g fill="#07485e"><path d="m31.894531 128.144531v255.710938l224.109375 20.015625v-295.742188zm0 0"/><path d="m512 0h-255.996094l-20.019531 64.070312 20.019531 64.074219h255.996094zm0 0"/><path d="m512 320.070312v-128.140624h-255.996094l-20.019531 64.070312 20.019531 64.070312zm0 0"/><path d="m512 512v-128.144531h-255.996094l-20.019531 64.074219 20.019531 64.070312zm0 0"/></g><path d="m0 0h256.003906v128.144531h-256.003906zm0 0" fill="#0b799d"/><path d="m0 191.929688h256.003906v128.140624h-256.003906zm0 0" fill="#0b799d"/><path d="m0 383.855469h256.003906v128.144531h-256.003906zm0 0" fill="#0b799d"/><path d="m326.070312 49.070312h138.089844v30h-138.089844zm0 0" fill="#b4d2d7"/><path d="m326.070312 241h138.089844v30h-138.089844zm0 0" fill="#b4d2d7"/><path d="m326.070312 432.929688h138.089844v30h-138.089844zm0 0" fill="#b4d2d7"/><path d="m47.839844 49.070312h31.890625v30h-31.890625zm0 0" fill="#00ff94"/><path d="m111.625 49.070312h31.894531v30h-31.894531zm0 0" fill="#ffd422"/><path d="m47.839844 241h31.890625v30h-31.890625zm0 0" fill="#00ff94"/><path d="m111.625 241h31.894531v30h-31.894531zm0 0" fill="#ffd422"/><path d="m47.839844 432.929688h31.890625v30h-31.890625zm0 0" fill="#00ff94"/><path d="m111.625 432.929688h31.894531v30h-31.894531zm0 0" fill="#ffd422"/></svg>