<?xml version="1.0" encoding="iso-8859-1"?>
<!-- Generator: Adobe Illustrator 19.0.0, SVG Export Plug-In . SVG Version: 6.00 Build 0)  -->
<svg version="1.1" id="Capa_1" xmlns="http://www.w3.org/2000/svg" xmlns:xlink="http://www.w3.org/1999/xlink" x="0px" y="0px"
	 viewBox="0 0 512 512" style="enable-background:new 0 0 512 512;" xml:space="preserve">
<g>
	<path style="fill:#366DB6;" d="M356.571,27.429c-85.842,0-155.429,20.471-155.429,45.714V128
		c63.525,5.742,100.498,16,100.498,36.571c0,2.359-0.585,7.013,0.073,7.077c-0.027,0-0.055,0-0.073-0.009v66.075c0,2.35,0,0,0,7.067
		v66.075c0,2.35,0,0,0,7.067V384c0,2.35-0.795,4.645-1.957,6.903c15.031,1.426,40.229,2.24,56.887,2.24
		c85.842,0,155.429-20.471,155.429-45.714v-73.143v-73.143V128V73.143C512,47.899,442.414,27.429,356.571,27.429z"/>
	<ellipse style="fill:#366DB6;" cx="356.571" cy="54.857" rx="155.429" ry="45.714"/>
</g>
<g>
	<path style="fill:#1F436D;" d="M356.571,100.571c-85.842,0-155.429-20.471-155.429-45.714v66.021
		c63.525,5.742,109.714,23.131,109.714,43.694c0,2.359-0.795,4.663-1.975,6.93c15.04,1.426,31.04,2.213,47.689,2.213
		C442.414,173.714,512,153.243,512,128V54.857C512,80.101,442.414,100.571,356.571,100.571z"/>
	<path style="fill:#1F436D;" d="M356.571,246.857c-15.945,0-31.241-0.759-45.714-2.075v66.075c0,2.35-0.795,4.645-1.957,6.903
		c15.031,1.426,31.013,2.24,47.671,2.24C442.414,320,512,299.529,512,274.286v-73.143C512,226.386,442.414,246.857,356.571,246.857z
		"/>
</g>
<g>
	<path style="fill:#366DB6;" d="M356.571,320c-15.945,0-31.241-0.759-45.714-2.075V384c0,2.35-0.795,4.645-1.957,6.903
		c15.031,1.426,31.013,2.24,47.671,2.24c85.842,0,155.429-20.471,155.429-45.714v-73.143C512,299.529,442.414,320,356.571,320z"/>
	<path style="fill:#366DB6;" d="M356.571,173.714c-15.945,0-31.241-0.759-45.714-2.075v66.075c0,2.35-0.795,4.645-1.957,6.903
		c15.031,1.426,31.013,2.24,47.671,2.24c85.842,0,155.429-20.471,155.429-45.714V128C512,153.243,442.414,173.714,356.571,173.714z"
		/>
</g>
<path style="fill:#DC691D;" d="M155.429,137.143C69.586,137.143,0,157.614,0,182.857v54.857v73.143V384v73.143
	c0,25.243,69.586,45.714,155.429,45.714s155.429-20.471,155.429-45.714V384v-73.143v-73.143v-54.857
	C310.857,157.614,241.271,137.143,155.429,137.143z"/>
<ellipse style="fill:#EBBA16;" cx="155.429" cy="164.571" rx="155.429" ry="45.714"/>
<path style="fill:#ED8A19;" d="M155.429,210.286C69.586,210.286,0,189.815,0,164.571v73.143c0,25.243,69.586,45.714,155.429,45.714
	s155.429-20.471,155.429-45.714v-73.143C310.857,189.815,241.271,210.286,155.429,210.286z"/>
<path style="fill:#DC691D;" d="M155.429,283.429C69.586,283.429,0,262.958,0,237.714v73.143c0,25.243,69.586,45.714,155.429,45.714
	s155.429-20.471,155.429-45.714v-73.143C310.857,262.958,241.271,283.429,155.429,283.429z"/>
<path style="fill:#C5411E;" d="M155.429,356.571C69.586,356.571,0,336.101,0,310.857V384c0,25.243,69.586,45.714,155.429,45.714
	S310.857,409.243,310.857,384v-73.143C310.857,336.101,241.271,356.571,155.429,356.571z"/>
<path style="fill:#A03520;" d="M155.429,429.714C69.586,429.714,0,409.243,0,384v73.143c0,25.243,69.586,45.714,155.429,45.714
	s155.429-20.471,155.429-45.714V384C310.857,409.243,241.271,429.714,155.429,429.714z"/>
<g>
</g>
<g>
</g>
<g>
</g>
<g>
</g>
<g>
</g>
<g>
</g>
<g>
</g>
<g>
</g>
<g>
</g>
<g>
</g>
<g>
</g>
<g>
</g>
<g>
</g>
<g>
</g>
<g>
</g>
</svg>
