<?xml version="1.0" encoding="UTF-8"?>
<svg width="190px" height="30px" viewBox="0 0 190 30" version="1.1" xmlns="http://www.w3.org/2000/svg" xmlns:xlink="http://www.w3.org/1999/xlink">
    <!-- Generator: Sketch 51.3 (57544) - http://www.bohemiancoding.com/sketch -->
    <title>Group 10</title>
    <desc>Created with Sketch.</desc>
    <defs></defs>
    <g id="Page-1" stroke="none" stroke-width="1" fill="none" fill-rule="evenodd">
        <g id="AppView" transform="translate(-296.000000, -16.000000)" fill="#FFFFFF">
            <g id="Group-10" transform="translate(296.000000, 16.000000)">
                <g id="Group-7-Copy" transform="translate(46.000000, 10.000000)">
                    <g id="Group-9-Copy">
                        <path d="M88.2022857,3.39028571 L92.576,3.39028571 L92.576,0 L88.2022857,0 L88.2022857,3.39028571 Z M10.4462857,19.6274286 L7.70914286,14.5251429 L6.23428571,14.5251429 L6.23428571,19.6274286 L0,19.6274286 L0,16.3171429 L1.16914286,16.3171429 L1.16914286,3.31028571 L0,3.31028571 L0,0 L6.23428571,0 L6.23428571,10.7891429 L7.67428571,10.7891429 L10.9697143,5.89942857 L15.7742857,5.89942857 L15.7742857,9.20971429 L14.9742857,9.20971429 L12.2788571,12.2234286 L15.2331429,16.3171429 L16.12,16.3171429 L16.12,19.6274286 L10.4462857,19.6274286 Z M73.736,19.6274286 L70.3874286,9.20971429 L69.4137143,9.20971429 L69.4137143,5.89942857 L76.5782857,5.89942857 L76.5782857,9.20971429 L75.3034286,9.20971429 L76.992,15.5194286 L78.0617143,15.5194286 L79.7502857,9.20971429 L78.476,9.20971429 L78.476,5.89942857 L85.1348571,5.89942857 L85.1348571,9.20971429 L84.1582857,9.20971429 L80.8897143,19.6274286 L73.736,19.6274286 Z M86.9268571,19.6274286 L86.9268571,16.3171429 L88.096,16.3171429 L88.096,9.20971429 L86.9268571,9.20971429 L86.9268571,5.89942857 L93.1605714,5.89942857 L93.1605714,16.3171429 L94.3302857,16.3171429 L94.3302857,19.6274286 L86.9268571,19.6274286 Z M22.9154286,20 C21.6011429,20 20.6525714,19.612 20.016,18.8148571 C19.3605714,17.9937143 19.028,16.8245714 19.028,15.3411429 L19.028,9.20971429 L17.8582857,9.20971429 L17.8582857,5.89942857 L24.0925714,5.89942857 L24.0925714,14.092 C24.0925714,14.8114286 24.2697143,15.3651429 24.6188571,15.7382857 C24.9777143,16.1228571 25.4948571,16.3171429 26.1571429,16.3171429 C26.8194286,16.3171429 27.3365714,16.1228571 27.696,15.7388571 C28.0457143,15.3651429 28.2228571,14.8114286 28.2228571,14.092 L28.2228571,9.20971429 L26.7874286,9.20971429 L26.7874286,5.89942857 L33.2874286,5.89942857 L33.2874286,16.3171429 L34.4565714,16.3171429 L34.4565714,19.6274286 L28.2228571,19.6274286 L28.2228571,16.5594286 L27.2868571,17.7554286 C26.1045714,19.2657143 24.6748571,20 22.9154286,20 Z M44.5474286,9.20971429 C43.8851429,9.20971429 43.3674286,9.40457143 43.0091429,9.78857143 C42.6594286,10.1611429 42.4822857,10.7148571 42.4822857,11.4348571 L42.4822857,14.092 C42.4822857,14.812 42.6594286,15.3657143 43.0097143,15.7388571 C43.3674286,16.1228571 43.8851429,16.3171429 44.5474286,16.3171429 C45.2097143,16.3171429 45.7274286,16.1228571 46.0857143,15.7382857 C46.4348571,15.3657143 46.6125714,14.812 46.6125714,14.092 L46.6125714,11.4348571 C46.6125714,10.7148571 46.4348571,10.1611429 46.0851429,9.788 C45.7274286,9.40457143 45.2097143,9.20971429 44.5474286,9.20971429 Z M47.1251429,20 C46.3262857,20 45.6114286,19.8034286 45.0005714,19.4165714 C44.3542857,19.0074286 43.8228571,18.5388571 43.4188571,18.0217143 L42.4822857,16.824 L42.4822857,19.6274286 L36.248,19.6274286 L36.248,16.3171429 L37.4171429,16.3171429 L37.4171429,3.31028571 L36.248,3.31028571 L36.248,0 L42.4822857,0 L42.4822857,8.70285714 L43.4188571,7.50514286 C43.8222857,6.98857143 44.3542857,6.51942857 45.0005714,6.11028571 C45.6114286,5.72342857 46.3268571,5.52685714 47.1251429,5.52685714 C48.7622857,5.52685714 49.9542857,6.11257143 50.7708571,7.31714286 C51.6188571,8.56857143 52.0491429,10.4017143 52.0491429,12.7634286 C52.0491429,15.1257143 51.6188571,16.9577143 50.7708571,18.2091429 C49.9542857,19.4142857 48.7622857,20 47.1251429,20 Z M61.236,8.25371429 C60.5737143,8.25371429 60.0565714,8.448 59.6977143,8.83142857 C59.3485714,9.20457143 59.1714286,9.75885714 59.1714286,10.4777143 L59.1714286,11.3205714 L63.3017143,11.3205714 L63.3017143,10.4777143 C63.3017143,9.73828571 63.1222857,9.17771429 62.7697143,8.812 C62.4102857,8.44114286 61.8942857,8.25371429 61.236,8.25371429 Z M61.236,20 C58.8691429,20 57.0045714,19.3811429 55.6937143,18.16 C54.3937143,16.9497143 53.7342857,15.1337143 53.7342857,12.7634286 C53.7342857,10.3931429 54.3937143,8.57714286 55.6937143,7.36685714 C57.0045714,6.14571429 58.8691429,5.52685714 61.236,5.52685714 C63.5622857,5.52685714 65.2474286,6.12228571 66.2451429,7.296 C67.2645714,8.49485714 67.7817143,10.0131429 67.7817143,11.8062857 L67.7817143,13.1965714 L59.1714286,13.1965714 L59.1714286,13.8794286 C59.1714286,14.7 59.4348571,15.3245714 59.9542857,15.7377143 C60.444,16.128 61.1851429,16.3171429 62.22,16.3171429 C63.3234286,16.3171429 64.3891429,16.2342857 65.3868571,16.0708571 C66.0937143,15.9548571 66.744,15.8148571 67.3302857,15.6514286 L67.3302857,18.8708571 C66.7657143,19.132 65.9885714,19.3771429 65.0125714,19.6011429 C63.8594286,19.8657143 62.5891429,20 61.236,20 Z M103.517143,9.20971429 C102.855429,9.20971429 102.337714,9.40457143 101.978857,9.788 C101.629143,10.1617143 101.452,10.7154286 101.452,11.4348571 L101.452,14.092 C101.452,14.8114286 101.629143,15.3651429 101.978286,15.7382857 C102.337714,16.1228571 102.855429,16.3171429 103.517143,16.3171429 C104.179429,16.3171429 104.697143,16.1228571 105.056,15.7382857 C105.405143,15.3651429 105.581714,14.8114286 105.581714,14.092 L105.581714,11.4348571 C105.581714,10.7154286 105.405143,10.1617143 105.056,9.78857143 C104.697143,9.40457143 104.179429,9.20971429 103.517143,9.20971429 Z M103.517143,20 C101.150286,20 99.2857143,19.3811429 97.9748571,18.16 C96.6748571,16.9502857 96.0154286,15.1342857 96.0154286,12.7634286 C96.0154286,10.3925714 96.6748571,8.57657143 97.9748571,7.36742857 C99.2857143,6.14571429 101.150286,5.52685714 103.517143,5.52685714 C105.917143,5.52685714 107.789143,6.15371429 109.081143,7.38857143 C110.366857,8.61714286 111.019429,10.4257143 111.019429,12.7634286 C111.019429,15.1337143 110.36,16.9497143 109.06,18.16 C107.749143,19.3811429 105.884,20 103.517143,20 Z M117.814857,20 C116.500571,20 115.551429,19.612 114.914857,18.8148571 C114.259429,17.9925714 113.926857,16.824 113.926857,15.3411429 L113.926857,9.20971429 L112.757714,9.20971429 L112.757714,5.89942857 L118.991429,5.89942857 L118.991429,14.092 C118.991429,14.8114286 119.168571,15.3651429 119.517714,15.7382857 C119.877143,16.1228571 120.394857,16.3171429 121.056571,16.3171429 C121.718857,16.3171429 122.236571,16.1228571 122.595429,15.7382857 C122.944571,15.3651429 123.121714,14.8114286 123.121714,14.092 L123.121714,9.20971429 L121.686857,9.20971429 L121.686857,5.89942857 L128.186286,5.89942857 L128.186286,16.3171429 L129.356,16.3171429 L129.356,19.6274286 L123.121714,19.6274286 L123.121714,16.5594286 L122.185714,17.7554286 C121.003429,19.2657143 119.574286,20 117.814857,20 Z M137.081143,20 C135.044,20 133.050286,19.6914286 131.147429,19.0817143 L131.147429,16.0508571 L134.420571,16.0508571 C134.494286,16.6554286 134.878857,17.5925714 136.549714,17.5925714 C138.317714,17.5925714 138.508571,16.5382857 138.508571,16.0851429 C138.508571,15.5514286 138.283429,15.124 137.857143,14.848 C137.52,14.6308571 136.983429,14.4582857 136.217143,14.3205714 L134.888571,14.0817143 C132.370857,13.6325714 131.147429,12.2542857 131.147429,9.86685714 C131.147429,8.49028571 131.650857,7.45542857 132.685714,6.70285714 C133.757714,5.92285714 135.246286,5.52685714 137.108,5.52685714 C139.089714,5.52685714 140.797714,5.83828571 142.191429,6.45371429 L142.191429,9.28971429 L139.182857,9.28971429 C139.114857,8.79542857 138.858286,8.49485714 138.638857,8.324 C138.307429,8.06514286 137.845143,7.93428571 137.267429,7.93428571 C135.595429,7.93428571 135.414857,8.89542857 135.414857,9.30857143 C135.414857,9.79085714 135.626857,10.1822857 136.027429,10.44 C136.334857,10.6377143 136.820571,10.804 137.555429,10.9634286 L139.081714,11.2577143 C140.529714,11.5342857 141.562286,12.0371429 142.152,12.7514286 C142.750857,13.4765714 143.041714,14.3931429 143.041714,15.5537143 C143.041714,17.0062857 142.557714,18.0777143 141.562286,18.8297143 C140.534857,19.6062857 139.027429,20 137.081143,20 Z" id="Fill-1"></path>
                    </g>
                </g>
                <g id="Group-13">
                    <path d="M0,20.2525357 C0.295086822,19.6813858 0.828722506,19.4990777 1.56737873,19.5000035 C10.3441925,19.5113447 19.1211001,19.5065614 27.8979138,19.5060984 C28.583507,19.5060984 29.0695269,19.7719612 29.2223296,20.2301618 C29.3647076,20.6568847 29.1722719,21.1269666 28.701091,21.3292569 C28.4543713,21.4351082 28.1444456,21.4848707 27.862695,21.486028 C24.9879934,21.4977549 22.1131978,21.4950546 19.2384023,21.4949775 C13.3245506,21.494746 7.41079278,21.488111 1.49694107,21.4999923 C0.757627432,21.5014582 0.25366948,21.2933044 0,20.7153653 L0,20.2525357 Z" id="Fill-1"></path>
                    <path d="M2,30 L2,23 L26.8780488,23 L26.8780488,29.9856357 L17.8139176,29.9856357 C17.7867701,29.4055446 17.805499,28.8217436 17.7241512,28.2524971 C17.474054,26.5021404 15.9423506,25.3266427 14.1194032,25.4459333 C12.5028522,25.5517157 11.1598568,26.9947136 11.1136966,28.6835225 C11.102062,29.1091255 11.111994,29.5352993 11.111994,30 L2,30 Z" id="Fill-5"></path>
                    <g id="Group-8" transform="translate(2.000000, 0.200000)">
                        <path d="M33.1219512,8.12681617 C32.4798793,8.81408238 31.8623397,9.52652528 31.1867885,10.1792936 C30.763198,10.5886552 30.1524889,10.5041884 29.7003256,10.0558125 C28.6862291,9.05037819 27.6781936,8.03888992 26.6678491,7.02980401 C25.5894877,5.95277945 24.5117997,4.87517833 23.4328611,3.79882643 C22.697759,3.06553107 22.6932374,2.53883839 23.418719,1.81399933 C23.7328282,1.50015545 24.0377979,1.17641386 24.3641251,0.875734893 C24.6245519,0.6358836 24.9110503,0.424187927 25.1860041,0.2 L25.7632338,0.2 C26.0500208,0.428704358 26.360859,0.633096866 26.6196504,0.889956845 C28.5720338,2.82683291 30.5172019,4.77101214 32.4556357,6.72172579 C32.7041331,6.97176307 32.9010646,7.27282641 33.1219512,7.55034666 L33.1219512,8.12681617 Z" id="Fill-3"></path>
                        <path d="M22.5208017,16.7111417 L21.7908033,17.426473 L21.2558461,16.5395595 C20.1110508,14.6413523 18.6967019,13.1493755 16.932201,11.9782759 L16.0461696,11.390147 L16.7906462,10.6136962 C16.9594975,10.4376371 17.3661793,10.0105794 17.8666469,9.48454325 C16.3466161,8.71636497 14.5996366,8.25378403 12.6573392,8.24882051 C6.49910736,8.2329567 2.02616112,12.9360413 0.926829268,17.7609756 L24.3414634,17.7609756 C24.1806351,17.0422379 23.937456,16.3129892 23.6171825,15.5942516 C23.108692,16.11766 22.7036701,16.5319682 22.5208017,16.7111417" id="Fill-7"></path>
                        <path d="M28.2439024,10.7022087 C27.9639578,10.9791734 27.6859124,11.2947425 27.3661792,11.5604201 C26.9625006,11.895813 26.5332776,11.8181301 26.1216222,11.5158401 C25.5953492,12.0038482 22.6181364,14.9407182 22.075625,15.4439024 C21.0187107,13.7852439 19.6716909,12.4257453 18,11.3756504 C18.5181064,10.8643089 21.486108,7.90581301 21.9852223,7.41315718 C21.5263714,6.70528455 21.563691,6.38753388 22.1360201,5.81415989 C22.3440794,5.60567751 22.548625,5.39387534 22.7387367,5.2 C24.5851556,7.04551491 26.4055552,8.86485095 28.2439024,10.7022087" id="Fill-9"></path>
                    </g>
                    <path d="M15.9940403,30 C16.0000212,29.530141 16.0074974,29.0791548 15.9831014,28.630878 C15.9352539,27.7507683 15.3335392,27.0616292 14.6182652,27.004637 C13.8622264,26.9443747 13.1461654,27.4762712 13.0441746,28.3214382 C12.9780694,28.8687506 13.0015997,29.4312921 13.0169455,30 L15.9940403,30 Z" id="Fill-11"></path>
                </g>
            </g>
        </g>
    </g>
</svg>