<?xml version="1.0" encoding="UTF-8"?>
<svg width="24px" height="24px" viewBox="0 0 24 24" version="1.1" xmlns="http://www.w3.org/2000/svg" xmlns:xlink="http://www.w3.org/1999/xlink">
    <!-- Generator: Sketch 51.3 (57544) - http://www.bohemiancoding.com/sketch -->
    <title>github</title>
    <desc>Created with Sketch.</desc>
    <defs></defs>
    <g id="github" stroke="none" stroke-width="1" fill="none" fill-rule="evenodd">
        <path d="M12,2 C6.475,2 2,6.4 2,11.8266667 C2,16.1691667 4.865,19.8516667 8.8375,21.15 C9.3375,21.2425 9.52083333,20.9383333 9.52083333,20.6775 C9.52083333,20.4441667 9.5125,19.8258333 9.50833333,19.0066667 C6.72666667,19.5991667 6.14,17.6883333 6.14,17.6883333 C5.685,16.5541667 5.0275,16.2508333 5.0275,16.2508333 C4.12166667,15.6416667 5.0975,15.6541667 5.0975,15.6541667 C6.10166667,15.7225 6.62916667,16.6666667 6.62916667,16.6666667 C7.52083333,18.1691667 8.97,17.735 9.54166667,17.4841667 C9.63166667,16.8483333 9.88916667,16.4158333 10.175,16.17 C7.95416667,15.9241667 5.62,15.0791667 5.62,11.3141667 C5.62,10.2416667 6.0075,9.365 6.64916667,8.6775 C6.53666667,8.42916667 6.19916667,7.43 6.73666667,6.07666667 C6.73666667,6.07666667 7.57416667,5.81333333 9.48666667,7.08416667 C10.2866667,6.86583333 11.1366667,6.7575 11.9866667,6.7525 C12.8366667,6.7575 13.6866667,6.86583333 14.4866667,7.08416667 C16.3866667,5.81333333 17.2241667,6.07666667 17.2241667,6.07666667 C17.7616667,7.43 17.4241667,8.42916667 17.3241667,8.6775 C17.9616667,9.365 18.3491667,10.2416667 18.3491667,11.3141667 C18.3491667,15.0891667 16.0116667,15.92 13.7866667,16.1616667 C14.1366667,16.4566667 14.4616667,17.0591667 14.4616667,17.98 C14.4616667,19.295 14.4491667,20.3516667 14.4491667,20.6708333 C14.4491667,20.9283333 14.6241667,21.2358333 15.1366667,21.1375 C19.1375,19.8475 22,16.1625 22,11.8266667 C22,6.4 17.5225,2 12,2 Z" id="Shape" fill="#FFFFFF" fill-rule="nonzero"></path>
    </g>
</svg>