<?xml version="1.0" encoding="UTF-8"?>
<svg width="18px" height="18px" viewBox="0 0 18 18" version="1.1" xmlns="http://www.w3.org/2000/svg" xmlns:xlink="http://www.w3.org/1999/xlink">
    <!-- Generator: Sketch 51.3 (57544) - http://www.bohemiancoding.com/sketch -->
    <title>Group 12</title>
    <desc>Created with Sketch.</desc>
    <defs></defs>
    <g id="Page-1" stroke="none" stroke-width="1" fill="none" fill-rule="evenodd">
        <g id="AppView-2" transform="translate(-1739.000000, -20.000000)" fill="#FFFFFF">
            <g id="Group-12" transform="translate(1739.000000, 20.000000)">
                <path d="M10.0536351,1.8 C10.4242879,0.751326864 11.4244031,0 12.6,0 C13.7755969,0 14.7757121,0.751326864 15.1463649,1.8 L17.1,1.8 C17.5970563,1.8 18,2.20294373 18,2.7 C18,3.19705627 17.5970563,3.6 17.1,3.6 L15.1463649,3.6 C14.7757121,4.64867314 13.7755969,5.4 12.6,5.4 C11.4244031,5.4 10.4242879,4.64867314 10.0536351,3.6 L0.9,3.6 C0.402943725,3.6 6.08718376e-17,3.19705627 0,2.7 C-6.08718376e-17,2.20294373 0.402943725,1.8 0.9,1.8 L10.0536351,1.8 Z M12.6,4.5 C13.5941125,4.5 14.4,3.69411255 14.4,2.7 C14.4,1.70588745 13.5941125,0.9 12.6,0.9 C11.6058875,0.9 10.8,1.70588745 10.8,2.7 C10.8,3.69411255 11.6058875,4.5 12.6,4.5 Z" id="Combined-Shape"></path>
                <path d="M2.85363514,8.1 C3.2242879,7.05132686 4.22440306,6.3 5.4,6.3 C6.57559694,6.3 7.5757121,7.05132686 7.94636486,8.1 L17.1,8.1 C17.5970563,8.1 18,8.50294373 18,9 C18,9.49705627 17.5970563,9.9 17.1,9.9 L7.94636486,9.9 C7.5757121,10.9486731 6.57559694,11.7 5.4,11.7 C4.22440306,11.7 3.2242879,10.9486731 2.85363514,9.9 L0.9,9.9 C0.402943725,9.9 6.08718376e-17,9.49705627 0,9 C-6.08718376e-17,8.50294373 0.402943725,8.1 0.9,8.1 L2.85363514,8.1 Z M5.4,10.8 C6.39411255,10.8 7.2,9.99411255 7.2,9 C7.2,8.00588745 6.39411255,7.2 5.4,7.2 C4.40588745,7.2 3.6,8.00588745 3.6,9 C3.6,9.99411255 4.40588745,10.8 5.4,10.8 Z" id="Combined-Shape"></path>
                <path d="M10.0536351,14.4 C10.4242879,13.3513269 11.4244031,12.6 12.6,12.6 C13.7755969,12.6 14.7757121,13.3513269 15.1463649,14.4 L17.1,14.4 C17.5970563,14.4 18,14.8029437 18,15.3 C18,15.7970563 17.5970563,16.2 17.1,16.2 L15.1463649,16.2 C14.7757121,17.2486731 13.7755969,18 12.6,18 C11.4244031,18 10.4242879,17.2486731 10.0536351,16.2 L0.9,16.2 C0.402943725,16.2 6.08718376e-17,15.7970563 0,15.3 C-6.08718376e-17,14.8029437 0.402943725,14.4 0.9,14.4 L10.0536351,14.4 Z M12.6,17.1 C13.5941125,17.1 14.4,16.2941125 14.4,15.3 C14.4,14.3058875 13.5941125,13.5 12.6,13.5 C11.6058875,13.5 10.8,14.3058875 10.8,15.3 C10.8,16.2941125 11.6058875,17.1 12.6,17.1 Z" id="Combined-Shape"></path>
            </g>
        </g>
    </g>
</svg>