<?xml version="1.0" encoding="UTF-8"?>
<svg width="24px" height="24px" viewBox="0 0 24 24" version="1.1" xmlns="http://www.w3.org/2000/svg" xmlns:xlink="http://www.w3.org/1999/xlink">
    <!-- Generator: Sketch 51.3 (57544) - http://www.bohemiancoding.com/sketch -->
    <title>github copy</title>
    <desc>Created with Sketch.</desc>
    <defs></defs>
    <g id="github-copy" stroke="none" stroke-width="1" fill="none" fill-rule="evenodd">
        <g id="search" transform="translate(2.000000, 2.000000)" fill="#FFFFFF" fill-rule="nonzero">
            <path d="M19.9684783,19.0860869 L13.2009058,12.3185145 C14.3061957,11.0133333 14.9763768,9.32855075 14.9763768,7.48818841 C14.9763768,3.35894927 11.6173913,-5.68434189e-14 7.48818841,-5.68434189e-14 C3.35898551,-5.68434189e-14 0,3.35894927 0,7.48818841 C0,11.6174275 3.35894928,14.9763768 7.48818841,14.9763768 C9.32855075,14.9763768 11.0133333,14.3061957 12.3185145,13.2009058 L19.0860869,19.9684782 C19.0860869,19.9684782 19.9684783,19.0860869 19.9684783,19.0860869 Z M7.48818841,13.7283333 C4.04757247,13.7283333 1.24804348,10.9288043 1.24804348,7.48818841 C1.24804348,4.04757247 4.04757247,1.24804347 7.48818841,1.24804347 C10.9288043,1.24804347 13.7283333,4.04757247 13.7283333,7.48818841 C13.7283333,10.9288043 10.9288043,13.7283333 7.48818841,13.7283333 Z" id="Shape"></path>
        </g>
    </g>
</svg>