<?xml version="1.0" encoding="UTF-8"?>
<svg width="16px" height="16px" viewBox="0 0 16 16" version="1.1" xmlns="http://www.w3.org/2000/svg" xmlns:xlink="http://www.w3.org/1999/xlink">
    <!-- Generator: Sketch 51.3 (57544) - http://www.bohemiancoding.com/sketch -->
    <title>Artboard 8</title>
    <desc>Created with Sketch.</desc>
    <defs></defs>
    <g id="Artboard-8" stroke="none" stroke-width="1" fill="none" fill-rule="evenodd">
        <g id="refresh" transform="translate(8.000000, 8.000000) scale(-1, 1) translate(-8.000000, -8.000000) translate(2.000000, 0.000000)" fill="#FFFFFF" fill-rule="nonzero">
            <path d="M10.7193191,4.8948766 L9.65899574,5.9552 C9.9821617,6.5616 10.1673532,7.25154043 10.1673532,7.98866383 C10.1673532,10.3961532 8.21739574,12.3461106 5.80990638,12.3461106 L5.80990638,10.1673872 L2.90495319,13.0723404 L5.80990638,15.9772936 L5.80990638,13.7985702 C9.01988085,13.7985702 11.6198468,11.1986383 11.6198468,7.98862979 C11.6198468,6.84844255 11.2857872,5.7917617 10.7193191,4.8948766 Z" id="Shape"></path>
            <path d="M5.80994043,3.63121702 L5.80994043,5.80994043 L8.71489362,2.90495319 L5.80994043,0 L5.80994043,2.1787234 C2.59993191,2.1787234 0,4.77865532 0,7.98866383 C0,9.12885106 0.334059574,10.1855319 0.90052766,11.0824511 L1.96085106,10.0221277 C1.63768511,9.41572766 1.45249362,8.72578723 1.45249362,7.98866383 C1.45249362,5.58117447 3.40245106,3.63121702 5.80994043,3.63121702 Z" id="Shape"></path>
        </g>
    </g>
</svg>