<?xml version="1.0" encoding="UTF-8"?>
<svg width="24px" height="24px" viewBox="0 0 24 24" version="1.1" xmlns="http://www.w3.org/2000/svg" xmlns:xlink="http://www.w3.org/1999/xlink">
    <!-- Generator: Sketch 51.3 (57544) - http://www.bohemiancoding.com/sketch -->
    <title>about</title>
    <desc>Created with Sketch.</desc>
    <defs></defs>
    <g id="about" stroke="none" stroke-width="1" fill="none" fill-rule="evenodd">
        <g id="server" transform="translate(2.000000, 2.000000)" fill="#FFFFFF" fill-rule="nonzero">
            <path d="M20,5.88424684 L20,0 L0,0 L0,5.88424684 L1.17279055,5.88424684 L1.17279055,7.05795289 L0,7.05795289 L0,12.9420471 L1.17279055,12.9420471 L1.17279055,14.1159058 L0,14.1159058 L0,20 L20,20 L20,14.1157532 L18.8272095,14.1157532 L18.8272095,12.9420471 L20,12.9420471 L20,7.05795289 L18.8272095,7.05795289 L18.8272095,5.88424684 L20,5.88424684 Z M1.171875,1.171875 L18.828125,1.171875 L18.828125,4.71237184 L1.171875,4.71237184 L1.171875,1.171875 Z M18.828125,18.828125 L1.171875,18.828125 L1.171875,15.2876282 L18.828125,15.2876282 L18.828125,18.828125 Z M17.6553345,14.1157532 L2.34466555,14.1157532 L2.34466555,12.9420471 L17.6553345,12.9420471 L17.6553345,14.1157532 Z M18.828125,11.7701721 L1.171875,11.7701721 L1.171875,8.22982789 L18.828125,8.22982789 L18.828125,11.7701721 Z M17.6553345,7.05795289 L2.34466555,7.05795289 L2.34466555,5.88424684 L17.6553345,5.88424684 L17.6553345,7.05795289 Z" id="Shape"></path>
            <polygon id="Shape" points="12.5767517 2.35610961 17.6548767 2.35610961 17.6548767 3.52798461 12.5767517 3.52798461"></polygon>
            <polygon id="Shape" points="12.5767517 9.4140625 17.6548767 9.4140625 17.6548767 10.5859375 12.5767517 10.5859375"></polygon>
            <polygon id="Shape" points="12.5767517 16.4720154 17.6548767 16.4720154 17.6548767 17.6438904 12.5767517 17.6438904"></polygon>
            <polygon id="Shape" points="2.34512328 2.35610961 3.51791383 2.35610961 3.51791383 3.52798461 2.34512328 3.52798461"></polygon>
            <polygon id="Shape" points="4.69085695 2.35610961 5.86364746 2.35610961 5.86364746 3.52798461 4.69085695 3.52798461"></polygon>
            <polygon id="Shape" points="2.34512328 9.4140625 3.51791383 9.4140625 3.51791383 10.5859375 2.34512328 10.5859375"></polygon>
            <polygon id="Shape" points="4.69085695 9.4140625 5.86364746 9.4140625 5.86364746 10.5859375 4.69085695 10.5859375"></polygon>
            <polygon id="Shape" points="2.34512328 16.4720154 3.51791383 16.4720154 3.51791383 17.6438904 2.34512328 17.6438904"></polygon>
            <polygon id="Shape" points="4.69085695 16.4720154 5.86364746 16.4720154 5.86364746 17.6438904 4.69085695 17.6438904"></polygon>
        </g>
    </g>
</svg>