<svg id="Capa_1" height="512" viewBox="-100 -100 662 662" width="512" 
    xmlns="http://www.w3.org/2000/svg">
    <g stroke="none" stroke-width="1" fill="none" fill-rule="evenodd">
        <path fill="#FFFFFF" fill-rule="nonzero" d="m410.47 157.835c.035-.052.07-.104.105-.156 2.788-4.182 7.454-6.68 12.48-6.68h43.945c24.813 0 45-20.187 45-45 0-8.284-6.716-15-15-15s-15 6.716-15 15c0 8.271-6.729 15-15 15h-43.944c-15.047 0-29.016 7.458-37.387 19.956l-25.481 37.202c-8.523-9.886-18.424-18.643-29.193-27.325-.04-11.766-4.4-26.674-11.631-40.791 26.275-23.993 41.636-58.602 41.636-95.041 0-8.284-6.716-15-15-15s-15 6.716-15 15c0 26.497-10.528 51.7-28.702 69.881-13.842-15.491-29.945-23.881-46.298-23.881s-32.456 8.39-46.298 23.881c-18.174-18.18-28.702-43.384-28.702-69.881 0-8.284-6.716-15-15-15s-15 6.716-15 15c0 36.439 15.361 71.047 41.636 95.041-7.231 14.117-11.591 29.026-11.631 40.791-10.754 8.671-20.642 17.415-29.158 27.285l-25.52-37.456c-8.388-12.311-22.291-19.661-37.188-19.661h-44.139c-8.271 0-15-6.729-15-15 0-8.284-6.716-15-15-15s-15 6.716-15 15c0 24.813 20.187 45 45 45h44.139c4.966 0 9.6 2.45 12.396 6.554l32.449 47.624c-6.16 12.907-10.384 27.97-12.109 46.363l-57.675 14.261c-20.137 4.978-34.2 22.942-34.2 43.684v36.514c0 8.271-6.729 15-15 15-8.284 0-15 6.716-15 15s6.716 15 15 15c24.813 0 45-20.187 45-45v-36.514c0-6.914 4.688-12.902 11.4-14.561l49.882-12.334c1.196 25.361 6.3 49.745 14.933 71.834l-32.704 32.037c-8.587 8.411-13.511 20.127-13.511 32.146v48.392c0 8.271-6.729 15-15 15-8.284 0-15 6.716-15 15s6.716 15 15 15c24.813 0 45-20.187 45-45v-48.392c0-4.006 1.642-7.912 4.503-10.715l25.55-25.029c23.249 39.126 60.295 68.136 105.947 68.136 45.778 0 82.796-29.154 105.971-68.177l25.69 25.051c2.799 2.827 4.339 6.571 4.339 10.552v48.574c0 24.813 20.187 45 45 45 8.284 0 15-6.716 15-15s-6.716-15-15-15c-8.271 0-15-6.729-15-15v-48.574c0-12.02-4.681-23.321-13.18-31.82-.044-.044-33.025-32.206-33.025-32.206 8.629-22.088 13.73-46.469 14.924-71.827l49.919 12.297c6.69 1.673 11.362 7.657 11.362 14.552v36.578c0 24.813 20.187 45 45 45 8.284 0 15-6.716 15-15s-6.716-15-15-15c-8.271 0-15-6.729-15-15v-36.577c0-20.687-14.017-38.639-34.136-43.669l-57.739-14.224c-1.725-18.377-5.944-33.43-12.097-46.33zm-154.47-66.835c22.41 0 45 41.14 45 60 0 16.262-20.607 30-45 30s-45-13.738-45-30c0-18.86 22.59-60 45-60zm-105 180c0-43.327 11.842-65.534 40.189-89.711 11.575 15.995 30.468 25.412 49.811 28.513v209.654c-58.629-12.142-90-85.962-90-148.456zm120 148.457v-209.654c19.345-3.102 38.237-12.52 49.811-28.513 27.828 23.733 40.189 45.767 40.189 89.71 0 61.994-30.08 136.047-90 148.457z"/>
        <circle fill="#FFFFFF" fill-rule="nonzero" cx="316" cy="316" r="15"/>
        <circle fill="#FFFFFF" fill-rule="nonzero" cx="316" cy="256" r="15"/>
        <circle fill="#FFFFFF" fill-rule="nonzero" cx="196" cy="256" r="15"/>
        <circle fill="#FFFFFF" fill-rule="nonzero" cx="196" cy="316" r="15"/>
    </g>
</svg>