<svg width="24" height="24" fill="none" xmlns="http://www.w3.org/2000/svg"><path d="M21.984 10.882a1 1 0 01-1-1c0-2.805-1.092-5.44-3.075-7.425a.999.999 0 111.414-1.414 12.417 12.417 0 013.661 8.84 1 1 0 01-1 .999zM1.984 10.882a1 1 0 01-1-1c0-3.339 1.3-6.478 3.661-8.839A.999.999 0 116.06 2.457a10.432 10.432 0 00-3.075 7.425 1 1 0 01-1 1zM21.363 16.913a6.698 6.698 0 01-2.379-5.125V9c0-3.519-2.614-6.432-6-6.92V1a1 1 0 10-2 0v1.08c-3.387.488-6 3.401-6 6.92v2.788a6.706 6.706 0 01-2.388 5.133 1.752 1.752 0 001.138 3.08h16.5c.965 0 1.75-.786 1.75-1.751 0-.512-.223-.996-.62-1.337zM11.984 24a3.756 3.756 0 003.674-3H8.31a3.756 3.756 0 003.674 3z" fill="#EFFD55"/></svg>
