<?xml version="1.0" encoding="UTF-8"?>
<svg width="16px" height="16px" viewBox="0 0 16 16" version="1.1" xmlns="http://www.w3.org/2000/svg" xmlns:xlink="http://www.w3.org/1999/xlink">
    <!-- Generator: Sketch 51.3 (57544) - http://www.bohemiancoding.com/sketch -->
    <title>Artboard 8</title>
    <desc>Created with Sketch.</desc>
    <defs></defs>
    <g id="Artboard-8" stroke="none" stroke-width="1" fill="none" fill-rule="evenodd">
        <g id="history" transform="translate(0.000000, 1.000000)" fill="#000000" fill-rule="nonzero">
            <path d="M7.9864058,4.0066087 L7.98495652,7.49915942 C7.98495652,7.63176812 8.0375942,7.75852174 8.13121739,7.85211594 L10.6297101,10.3501159 L11.3356232,9.6442029 L8.98336232,7.29243478 L8.98481159,4.0066087 L7.9864058,4.0066087 Z" id="Shape"></path>
            <path d="M8.98582609,0.0128985507 C5.47191304,0.0128985507 2.56371014,2.62255072 2.07663768,6.00344928 L0,6.00344928 L2.49605797,8.49950725 L4.99211594,6.00344928 L3.08544928,6.00344928 C3.56304348,3.17478261 6.02327536,1.01133333 8.98582609,1.01133333 C12.2891884,1.01133333 14.9763768,3.69849275 14.9763768,7.00188406 C14.9763768,10.3052754 12.2892174,12.9924348 8.98582609,12.9924348 C7.12889855,12.9924348 5.40701449,12.151971 4.26182609,10.6864928 L3.47498551,11.3007536 C4.81075362,13.009971 6.81930435,13.9908406 8.98582609,13.9908406 C12.8395942,13.9908406 15.9747826,10.8551594 15.9747826,7.00188406 C15.9747826,3.1486087 12.8395942,0.0129275362 8.98582609,0.0128985507 Z" id="Shape"></path>
        </g>
    </g>
</svg>