<?xml version="1.0" encoding="UTF-8"?>
<svg width="16px" height="16px" viewBox="0 0 16 16" version="1.1" xmlns="http://www.w3.org/2000/svg" xmlns:xlink="http://www.w3.org/1999/xlink">
    <!-- Generator: Sketch 51.3 (57544) - http://www.bohemiancoding.com/sketch -->
    <title>Artboard 8</title>
    <desc>Created with Sketch.</desc>
    <defs></defs>
    <g id="Artboard-8" stroke="none" stroke-width="1" fill="none" fill-rule="evenodd">
        <path d="M13.9237459,7.75586601 C13.8165424,7.6024748 11.2622459,4 7.99994727,4 C4.73764865,4 2.18323491,7.6024748 2.07614866,7.75571892 C1.97461711,7.90124077 1.97461711,8.09861214 2.07614866,8.24413399 C2.18323491,8.3975252 4.73764865,12 7.99994727,12 C11.2622459,12 13.8165424,8.39750068 13.9237459,8.24425656 C14.025418,8.09875923 14.025418,7.90124077 13.9237459,7.75586601 Z M7.99994727,11.172418 C5.59691679,11.172418 3.51563725,8.78138321 2.89953389,7.99971808 C3.51484038,7.21736652 5.59176052,4.82758198 7.99994727,4.82758198 C10.4028606,4.82758198 12.4839995,7.21820004 13.1003606,8.00028192 C12.4850542,8.78260896 10.408134,11.172418 7.99994727,11.172418 Z" id="Shape" fill="#FFFFFF" fill-rule="nonzero"></path>
        <path d="M8,6 C6.89722044,6 6,6.89722044 6,8 C6,9.10277956 6.89722044,10 8,10 C9.10277956,10 10,9.10277956 10,8 C10,6.89722044 9.10277956,6 8,6 Z M8,9.2 C7.33829018,9.2 6.8,8.66169204 6.8,8 C6.8,7.33830796 7.33830796,6.8 8,6.8 C8.66169204,6.8 9.2,7.33830796 9.2,8 C9.2,8.66169204 8.66170982,9.2 8,9.2 Z" id="Shape" fill="#FFFFFF" fill-rule="nonzero"></path>
    </g>
</svg>