<svg height="512" viewBox="0 0 58 58" width="512" xmlns="http://www.w3.org/2000/svg"><g id="003---Radioactive" fill="none"><circle id="Oval" cx="29" cy="29" fill="#f0c419" r="29"/><circle id="Oval" cx="29" cy="29" fill="#464f5d" r="25"/><g fill="#f0c419"><circle id="Oval" cx="29.01" cy="28.99" r="4.99"/><path id="Shape" d="m38.94 10.51-6.4 10.37c-2.2524478-.9745099-4.8075522-.9745099-7.06 0l-6.4-10.37c6.1967835-3.34765171 13.6632165-3.34765171 19.86 0z"/><path id="Shape" d="m49.99 29.63c-.2098011 7.0375975-3.9402994 13.4992863-9.93 17.2l-5.81-10.73c1.9883871-1.4556271 3.2730783-3.6802477 3.54-6.13z"/><path id="Shape" d="m23.77 36.1-5.81 10.73c-5.9897006-3.7007137-9.72019886-10.1624025-9.93-17.2l12.2.34c.2669217 2.4497523 1.5516129 4.6743729 3.54 6.13z"/></g></g></svg>