<svg id="Layer_1" enable-background="new 0 0 514.788 514.788" height="512" viewBox="0 0 514.788 514.788" width="512" xmlns="http://www.w3.org/2000/svg">
<path d="m504.013 364.93c-15.108-21.99-45.604-30.245-70.938-19.203l-70.783 30.85c-2.219-28.799-27.974-51.599-59.313-51.599h-20.557c-29.006-19.373-52.992-39.563-98.577-39.563h-66.065c-8.837 0-16 7.163-16 16v160.435c0 8.837 7.163 16 16 16h71.787c84.497 28.186 77.737 28.26 126.716 28.26 23.582 0 46.97-5.527 67.635-15.984l99.589-50.396c28.361-14.357 38.463-48.669 20.506-74.8z" fill="#c69a85"/>
<path d="m433.074 345.726-70.783 30.85c-2.219-28.799-27.974-51.599-59.313-51.599h-20.557c-29.006-19.373-52.992-39.563-98.577-39.563h-66.065c-8.837 0-16 7.163-16 16v93.178c28.617 2.831 67.869 4.03 121.174 1.169 157.151-8.435 119.454 73.485 181.8 19.838 27.077-23.298 50.458-49.868 68.251-72.476-12.846-3.627-27.053-3.009-39.93 2.603z" fill="#dfb7a4"/>
<path d="m117.778 265.819h-99.973c-8.837 0-16 7.163-16 16v216.969c0 8.837 7.163 16 16 16h99.974c8.837 0 16-7.163 16-16v-216.969c-.001-8.837-7.164-16-16.001-16z" fill="#565656"/>
<path d="m133.778 281.819c0-8.837-7.163-16-16-16h-99.973c-8.837 0-16 7.163-16 16v129.09c37.602 30.98 85.292 53.436 115.973 6.026 6.564-10.143 11.818-20.797 16-31.706z" fill="#666"/>
<path d="m346.445 384.935c-92.107 0-89.945 2.065-113.411-7.961-8.125-3.471-17.527.301-20.999 8.427-3.473 8.126.301 17.527 8.427 20.999 14.74 6.301 28.345 10.535 47.134 10.535h78.85c8.837 0 16-7.163 16-16s-7.164-16-16.001-16z" fill="#c69a85"/>
</svg>