<?xml version="1.0" encoding="UTF-8"?>
<svg width="16px" height="16px" viewBox="0 0 16 16" version="1.1" xmlns="http://www.w3.org/2000/svg" xmlns:xlink="http://www.w3.org/1999/xlink">
    <title>Group 4</title>
    <desc>Created with Sketch.</desc>
    <defs></defs>
    <g id="Page-1" stroke="none" stroke-width="1" fill="none" fill-rule="evenodd">
        <g id="AppView-2-Copy" transform="translate(-526.000000, -103.000000)" fill="#FFFFFF">
            <g id="Group-4" transform="translate(526.000000, 103.000000)">
                <path d="M8.31418742,7 C5.78108613,6.95097623 3.58117308,6.90170393 1.43380154,6.44147702 C1.06300859,6.36200757 0.694167188,6.24457422 0.357826461,6.09365061 C-0.116097965,5.88096576 -0.125480378,5.57066831 0.366908636,5.3850739 C0.9291028,5.17319679 1.53453112,5.02954286 2.13553094,4.9029758 C2.4474774,4.83730011 2.61170715,4.75006391 2.69817546,4.47431299 C2.99308346,3.53428695 3.29940046,2.59482011 3.66786657,1.67337214 C3.84072814,1.24098129 4.0969806,0.805297325 4.43647381,0.450511898 C5.01458055,-0.153555338 5.83647989,-0.13808396 6.47350818,0.424477731 C6.6427669,0.573910122 6.77584705,0.752359114 6.91785924,0.921922937 C7.40019031,1.49784345 8.30945868,1.51269349 8.81986193,0.951001673 C8.99219808,0.761306417 9.14261692,0.553654421 9.34167419,0.38564395 C9.94560132,-0.123855262 10.6826086,-0.117144785 11.2880369,0.392105891 C11.7301362,0.763978182 11.9656723,1.22936222 12.1347809,1.72227164 C12.4554342,2.65676775 12.7841189,3.58946198 13.0916369,4.52694053 C13.1571636,4.72682577 13.2666752,4.80095169 13.5128697,4.84301645 C14.098107,4.94305227 14.6763639,5.0757706 15.2494416,5.21743623 C15.447373,5.26639786 15.6382488,5.36314058 15.803079,5.46926554 C16.065036,5.63783522 16.068864,5.84921526 15.7951978,6.00790562 C15.5639401,6.1419909 15.3012326,6.27582764 15.030869,6.32037776 C13.8089786,6.52169208 12.5858873,6.73630309 11.3506364,6.85889357 C10.2366062,6.96949218 9.10621316,6.96669615 8.31418742,7" id="Fill-4"></path>
                <path d="M10,16 C9.99803091,15.0760388 10.1948875,14.2267899 10.5479795,13.429294 C10.9578619,12.5034508 11.5286419,11.7541321 12.1511036,11.0593263 C12.7206436,10.4235502 12.8326371,10.1585128 12.9378853,9.17577286 C13.2670212,9.11743327 13.606424,9.05413794 13.9467692,9.0008168 C13.9892255,8.99410461 14.0423952,9.0299866 14.0812308,9.06348482 C14.7218456,9.61601725 15.3609724,10.1713098 16,10.7255987 C14.9444934,11.0796511 13.8972202,11.4308805 12.849947,11.7821727 C12.8519806,11.8209403 12.8540637,11.8597079 12.8561469,11.8984755 C13.2305166,12.1487085 13.604936,12.3990041 14.0255813,12.6801006 C12.3062478,13.1191531 10.9798836,14.2153102 10,16" id="Fill-6"></path>
                <path d="M0.37406,10.9252321 C0.787627328,10.504441 1.16330892,10.1218917 1.53932481,9.73973537 C1.65164486,9.62553374 1.78524777,9.53084592 1.87405639,9.39549342 C2.28940657,8.76214586 3.36012419,9.16178607 3.60053145,9.8904108 C4.02579878,11.17937 4.78485055,12.2232279 5.61075949,13.1934179 C5.68825809,13.2844387 5.78659385,13.3539812 5.8817539,13.4207079 C6.43260128,13.8071206 6.53227419,14.4250143 6.12461258,15.0799057 C4.92697775,14.4164361 3.72427293,13.7502163 2.47889094,13.0603572 C2.77161393,12.7485947 3.04004548,12.4719307 3.29794702,12.1824322 C3.37193563,12.0993348 3.41561565,11.9790433 3.47316853,11.8758428 C3.37550134,11.8138308 3.28357273,11.7236612 3.17921983,11.694325 C2.26327656,11.4366511 1.34510472,11.1898472 0.37406,10.9252321" id="Fill-8"></path>
                <path d="M4.00513916,8 L11.9976623,8 C12.0277587,8.69108509 11.7644377,9.16578106 11.3703996,9.53791238 C10.5765736,10.2876377 9.42581345,10.1031328 8.79244166,9.1434844 C8.21557921,8.26956666 7.78533559,8.26477288 7.2191641,9.12587003 C6.52443161,10.1823974 5.20090917,10.2728104 4.43592182,9.30680746 C4.15840615,8.95641539 3.96560957,8.55061611 4.00513916,8" id="Fill-10"></path>
            </g>
        </g>
    </g>
</svg>