<svg enable-background="new 0 0 24 24" height="512" viewBox="0 0 24 24" width="512" xmlns="http://www.w3.org/2000/svg"><path d="m24 18.333-18.134 1.667v-15l18.134 1.667z" fill="#4caf50"/><path d="m5.87 5v15l-1.87-.53-1.5-.43-2.5-.71v-11.66l2.5-.71 1.5-.43z" fill="#66bb6a"/><path d="m4 5.53v13.94l-1.5-.43v-13.08z" fill="#4caf50"/><g fill="#388e3c"><path d="m9.25 17c-.414 0-.75-.336-.75-.75v-7.5c0-.414.336-.75.75-.75s.75.336.75.75v7.5c0 .414-.336.75-.75.75z"/><path d="m13.25 16.5c-.414 0-.75-.336-.75-.75v-6.5c0-.414.336-.75.75-.75s.75.336.75.75v6.5c0 .414-.336.75-.75.75z"/><path d="m17.25 16c-.414 0-.75-.336-.75-.75v-5.5c0-.414.336-.75.75-.75s.75.336.75.75v5.5c0 .414-.336.75-.75.75z"/><path d="m20.75 15.75c-.414 0-.75-.336-.75-.75v-4.75c0-.414.336-.75.75-.75s.75.336.75.75v4.75c0 .414-.336.75-.75.75z"/></g></svg>