<svg height="448pt" viewBox="-3 0 447 448" width="448pt" xmlns="http://www.w3.org/2000/svg"><path d="m280.5 224c0 30.929688-25.070312 56-56 56s-56-25.070312-56-56 25.070312-56 56-56 56 25.070312 56 56zm0 0" fill="#f55648"/><path d="m224.5 336c-61.855469 0-112-50.144531-112-112s50.144531-112 112-112 112 50.144531 112 112c-.066406 61.828125-50.171875 111.933594-112 112zm0-208c-53.019531 0-96 42.980469-96 96s42.980469 96 96 96 96-42.980469 96-96c-.058594-52.996094-43.003906-95.941406-96-96zm0 0" fill="#fbd699"/><path d="m224.5 384c-88.367188 0-160-71.632812-160-160s71.632812-160 160-160 160 71.632812 160 160c-.101562 88.324219-71.675781 159.898438-160 160zm0-304c-79.527344 0-144 64.472656-144 144s64.472656 144 144 144 144-64.472656 144-144c-.09375-79.492188-64.507812-143.90625-144-144zm0 0" fill="#aae5c8"/><path d="m224.140625 432c-80.703125-.144531-154.042969-46.957031-188.144531-120.097656-34.105469-73.144532-22.824219-159.414063 28.945312-221.328125 60.394532-72.203125 161.753906-94.847657 247.132813-55.207031 85.382812 39.640624 133.496093 131.679687 117.316406 224.414062-16.183594 92.734375-92.625 163.039062-186.386719 171.417969-6.308594.535156-12.597656.800781-18.863281.800781zm.695313-400c-5.785157 0-11.59375.265625-17.414063.800781-103.660156 9.503907-180.753906 100.046875-173.613281 203.894531 7.140625 103.847657 95.90625 182.984376 199.890625 178.207032 103.980469-4.777344 185.117187-91.71875 182.710937-195.78125-2.410156-104.066406-87.480468-187.160156-191.574218-187.121094zm0 0" fill="#c0f5f9"/><path d="m240.5 120c0 8.835938-7.164062 16-16 16s-16-7.164062-16-16 7.164062-16 16-16 16 7.164062 16 16zm0 0" fill="#de4e41"/><path d="m213.1875 108.6875c-5.390625 5.398438-6.21875 13.847656-1.984375 20.191406 2.28125 1.238282 4.832031 1.894532 7.425781 1.914063 5.898438-.003907 11.320313-3.253907 14.101563-8.457031 2.785156-5.203126 2.476562-11.515626-.796875-16.425782-6.183594-3.285156-13.785156-2.160156-18.746094 2.777344zm0 0" fill="#f55648"/><path d="m384.5 80c0 8.835938-7.164062 16-16 16s-16-7.164062-16-16 7.164062-16 16-16 16 7.164062 16 16zm0 0" fill="#316993"/><path d="m352.5 80c.003906 4.085938 1.578125 8.011719 4.398438 10.96875 6.957031 2.585938 14.777343.027344 18.863281-6.167969 4.085937-6.195312 3.359375-14.390625-1.757813-19.769531-4.898437-1.859375-10.398437-1.179688-14.699218 1.8125-4.300782 2.992188-6.847657 7.917969-6.804688 13.15625zm0 0" fill="#3775a4"/><path d="m136.5 224c0 8.835938-7.164062 16-16 16s-16-7.164062-16-16 7.164062-16 16-16 16 7.164062 16 16zm0 0" fill="#3775a4"/><path d="m136.5 224c0 8.835938-7.164062 16-16 16s-16-7.164062-16-16 7.164062-16 16-16 16 7.164062 16 16zm0 0" fill="#336c97"/><path d="m104.5 224c.011719 2.859375.800781 5.664062 2.28125 8.113281 2.269531 1.222657 4.804688 1.871094 7.382812 1.886719 8.835938 0 16-7.164062 16-16-.011718-2.859375-.800781-5.664062-2.28125-8.113281-2.269531-1.222657-4.804687-1.871094-7.382812-1.886719-8.835938 0-16 7.164062-16 16zm0 0" fill="#3775a4"/><path d="m396.5 224c0 11.046875-8.953125 20-20 20s-20-8.953125-20-20 8.953125-20 20-20 20 8.953125 20 20zm0 0" fill="#66afd8"/><path d="m356.5 224c.023438 3.324219.882812 6.589844 2.503906 9.496094 2.90625 1.621094 6.171875 2.480468 9.496094 2.503906 11.046875 0 20-8.953125 20-20-.023438-3.324219-.882812-6.589844-2.503906-9.496094-2.90625-1.621094-6.171875-2.480468-9.496094-2.503906-11.046875 0-20 8.953125-20 20zm0 0" fill="#6cbae5"/><path d="m136.5 332c0 11.046875-8.953125 20-20 20s-20-8.953125-20-20 8.953125-20 20-20 20 8.953125 20 20zm0 0" fill="#4c6c55"/><path d="m102.355469 317.855469c-6.234375 6.265625-7.597657 15.890625-3.351563 23.640625 2.90625 1.621094 6.171875 2.480468 9.496094 2.503906 11.046875 0 20-8.953125 20-20-.023438-3.324219-.882812-6.589844-2.503906-9.496094-7.75-4.246094-17.375-2.882812-23.640625 3.351563zm0 0" fill="#55785f"/><path d="m248.5 424c0 13.253906-10.746094 24-24 24s-24-10.746094-24-24 10.746094-24 24-24 24 10.746094 24 24zm0 0" fill="#cb6998"/><path d="m200.5 424c.015625 4.394531 1.25 8.699219 3.566406 12.433594 3.734375 2.316406 8.039063 3.550781 12.433594 3.566406 13.253906 0 24-10.746094 24-24-.015625-4.394531-1.25-8.699219-3.566406-12.433594-3.734375-2.316406-8.039063-3.550781-12.433594-3.566406-13.253906 0-24 10.746094-24 24zm0 0" fill="#d970a2"/><path d="m104.5 80c0 13.253906-10.746094 24-24 24s-24-10.746094-24-24 10.746094-24 24-24 24 10.746094 24 24zm0 0" fill="#a3b966"/><path d="m56.5 80c.015625 4.394531 1.25 8.699219 3.566406 12.433594 3.734375 2.316406 8.039063 3.550781 12.433594 3.566406 13.253906 0 24-10.746094 24-24-.015625-4.394531-1.25-8.699219-3.566406-12.433594-3.734375-2.316406-8.039063-3.550781-12.433594-3.566406-13.253906 0-24 10.746094-24 24zm0 0" fill="#aac16b"/><path d="m408.5 416h16v16h-16zm0 0" fill="#fbedbf"/><path d="m392.5 400h16v16h-16zm0 0" fill="#fbedbf"/><path d="m424.5 400h16v16h-16zm0 0" fill="#fbedbf"/><path d="m408.5 384h16v16h-16zm0 0" fill="#fbedbf"/><path d="m408.5 416h16v16h-16zm0 0" fill="#fbedbf"/><path d="m392.5 400h16v16h-16zm0 0" fill="#fbedbf"/><path d="m424.5 400h16v16h-16zm0 0" fill="#fbedbf"/><g fill="#6cbae5"><path d="m408.5 32h16v16h-16zm0 0"/><path d="m392.5 16h16v16h-16zm0 0"/><path d="m424.5 16h16v16h-16zm0 0"/><path d="m408.5 0h16v16h-16zm0 0"/><path d="m408.5 32h16v16h-16zm0 0"/><path d="m392.5 16h16v16h-16zm0 0"/><path d="m424.5 16h16v16h-16zm0 0"/></g><path d="m24.5 384h16v16h-16zm0 0" fill="#f7ba61"/><path d="m24.5 432h16v16h-16zm0 0" fill="#f7ba61"/><path d="m.5 408h16v16h-16zm0 0" fill="#f7ba61"/><path d="m48.5 408h16v16h-16zm0 0" fill="#f7ba61"/><path d="m24.5 0h16v16h-16zm0 0" fill="#fbedbf"/><path d="m.5 24h16v16h-16zm0 0" fill="#fbedbf"/><path d="m256.5 224c0 17.671875-14.328125 32-32 32s-32-14.328125-32-32 14.328125-32 32-32 32 14.328125 32 32zm0 0" fill="#ff5a4b"/></svg>