<?xml version="1.0" encoding="iso-8859-1"?>
<!-- Generator: Adobe Illustrator 19.0.0, SVG Export Plug-In . SVG Version: 6.00 Build 0)  -->
<svg version="1.1" id="Capa_1" xmlns="http://www.w3.org/2000/svg" xmlns:xlink="http://www.w3.org/1999/xlink" x="0px" y="0px"
	 viewBox="0 0 512 512" style="enable-background:new 0 0 512 512;" xml:space="preserve">
<path style="fill:#40596B;" d="M433.067,512H78.933C67.2,512,57.6,502.4,57.6,490.667V21.333C57.6,9.6,67.2,0,78.933,0h354.133
	C444.8,0,454.4,9.6,454.4,21.333v469.333C454.4,502.4,444.8,512,433.067,512z"/>
<g>
	<circle style="fill:#ACB3BA;" cx="408.533" cy="45.867" r="13.867"/>
	<circle style="fill:#ACB3BA;" cx="103.467" cy="45.867" r="13.867"/>
	<circle style="fill:#ACB3BA;" cx="408.533" cy="466.133" r="13.867"/>
	<circle style="fill:#ACB3BA;" cx="103.467" cy="466.133" r="13.867"/>
</g>
<circle style="fill:#F2F2F2;" cx="256" cy="181.333" r="132.267"/>
<circle style="fill:#40596B;" cx="256" cy="181.333" r="32"/>
<path style="fill:#FF7058;" d="M391.467,425.6H267.733c-20.267,0-36.267-16-36.267-36.267l0,0c0-20.267,16-36.267,36.267-36.267
	h123.733c20.267,0,36.267,16,36.267,36.267l0,0C427.733,409.6,411.733,425.6,391.467,425.6z"/>
<path style="fill:#FFD15C;" d="M225.067,241.067c0,0-103.467,88.533-115.2,109.867c-12.8,21.333-5.333,49.067,16,60.8
	c21.333,12.8,49.067,5.333,60.8-16C199.467,373.333,225.067,241.067,225.067,241.067z M138.667,388.267
	c-8.533-5.333-11.733-16-6.4-25.6c5.333-8.533,16-11.733,25.6-6.4c8.533,5.333,11.733,16,6.4,25.6
	C158.933,390.4,148.267,393.6,138.667,388.267z"/>
<g>
</g>
<g>
</g>
<g>
</g>
<g>
</g>
<g>
</g>
<g>
</g>
<g>
</g>
<g>
</g>
<g>
</g>
<g>
</g>
<g>
</g>
<g>
</g>
<g>
</g>
<g>
</g>
<g>
</g>
</svg>
