<svg enable-background="new 0 0 140 140" height="512" viewBox="0 0 140 140" width="512" xmlns="http://www.w3.org/2000/svg"><circle cx="70" cy="70" fill="#509fd7" r="64"/><path d="m133.6699219 63.4799805c.2200927 2.1499023.3300781 4.3198242.3300781 6.5200195 0 35.3500977-28.6500244 64-64 64-2.1899414 0-4.3599854-.1098633-6.4899902-.3300781l-28.3300781-28.3198242c-.8798828-.7402344-1.4599609-1.8300781-1.4599609-3.0703125v-64.5498047c0-2.2099609 1.7900391-4 4-4h64.5600586c1.1599121 0 2.1899414.5 2.9199219 1.2900391z" opacity=".1"/><path d="m102.2761841 33.7323418h-64.5523682c-2.2091675 0-4 1.7907715-4 4v64.5523682c0 2.2091064 1.7908325 4 4 4h64.5523682c2.2091675 0 4-1.7908936 4-4v-64.5523682c0-2.2092285-1.7908325-4-4-4z" fill="#ececec"/><path d="m37.723816 53.094158h64.552246v49.19043h-64.552246z" fill="#304651"/><circle cx="40.46" cy="43.413" fill="#d6b24e" r="2.736"/><circle cx="49.352" cy="43.413" fill="#dc594e" r="2.736"/><circle cx="58.243" cy="43.413" fill="#d6b24e" r="2.736"/><path d="m44.95282 69.757729h10.457031v2h-10.457031z" fill="#4388b9"/><path d="m52.717957 60.894451h7.67627v2h-7.67627z" fill="#e6e7e8"/><path d="m57.246765 69.757729h28.40332v2h-28.40332z" fill="#db584d"/><path d="m55.109558 76.406166h16.338867v2h-16.338867z" fill="#4388b9"/><g fill="#db584d"><path d="m44.95282 76.406166h7.981445v2h-7.981445z"/><path d="m73.633484 76.406166h12.630371v2h-12.630371z"/><path d="m44.95282 83.054604h16.612305v2h-16.612305z"/><path d="m63.278992 83.054604h16.669922v2h-16.669922z"/></g><path d="m81.492371 83.054604h8.911133v2h-8.911133z" fill="#4388b9"/><path d="m87.275085 69.757729h7.771973v2h-7.771973z" fill="#4388b9"/><g fill="#e6e7e8"><path d="m49.4743042 65.9554825-4.0610352-4.0610314 4.0610352-4.0610351 1.4140625 1.4140625-2.6469727 2.6469726 2.6469727 2.6469689z"/><path d="m63.6378784 65.9554825-1.4140625-1.4140625 2.6469727-2.6469689-2.6469727-2.6469726 1.4140625-1.4140625 4.0610352 4.0610351z"/><path d="m51.271458 92.484367h7.676203v1.999854h-7.676203z" transform="matrix(.577 -.817 .817 .577 -53.045 84.594)"/><path d="m49.4743042 97.5453262-4.0610352-4.0610351 4.0610352-4.0610352 1.4140625 1.4140625-2.6469727 2.6469727 2.6469727 2.6469726z"/><path d="m61.6954956 97.5453262-1.4140625-1.4140625 2.6469727-2.6469726-2.6469727-2.6469727 1.4140625-1.4140625 4.0610352 4.0610352z"/></g></svg>