<svg height="512" viewBox="0 0 512 512" width="512" xmlns="http://www.w3.org/2000/svg"><g id="Flat"><path d="m56.017 448v40h31.983l8-32v-8z" fill="#354f5c"/><path d="m160 448v40h31.983l8-32v-8z" fill="#047fa7"/><path d="m48 168h104v56h-104z" fill="#798b9b"/><path d="m24 96h128v80h-128z" fill="#354f5c"/><path d="m48 128h16v16h-16z" fill="#ffc119"/><path d="m80 128h16v16h-16z" fill="#ea732d"/><path d="m48 176h104v16h-104z" fill="#57646f"/><path d="m48 288h104v56h-104z" fill="#798b9b"/><path d="m24 216h128v80h-128z" fill="#354f5c"/><path d="m48 248h16v16h-16z" fill="#ffc119"/><path d="m80 248h16v16h-16z" fill="#ea732d"/><path d="m48 296h104v16h-104z" fill="#57646f"/><path d="m48 408h104v48h-104z" fill="#798b9b"/><path d="m24 336h128v80h-128z" fill="#354f5c"/><path d="m48 368h16v16h-16z" fill="#ffc119"/><path d="m80 368h16v16h-16z" fill="#ea732d"/><path d="m48 416h104v16h-104z" fill="#57646f"/><path d="m455.983 448v40h-31.983l-8-32v-8z" fill="#354f5c"/><path d="m351.983 448v40h-31.983l-8-32v-8z" fill="#047fa7"/><path d="m360 168h104v56h-104z" fill="#798b9b" transform="matrix(-1 0 0 -1 824 392)"/><path d="m360 96h128v80h-128z" fill="#354f5c" transform="matrix(-1 0 0 -1 848 272)"/><path d="m448 128h16v16h-16z" fill="#ffc119"/><path d="m416 128h16v16h-16z" fill="#ea732d"/><path d="m360 176h104v16h-104z" fill="#57646f" transform="matrix(-1 0 0 -1 824 368)"/><path d="m360 288h104v56h-104z" fill="#798b9b" transform="matrix(-1 0 0 -1 824 632)"/><path d="m360 216h128v80h-128z" fill="#354f5c" transform="matrix(-1 0 0 -1 848 512)"/><path d="m448 248h16v16h-16z" fill="#ffc119"/><path d="m416 248h16v16h-16z" fill="#ea732d"/><path d="m360 296h104v16h-104z" fill="#57646f" transform="matrix(-1 0 0 -1 824 608)"/><path d="m360 408h104v48h-104z" fill="#798b9b" transform="matrix(-1 0 0 -1 824 864)"/><path d="m360 336h128v80h-128z" fill="#354f5c" transform="matrix(-1 0 0 -1 848 752)"/><path d="m448 368h16v16h-16z" fill="#ffc119"/><path d="m416 368h16v16h-16z" fill="#ea732d"/><path d="m360 416h104v16h-104z" fill="#57646f" transform="matrix(-1 0 0 -1 824 848)"/><path d="m136 24h240v432h-240z" fill="#0093ba"/><path d="m176 64h160v96h-160z" fill="#ffc119"/><path d="m320 184h16v16h-16z" fill="#ffc119"/><path d="m288 184h16v16h-16z" fill="#ea732d"/><path d="m256 184h16v16h-16z" fill="#ffc119"/><g fill="#7ecce6"><path d="m176 216h160v16h-160z"/><path d="m256 391.978a47.978 47.978 0 1 1 33.941-14.037 47.85 47.85 0 0 1 -33.941 14.037zm0-79.963a31.985 31.985 0 1 0 22.627 9.358 31.9 31.9 0 0 0 -22.627-9.358z"/><path d="m160 336h192v16h-192z" transform="matrix(.707 -.707 .707 .707 -168.267 281.793)"/><path d="m248 248h16v192h-16z" transform="matrix(.707 -.707 .707 .707 -168.264 281.773)"/><path d="m256 423.962a79.984 79.984 0 1 1 56.569-136.53 79.962 79.962 0 0 1 -56.569 136.53zm0-143.932a63.97 63.97 0 1 0 45.255 18.715 63.8 63.8 0 0 0 -45.255-18.715z"/></g><path d="m264 64-24 96h96v-96z" fill="#faac2b"/></g></svg>