<?xml version="1.0" encoding="iso-8859-1"?>
<!-- Generator: Adobe Illustrator 19.0.0, SVG Export Plug-In . SVG Version: 6.00 Build 0)  -->
<svg version="1.1" id="Capa_1" xmlns="http://www.w3.org/2000/svg" xmlns:xlink="http://www.w3.org/1999/xlink" x="0px" y="0px"
	 viewBox="0 0 512.03 512.03" style="enable-background:new 0 0 512.03 512.03;" xml:space="preserve">
<rect x="41.95" y="386.642" transform="matrix(-0.7071 -0.7071 0.7071 -0.7071 -219.6403 815.072)" style="fill:#E7ECED;" width="34.074" height="132.766"/>
<g>
	<path style="fill:#AFB6BB;" d="M111.126,430.364l-29.44-29.44c-5.173-5.173-5.173-13.568,0-18.741l33.103-33.103l48.19,48.181
		l-33.103,33.103C124.694,435.537,116.308,435.537,111.126,430.364z"/>
	
		<rect x="249.577" y="414.029" transform="matrix(-0.7071 -0.7071 0.7071 -0.7071 136.7494 957.1833)" style="fill:#AFB6BB;" width="34.074" height="72.483"/>
	
		<rect x="46.374" y="205.289" transform="matrix(-0.7071 -0.7071 0.7071 -0.7071 -64.1483 461.0449)" style="fill:#AFB6BB;" width="34.074" height="77.038"/>
</g>
<polygon style="fill:#1F436D;" points="186.761,433.709 78.34,325.289 123.511,256.019 256.031,388.539 "/>
<rect x="253.619" y="90.739" transform="matrix(-0.7071 -0.7071 0.7071 -0.7071 558.6787 492.7785)" style="fill:#EBBA16;" width="255.556" height="79.889"/>
<path style="fill:#366DB6;" d="M300.751,451.329L60.721,211.298c-6.903-6.903-6.903-18.097,0-25L203.065,43.945l265.039,265.039
	L325.76,451.329C318.848,458.232,307.655,458.232,300.751,451.329z"/>
<path style="fill:#BC9013;" d="M439.751,189.556c-2.26,0-4.52-0.865-6.241-2.586L325.08,78.549c-3.452-3.452-3.452-9.031,0-12.482
	c3.443-3.452,9.031-3.452,12.482,0l108.42,108.42c3.452,3.452,3.452,9.031,0,12.482C444.27,188.691,442.01,189.556,439.751,189.556z
	"/>
<g>
	<path style="fill:#1F436D;" d="M313.251,412.426c-2.26,0-4.52-0.865-6.241-2.586l-204.8-204.8c-3.452-3.452-3.452-9.031,0-12.482
		c3.443-3.452,9.031-3.452,12.482,0l204.8,204.8c3.452,3.452,3.452,9.031,0,12.482C317.771,411.561,315.511,412.426,313.251,412.426
		z"/>
	<path style="fill:#1F436D;" d="M397.581,328.096c-2.26,0-4.52-0.865-6.241-2.586l-204.8-204.8c-3.452-3.452-3.452-9.031,0-12.482
		c3.443-3.452,9.031-3.452,12.482,0l204.8,204.8c3.452,3.452,3.452,9.031,0,12.482C402.101,327.231,399.841,328.096,397.581,328.096
		z"/>
	
		<rect x="140.637" y="155.165" transform="matrix(-0.7071 -0.7071 0.7071 -0.7071 170.4625 432.0496)" style="fill:#1F436D;" width="68.148" height="51.111"/>
	
		<rect x="297.211" y="311.797" transform="matrix(-0.7071 -0.7071 0.7071 -0.7071 326.9953 810.1511)" style="fill:#1F436D;" width="68.148" height="51.111"/>
	
		<rect x="218.936" y="233.472" transform="matrix(-0.7071 -0.7071 0.7071 -0.7071 248.7546 621.0923)" style="fill:#1F436D;" width="68.148" height="51.111"/>
	
		<rect x="130.408" y="143.121" transform="matrix(-0.7071 -0.7071 0.7071 -0.7071 466.8998 530.7503)" style="fill:#1F436D;" width="425.927" height="51.111"/>
</g>
<g>
</g>
<g>
</g>
<g>
</g>
<g>
</g>
<g>
</g>
<g>
</g>
<g>
</g>
<g>
</g>
<g>
</g>
<g>
</g>
<g>
</g>
<g>
</g>
<g>
</g>
<g>
</g>
<g>
</g>
</svg>
