<svg height="511pt" viewBox="1 -69 511.99987 511" width="511pt" xmlns="http://www.w3.org/2000/svg"><path d="m512 151.757812c-.011719-83.539062-93.78125-151.257812-209.453125-151.257812-39.039063 0-75.523437 7.75-106.769531 21.203125-34.902344 15.03125-71.636719 25.132813-107.695313 37.125-52.304687 17.390625-88.066406 52.441406-88.082031 92.921875v69.863281c.015625 40.480469 35.777344 75.53125 88.085938 92.925781 36.054687 11.988282 72.789062 22.089844 107.691406 37.121094 31.246094 13.453125 67.734375 21.203125 106.769531 21.203125 115.671875 0 209.441406-67.71875 209.453125-151.257812zm0 0" fill="#edb4a2"/><path d="m302.546875.5c-35.238281 0-68.394531 6.3125-97.496094 17.4375-34.8125 13.308594-69.296875 27.652344-105.273437 37.371094-58.609375 15.832031-99.777344 53.027344-99.777344 96.464844s41.167969 80.628906 99.777344 96.464843c35.976562 9.71875 70.460937 24.0625 105.273437 37.367188 29.101563 11.125 62.257813 17.441406 97.496094 17.441406 115.675781 0 209.453125-67.730469 209.453125-151.273437 0-83.546876-93.777344-151.273438-209.453125-151.273438zm0 0" fill="#f3cdc1"/><path d="m487.238281 167.96875c2.394531-12.753906-6-25.035156-18.753906-27.429688-1.402344-.261718-2.820313-.398437-4.246094-.402343h-68.601562c-46.546875 0-44.546875 17.589843-44.546875 23.273437-.015625 5.644532 2.226562 11.0625 6.226562 15.042969 15.367188 15.367187 21.882813 30.398437 24.648438 58.621094 1.503906 15.363281 18.203125 24.113281 31.929687 17.050781 39.421875-20.277344 66.835938-50.984375 73.34375-86.15625zm0 0" fill="#ae2b00"/><path d="m499.128906 148.625c-.375 0-.75.019531-1.128906.054688-6.398438.617187-11.085938 6.300781-10.46875 12.699218.042969.425782.070312.855469.089844 1.289063v.054687l.003906.03125v.0625l.003906.023438v.09375l.003906.019531v.101563l.003907.039062v.109375.097656.003907l.003906.046874v.054688.101562.050782c0 .207031 0 .410156-.007813.613281v.054687c0 .050782-.003906.101563-.003906.152344v.054688c-.003906.050781-.003906.101562-.007812.152344v.054687c-.003906.050781-.007813.101563-.007813.148437l-.003906.007813v.050781l-.003906.042969v.007813c0 .03125-.003907.0625-.003907.097656l-.003906.011718v.050782l-.003906.035156v.011719l-.007812.097656v.011719l-.003907.035156v.050781l-.003906.011719v.042969l-.003906.007812v.046875l-.003907.015625v.03125l-.003906.019531v.027344l-.003906.019532v.027343l-.003906.027344-.003906.039063v.042968l-.003907.027344-.003906.019531v.027344l-.003906.019531c0 .03125-.003907.066406-.007813.097656v.015626l-.003906.03125v.015624l-.003906.03125v.015626c-.003906.035156-.007813.070312-.011719.109374v.003907l-.003906.035156-.003907.011719-.003906.035156v.007812c-.003906.054688-.011718.105469-.015625.15625l-.003906.007813-.003906.039063v.003906l-.019531.160156v.007812l-.003907.035157v.007812c-.007812.054688-.015625.105469-.023437.160157v.007812l-.003906.035156-.003907.007813c-.007812.054687-.015625.105469-.019531.160156l-.003906.007813-.003906.035156v.007812c-.007813.054688-.015626.109375-.023438.160156l-.003906.003907-.003906.035156v.015625l-.007813.03125v.007812c-.003906.039063-.011719.074219-.019531.113282v.011718l-.003906.03125-.003907.015626-.003906.03125-.003906.011718c-.003907.035156-.011719.074219-.015625.109375l-.003906.011719-.003907.027344-.003906.019531-.003906.027344-.003907.019531-.003906.027344-.003906.023437-.007812.042969-.007813.046875-.007813.027344-.003906.019531-.003906.03125-.003906.015625c-.003906.015625-.003906.03125-.007813.046875-.007812.039062-.015625.078125-.019531.113281l-.007812.03125-.023438.117188c-.003906.023437-.007812.050781-.011719.074219l-.007812.039062-.015625.074219-.003906.039062c-.007813.027344-.011719.050781-.019532.082031l-.003906.027344-.019531.09375v.019532c-.015625.074218-.03125.152343-.046875.226562v.011719l-.023438.101562-.003906.019531-.015625.09375-.007813.023438-.015624.089844-.003907.023437-.019531.09375-.003906.019531c-.007813.035157-.015625.074219-.023438.105469v.007813c-.023437.113281-.046875.230468-.070312.347656v.007812l-.023438.105469-.003906.011719-.019531.101562-.003907.015626c-.007812.035156-.015624.070312-.023437.105468v.007813c-.042969.191406-.082031.386719-.125.578125v.003906c-3.644531 16.710938-12.027344 32.367188-24.160156 46.308594l-.082031.09375-.003907.003906c-.027343.03125-.050781.0625-.078125.09375l-.007812.003906c-.140625.164063-.277344.320313-.421875.480469l-.007813.007813c-.023437.03125-.046875.054687-.074218.085937l-.011719.015625-.070313.078125-.011718.015625-.070313.078125-.019531.019531c-.023438.027344-.050782.058594-.078125.085938v.003906l-.171875.191406-.007813.011719c-.023437.023437-.046875.050781-.070312.078125l-.027344.027344c-.019531.023437-.039063.042968-.054687.0625l-.082032.09375-.03125.03125-.058594.0625-.023437.027344-.054687.0625-.03125.03125-.0625.074218-.027344.03125c-.023438.023438-.046875.050782-.070313.074219l-.035156.039063-.046875.050781-.039062.046875-.039063.042968-.046875.046876-.039062.046874-.039063.042969-.042969.042969-.042968.050781-.035157.039063-.046875.050781-.023437.023437c-.066407.074219-.132813.148438-.203125.222657l-.007813.011719c-.023437.019531-.042969.042968-.0625.066406l-.019531.019531-.0625.066406-.019531.019531-.058594.066407-.023437.023437c-.019532.023438-.039063.042969-.058594.066406l-.015625.015626c-.125.136718-.25.269531-.378907.40625-.023437.027343-.050781.054687-.074218.082031l-.007813.003906-.070312.078125-.007813.007812c-.609375.652344-1.226562 1.296876-1.855468 1.941407-.148438.152343-.292969.308593-.433594.46875-.15625.144531-.3125.289062-.460938.441406-10.160156 10.085937-21.601562 18.792969-34.03125 25.890625l-.007812.003906c-.179688.105469-.363282.210938-.546875.316406l-.109375.0625-.003906.003907c-.148438.082031-.292969.167969-.4375.25l-.007813.003906-.101563.058594-.011718.007812c-.03125.015625-.066406.035157-.097656.054688l-.011719.007812c-.144531.082031-.289063.164063-.4375.246094l-.003907.003906c-.148437.085938-.296874.167969-.445312.25-.222656.125-.445312.25-.667969.375h-.003906l-.105469.058594-.007812.007813-.101563.054687-.011719.003906c-.109374.0625-.21875.121094-.328124.183594l-.011719.007813c-.03125.015624-.066407.035156-.097657.050781l-.015624.007812c-.03125.019531-.066407.039063-.097657.058594l-.007812.003906c-.113281.0625-.222657.121094-.332031.179688l-.011719.007812c-.03125.019531-.066407.035157-.097657.050781l-.015624.011719-.09375.050781-.019532.011719c-.105468.058594-.21875.117188-.324218.175781l-.019532.011719-.089844.046875-.023437.011719-.085937.046875-.023438.015625-.09375.050781-.011719.003906c-.074219.042969-.148437.082032-.222656.121094l-.007813.003906-.097656.054688-.023437.011719-.085938.046875-.023437.011718-.09375.050782-.015625.007812-.21875.117188-.023438.011718-.082031.042969-.03125.019531-.078125.039063-.03125.019531-.082031.042969-.023438.011719c-.074218.039062-.148437.078125-.21875.117187l-.015625.007813-.09375.050781-.109375.054687-.027344.015626-.082031.042968-.027343.015625-.097657.050781-.007812.003907-.109375.058593-.019532.011719-.089843.046875-.109375.054688-.03125.019531-.109375.054687-.09375.050782-.011719.003906-.113281.058594v.003906l-.105469.050781-.03125.019531-.109375.054688-.078125.042969-.140625.070312c-.035156.019531-.070313.039063-.109375.058594l-.011719.003906-.09375.050781-.035156.015626-.074219.039062-.039062.019531-.070313.039063-.117187.058594-.027344.015624-.109375.054688c-3.136719 1.625-6.617187 2.476562-10.148437 2.480469-11.210938.082031-20.644532-8.378907-21.78125-19.53125-.003907-.03125-.007813-.066407-.011719-.101563l-.003907-.023437c0-.027344-.003906-.054688-.003906-.078125l-.003906-.023438-.007812-.085937-.003907-.015625c-.003906-.035156-.007812-.070313-.007812-.105469h-.003907l-.007812-.097656v-.019531l-.011719-.082032v-.023437c-.003906-.03125-.007812-.066407-.011719-.097657v-.019531c-.003906-.027343-.007812-.054687-.007812-.078125l-.003906-.023437-.007813-.082031-.003906-.023438c-.003906-.03125-.007813-.066406-.007813-.097656l-.003906-.011719-.007812-.082031v-.027344l-.011719-.082031v-.019531c-.003906-.03125-.007813-.066407-.011719-.097657v-.019531l-.007812-.078125-.003906-.027344-.007813-.078125-.003906-.019531-.019531-.203125v-.015625l-.011719-.082031v-.023438c-.003907-.03125-.007813-.0625-.011719-.09375v-.003906l-.011719-.097656v-.019532l-.007812-.074218-.003907-.035156-.011718-.082032v-.007812l-.011719-.101563v-.015625c-.003906-.027344-.007813-.054687-.007813-.082031l-.003906-.023437-.007812-.089844-.003906-.007813c-.003907-.03125-.007813-.066406-.007813-.097656l-.003906-.015625c-.003907-.027344-.003907-.054688-.007813-.082031l-.003906-.023438c-.003906-.03125-.003906-.0625-.007812-.09375-.003907-.035156-.007813-.070312-.015626-.105469l-.007812-.097656-.003906-.015625c-.003906-.03125-.007813-.0625-.007813-.089843l-.003906-.007813-.023437-.203125v-.011719c-.003907-.027343-.007813-.058593-.007813-.085937l-.003906-.015625c-.007813-.066407-.015625-.132813-.023438-.199219v-.015625c-.003906-.027344-.007812-.050781-.011719-.078125v-.023438c-.011718-.097656-.023437-.199218-.035156-.296874v-.007813c-.011718-.097656-.023437-.199219-.035156-.296875l-.003906-.023438c-.003906-.023437-.007813-.054687-.011719-.082031v-.011719c-.003906-.03125-.007813-.0625-.011719-.09375l-.003906-.023437c0-.023437-.003906-.046875-.003906-.070313l-.007813-.03125c0-.023437-.003906-.046874-.003906-.066406l-.003906-.027344-.011719-.09375-.003906-.007812c0-.027344-.003906-.054688-.007813-.082031l-.003906-.03125c-.003906-.023438-.003906-.042969-.007813-.066407l-.003906-.027343-.023437-.1875-.003907-.019531-.007812-.074219-.003906-.027344-.011719-.085937v-.003907c-.003906-.03125-.007813-.0625-.011719-.09375l-.003906-.027343c0-.023438-.003906-.050782-.007812-.074219l-.003907-.015625-.011719-.09375c-.003906-.035156-.007812-.066406-.011718-.097656v-.019532l-.011719-.074218-.003906-.023438-.007813-.074219-.003906-.019531-.011719-.089844-.003906-.027344c0-.023437-.003906-.046874-.007813-.070312l-.003906-.023438c-.003906-.027343-.007812-.050781-.007812-.078124l-.003906-.015626c-.007813-.0625-.015626-.125-.023438-.1875l-.003906-.023437c-.003906-.023437-.003906-.046875-.007813-.066406l-.003906-.027344c-.003906-.023437-.007813-.046875-.007813-.070313l-.007812-.046874-.007812-.066407-.003907-.027343c-.003906-.019532-.007812-.039063-.007812-.0625l-.003907-.03125c-.003906-.023438-.007812-.050782-.011718-.074219v-.015625l-.015625-.085938-.003907-.035156-.007812-.058594-.003906-.027344-.007813-.0625-.003906-.050781c-.003906-.019531-.007813-.042969-.011719-.066406l-.003906-.03125c0-.019531-.003906-.039063-.007812-.058594l-.003907-.035156-.007812-.0625-.003907-.027344-.011718-.085937-.003906-.03125c-.003907-.019532-.007813-.039063-.007813-.058594l-.007813-.03125-.007812-.058594-.003906-.035156c-.003906-.027344-.007813-.058594-.011719-.085938l-.003906-.011718c0-.027344-.003907-.050782-.007813-.074219l-.003906-.03125-.007812-.058594-.007813-.035156c0-.023437-.003906-.042969-.007813-.066406l-.015624-.101563-.003907-.039062-.015625-.09375-.007812-.058594-.003906-.03125-.011719-.074219-.003907-.035156-.007812-.058594-.003906-.03125c-.003906-.023437-.007813-.046875-.011719-.066406v-.023437l-.015625-.082032-.003906-.035156-.007813-.050781-.003906-.042969-.007813-.050781-.003906-.03125-.015625-.082031-.003906-.035157c-.003906-.019531-.003906-.035156-.007813-.054687l-.003906-.039063-.007812-.046875-.007813-.039062c-.003906-.027344-.007812-.054688-.011719-.082032l-.003906-.027343c-.003906-.019531-.003906-.039063-.007812-.054688s-.003906-.03125-.007813-.046875l-.003906-.035156c-.003906-.015625-.003906-.03125-.007813-.046875l-.007812-.050781c-.003906-.023438-.007812-.042969-.011719-.066406l-.007812-.050782-.003907-.035156-.007812-.046875-.007812-.042969-.003907-.046875-.011719-.070312-.007812-.042969-.007812-.050781-.003907-.035157-.007812-.042968-.007813-.046875-.011718-.066407-.003907-.050781-.007812-.042969-.007813-.035156-.007812-.050781-.003906-.042969-.007813-.046875c-.003906-.023437-.007813-.046875-.011719-.070312l-.007812-.046875-.007813-.035156-.003906-.042969-.007813-.046875-.007812-.039063c-.003906-.027343-.007812-.054687-.011719-.082031v-.023438l-.007812-.054687-.007813-.042969-.007812-.046875-.003906-.039062-.011719-.054688-.011719-.066406-.003906-.035156-.015625-.085938-.011719-.070312c-.003906-.035157-.007812-.066407-.015625-.101563l-.003906-.023437-.007813-.050781-.003906-.035157-.007812-.050781-.007813-.019531-.015625-.121094-.003906-.007813-.019532-.136718-.003906-.019532-.019531-.113281-.003906-.015625-.007813-.046875-.003906-.039062-.007812-.042969-.007813-.039062-.007813-.042969-.011718-.074219-.007813-.039062-.007812-.042969-.007813-.046875-.003906-.03125-.007812-.046875-.007813-.03125c-.003906-.027344-.007813-.058594-.015625-.089844l-.003906-.035156-.007813-.046875-.007812-.027344-.007813-.054688v-.003906c-.007812-.042968-.015625-.085937-.023437-.128906l-.003907-.011719-.007812-.054687-.003906-.03125-.007813-.046875-.007812-.027344c-.003907-.035156-.011719-.070313-.015625-.105469l-.003906-.015625-.011719-.054687-.003907-.023438-.007812-.054687-.003906-.023438c-.007813-.035156-.011719-.070312-.019532-.109375l-.003906-.015625-.007812-.054687-.003906-.023438-.011719-.054687-.003907-.019531c-.007812-.039063-.011718-.078126-.019531-.113282l-.003906-.011718-.007813-.054688-.003906-.023438-.011718-.054687-.003907-.019531-.03125-.1875-.003906-.011719c-.003906-.019531-.007813-.042969-.011719-.0625v-.007813c-.011718-.066406-.023437-.128906-.039062-.195312v-.011719l-.011719-.054687-.003906-.023438c-.015625-.085937-.03125-.167968-.046875-.253906l-.003906-.019531c-.015626-.085938-.03125-.167969-.046876-.253907l-.003906-.019531c-.003906-.019531-.007812-.039062-.011718-.058593l-.003907-.007813-.035156-.183594-.003906-.023437c-.003907-.019532-.007813-.039063-.011719-.058594v-.007812c-.015625-.066407-.027344-.132813-.039062-.199219-.019532-.089844-.035157-.179688-.054688-.269531v-.003907l-.011719-.0625-.003906-.011719c-.011719-.066406-.027344-.132812-.039063-.195312v-.003906c-.003906-.019532-.007812-.042969-.011718-.066406-.019532-.089844-.039063-.175782-.054688-.261719l-.003906-.011719c-.003906-.019531-.007812-.039062-.011719-.0625v-.007812l-.027343-.125v-.003907l-.011719-.058593-.003907-.011719c-.003906-.019531-.007812-.039063-.011718-.058594l-.003906-.015625c-.011719-.058594-.023438-.121094-.035157-.179688l-.003906-.015624-.011719-.054688-.003906-.015625c-.015625-.085937-.035156-.167969-.054688-.253906v-.011719c-.019531-.082031-.035156-.167969-.054687-.25l-.003906-.015625c-.015625-.085937-.035157-.171875-.054688-.253906v-.007813c-.019531-.085937-.039062-.171875-.054687-.257812l-.003906-.003906c-.039063-.175782-.078126-.351563-.113282-.523438l-.003906-.003906-.011719-.0625-.003906-.007813c-.019531-.085937-.039063-.167969-.054687-.253906l-.003907-.003906c-.019531-.085938-.039062-.167969-.058593-.253907v-.003906l-.054688-.25-.007812-.015625-.011719-.054687-.003907-.015625c-.011718-.058594-.027343-.117188-.039062-.171875l-.003906-.015625-.011719-.054688-.003906-.011719c-.011719-.058593-.027344-.121093-.042969-.183593v-.003907l-.015625-.058593-.003906-.011719c-.011719-.0625-.027344-.121094-.042969-.183594l-.015625-.0625v-.007812l-.0625-.246094v-.011719c-.019531-.082031-.039063-.160156-.058594-.242187l-.003906-.011719c-.019531-.078125-.039063-.15625-.058594-.238281l-.003906-.019532-.015625-.050781v-.011719c-.015625-.058593-.03125-.121093-.046875-.179687v-.003906c-.019531-.082031-.042969-.164063-.0625-.25l-.003906-.003907-.011719-.058593-.003906-.007813c-.015625-.0625-.03125-.121094-.046875-.183594l-.03125-.125-.03125-.117187-.003907-.011719-.011718-.050781-.003906-.015625-.015626-.054688-.003906-.011718c-.035156-.140625-.074218-.28125-.109375-.421875l-.003906-.007813-.011719-.054687-.003906-.011719c-.015625-.058594-.03125-.117188-.046875-.175781l-.003906-.003907c-.003907-.019531-.007813-.035156-.011719-.054687l-.003906-.015625c-.015625-.054688-.03125-.113281-.046875-.171875l-.003907-.003906-.011718-.054688-.007813-.019531-.015625-.0625-.027344-.097656-.003906-.015625-.011718-.042969-.007813-.027344-.011719-.046875-.007812-.019531c-.011719-.050781-.027344-.101562-.042969-.152344l-.007813-.027344-.011718-.042968-.003906-.023438-.042969-.15625-.007813-.019531-.011718-.046875-.007813-.019531c-.011719-.050781-.027344-.101563-.042969-.152344l-.007812-.023437-.011719-.046876-.003906-.019531-.046875-.15625-.003906-.019531-.015626-.046875-.003906-.023437-.015625-.042969-.007812-.027344c-.003907-.023437-.011719-.046875-.019531-.070313l-.011719-.035156-.007813-.035156-.011718-.035156-.007813-.035156-.011719-.035157c-.007812-.019531-.011718-.042969-.019531-.0625l-.007813-.035156-.011718-.039063-.007813-.03125-.011719-.039062-.011718-.027344c-.007813-.027344-.015625-.054687-.023438-.082031l-.003906-.019531c-.003906-.011719-.007812-.027344-.011719-.039063l-.011719-.03125-.007812-.039062-.011719-.03125-.019531-.0625-.011719-.039063-.007812-.035156-.011719-.03125-.011719-.035156-.011719-.039063-.007812-.035156-.019531-.0625-.007813-.023437-.011718-.042969-.011719-.03125-.011719-.039063-.011719-.035156-.015625-.050781-.007812-.035157-.015625-.050781-.007813-.023437-.015625-.042969-.007812-.03125-.023438-.082031-.019531-.050782-.007812-.03125-.011719-.042968-.011719-.03125-.007812-.035156-.015626-.046876-.015624-.050781-.011719-.027343-.011719-.042969-.007812-.027344-.015626-.050781-.007812-.015625-.019531-.070313-.007813-.019531-.015625-.050781-.007812-.027344-.023438-.070312-.023437-.066407-.003906-.015625c-.003907-.019531-.011719-.039062-.015626-.054687l-.007812-.023438-.015625-.050781-.007813-.019531c-.007812-.023438-.015624-.046875-.023437-.070313l-.023437-.070312-.003907-.019532-.019531-.050781-.003906-.023437c-.007813-.019532-.015625-.046875-.023438-.066406v-.003907l-.023437-.066406-.007813-.019531-.015625-.054688-.003906-.015625c-.007813-.023437-.015625-.046875-.023437-.066406v-.003906l-.023438-.070313-.007812-.019531-.019532-.054687-.003906-.015626-.046875-.144531-.003906-.007812-.019531-.066407-.003907-.007812-.023437-.070312v-.003907l-.050782-.144531-.003906-.011719c-.050781-.148437-.101562-.300781-.152344-.445312v-.003907c-1.554687-4.566406-3.570312-8.964843-6.015624-13.121093-3.265626-5.535157-10.398438-7.378907-15.9375-4.113281-5.535157 3.261718-7.375 10.398437-4.113282 15.933593.007813.007813.011719.015625.015625.027344 4.542969 7.679687 7.121094 17.488281 8.621094 32.796875 2.25 23.097656 21.738281 40.671875 44.945313 40.535156 7.230468-.015625 14.359374-1.75 20.792968-5.058594 17.886719-9.011718 34.242188-20.78125 48.476563-34.871093.175781-.179688.347656-.359375.507812-.546875.183594-.167969.363281-.339844.539063-.519532 19.152344-19.644531 31.621094-42.703124 36.058594-66.675781.800781-4.304687.992187-8.699219.574218-13.058593-.574218-5.960938-5.578125-10.515626-11.566406-10.523438zm0 0" fill="#e48d72"/><path d="m302.539062 68.371094c15.429688 12.953125 32.359376 24.003906 50.421876 32.917968 38.140624 18.707032 92.429687 15.574219 92.429687 15.574219 17.566406 0 26.023437-20.824219 14.085937-33.707031-29.09375-31.402344-77.492187-53.542969-133.65625-58.386719-46.546874-.996093-46.546874 22.277344-23.28125 43.601563zm0 0" fill="#ae2b00"/><path d="m330.417969 90.679688c-6.429688-.003907-11.644531 5.203124-11.648438 11.628906-.003906 4.117187 2.167969 7.929687 5.710938 10.023437 5.945312 3.519531 12.078125 6.835938 18.234375 9.855469 32.191406 15.789062 72.417968 18.148438 93.53125 18.148438 5.019531 0 8.496094-.140626 9.851562-.203126 1.765625-.027343 3.53125-.160156 5.28125-.398437.898438-.199219 1.804688-.351563 2.71875-.457031 17.203125-3.464844 30.515625-17.136719 33.515625-34.429688 1.148438-6.324218-3.050781-12.378906-9.371093-13.527344-6.324219-1.144531-12.378907 3.050782-13.527344 9.375-.007813.054688-.019532.109376-.03125.164063v.003906l-.007813.035157v.007812l-.007812.035156v.007813l-.007813.035156-.003906.007813-.003906.03125-.003906.011718-.003907.03125-.003906.011719-.007813.03125v.011719l-.011718.046875-.003906.023437-.003907.019532-.003906.027343-.003906.015625-.007813.023438-.003906.019531-.003906.027344-.003906.015625-.003907.023437-.003906.019531-.007813.027344-.003906.015625-.007812.046875-.007813.019532-.003906.027343-.003906.015625-.007813.027344v.015625l-.007812.03125-.003906.011719-.007813.03125v.011718l-.011719.035157v.007812l-.007812.035157-.003906.007812c-.054688.230469-.113282.460938-.175782.691406-.851562 3.144532-2.460937 6.027344-4.683594 8.40625v.003906l-.03125.03125-.027343.03125h-.003907l-.027343.03125-.0625.0625-.003907.007813-.0625.0625-.023437.027344-.007813.003906-.03125.03125-.023437.027344-.1875.1875-.011719.007812-.019531.023438-.03125.03125-.011719.007812-.0625.0625-.03125.027344-.027344.027344-.003906.007812c-.042968.039063-.085937.082031-.128906.121094l-.007812.007813-.027344.023437-.042969.042969-.019531.015625-.03125.03125-.019532.015625-.03125.03125-.015624.011718-.03125.03125-.019532.015626-.03125.03125-.015625.011718-.019531.015625-.03125.03125-.015625.011719-.019531.019531-.011719.007813-.03125.03125-.023437.019531-.011719.011719-.019531.015625-.03125.03125-.015626.007812-.03125.03125-.023437.019531-.007813.007813-.023437.019531-.011719.007813-.027344.027343-.03125.023438-.03125.03125-.007812.003906-.027344.023438-.007812.007812-.023438.019532-.003906.003906-.03125.023437-.003906.003907c-.199219.167968-.402344.332031-.609375.492187l-.070313.054687-.066406.050782h-.003906l-.035156.027344c-2.273438 1.710937-4.90625 2.886718-7.699219 3.441406-.210938.039062-.417969.089844-.625.140625-.210938.019531-.425781.039062-.636719.070312-.425781.058594-.855469.101563-1.289062.132813h-.003907l-.046875.003906h-.003906l-.042969.003906h-.003906l-.046875.003906h-.003906c-.066406.003907-.132813.007813-.199219.011719h-.007813l-.039062.003907h-.046875l-.011719.003906h-.050781l-.035156.003906h-.050781l-.011719.003906h-.050781c-.03125 0-.0625.003906-.097657.003906h-.011719l-.035156.003907h-.097656l-.019531.003906h-.09375l-.035157.003906h-.125l-.035156.003907h-.199218l-.019532.003906h-.144531s-3.417969.195312-9.148437.195312c-17.089844 0-54.714844-1.757812-83.28125-15.769531l-.148438-.074219c-.03125-.015625-.058594-.027344-.089844-.042968l-.035156-.015626c-.078125-.039062-.15625-.078124-.234375-.117187l-.027344-.015625-.097656-.046875-.023437-.011719-.246094-.121094-.148438-.074218c-.082031-.039063-.160156-.078125-.242187-.121094l-.125-.0625-.011719-.003906c-.125-.0625-.25-.125-.375-.1875l-.019531-.007813c-.082031-.042969-.164063-.082031-.242188-.125l-.023437-.007812c-.03125-.019531-.066406-.035157-.101563-.054688l-.023437-.011719c-.082032-.039062-.164063-.082031-.246094-.121093l-.007812-.003907c-.035157-.019531-.070313-.039062-.109376-.058593l-.027343-.011719-.105469-.054688-.015625-.007812c-.039063-.019531-.082031-.039062-.121094-.0625l-.011719-.003906-.113281-.054688-.019531-.011718c-.035156-.019532-.070312-.035157-.101562-.054688l-.023438-.007812c-.039062-.023438-.078125-.042969-.121094-.0625l-.117187-.058594-.035157-.019532-.085937-.046874-.035156-.015626c-.03125-.015624-.070313-.035156-.101563-.054687l-.046875-.019531c-.027343-.015625-.054687-.027344-.082031-.042969l-.042969-.023437-.070312-.035157-.050781-.027343-.074219-.039063c-.03125-.015625-.0625-.03125-.09375-.046875l-.164063-.082031-.0625-.035157-.050781-.027343c-.039063-.019531-.078125-.039063-.117187-.058594l-.046876-.023437-.066406-.035157-.039062-.019531-.074219-.039062-.035156-.019532c-.054688-.027344-.109375-.054687-.164063-.082031l-.003906-.003906-.085938-.042969-.019531-.011719-.085937-.046875-.011719-.003906-.277344-.144531-.015625-.007813-.089844-.046875-.007812-.003906c-2.351562-1.230469-4.707031-2.511719-7.0625-3.84375l-.003906-.003906-.089844-.046875-.015625-.011719-.089844-.050781-.011719-.007813c-.050781-.027343-.105468-.058593-.15625-.085937l-.035156-.023438-.066406-.035156-.109375-.0625c-.027344-.015625-.058594-.035156-.085937-.050781l-.039063-.023438c-.035156-.019531-.070313-.039062-.105469-.058593l-.027344-.015626-.09375-.054687-.03125-.015625c-1.046874-.597656-2.09375-1.210938-3.144531-1.832031-1.78125-1.058594-3.8125-1.613281-5.882812-1.613281zm0 0" fill="#e48d72"/><path d="m69.820312 93.589844h-6.652343c-34.523438 0-65.144531 27.832031-63.042969 62.296875.042969.691406.097656 1.386719.160156 2.085937l-.109375 58.667969c-3.046875 42.566406 33.46875 79.792969 87.90625 97.894531 4.203125 1.398438 8.414063 2.777344 12.628907 4.136719 42.207031 13.636719 85.46875-17.816406 85.46875-62.171875.003906-46.546875.003906-162.910156-116.359376-162.910156zm0 0" fill="#ae2b00"/><path d="m327.816406 163.410156c.078125-7.054687 1.859375-13.984375 5.191406-20.195312 5.945313-11.109375 2.019532-24.929688-8.875-31.253906-15.972656-9.527344-30.996093-20.5625-44.859374-32.960938-1.003907-.882812-3.179688-2.957031-6.070313-5.753906-25.199219-24.367188-62.140625-32.132813-95.019531-19.976563-29.894532 8.425781-28.863282 36.890625-15.269532 50.160157 37.347657 35.636718 44.726563 92.375 46.183594 129.796874 0 23.273438 17.007813 35.175782 23.625 37.042969 22.730469 6.34375 46.226563 9.539063 69.824219 9.503907 3.289063 0 6.554687-.0625 9.800781-.179688 28.980469-1.070312 50.382813-28.402344 43.90625-56.671875-2.878906-12.558594-7.609375-20.230469-15.390625-28.011719-8.378906-8.339844-13.078125-19.679687-13.046875-31.5zm0 0" fill="#ae2b00"/><path d="m358.75 186.828125c-6.429688.007813-11.632812 5.226563-11.625 11.652344 0 2.226562.640625 4.40625 1.847656 6.28125l.003906.007812.015626.019531c.023437.042969.050781.085938.078124.125l.03125.046876.011719.019531.023438.035156.011719.019531.023437.035156.007813.015626.023437.039062h.003906c.027344.050781.058594.097656.089844.148438l.003906.003906c.007813.015625.015625.027344.027344.042968l.003906.011719.027344.042969.007813.007812.027343.042969v.003907c.042969.066406.082031.132812.121094.199218l.003906.003906.027344.046876.003906.003906c1.667969 2.746094 3.066407 5.644531 4.179688 8.65625v.003906c.050781.140625.105469.28125.15625.425781v.003907l.023437.058593v.003907c.035156.097656.074219.199218.109375.300781l.003907.011719.019531.054687v.007813l.019531.054687.003906.003906.082032.242188.003906.007812.019531.054688.003906.011719.019531.054687.003907.011719.082031.238281v.007813l.019531.050781.003907.015625.015624.050781.007813.015625.015625.050781.007812.015625.074219.230469.007813.019531.015625.042969.03125.09375.011719.042969.007812.023437c.019531.050781.035156.101563.050781.152344l.007813.027344.015625.042969.007812.027343.011719.039063.046875.140625.007813.027343c.011718.03125.019531.066407.03125.097657l.003906.011719.015625.042968.007812.027344.011719.039062.007812.03125.015626.039063.007812.03125.023438.078125.011718.03125.011719.039062.023437.074219.007813.023438.011719.042969.007812.03125.015625.039062.007813.03125.011718.042969.011719.03125.011719.039062.011719.035157.015625.058593.015625.042969.007812.035156.011719.042969.011719.03125.011719.039063.007812.035156.015625.042968.007813.027344.015624.050782.007813.023437.019531.074219.003906.007812c.007813.023438.011719.042969.019532.066406l.003906.019532.015625.054687.007813.023438.015624.050781.007813.027344.015625.046875.003906.027343.019532.0625.003906.011719.019531.074219.007813.019531.023437.082031.011719.046876.007812.027343c.007813.015625.011719.035157.015625.050781l.007813.023438.015625.058594.003906.019531c.007813.023437.015625.050781.023437.074219v.003906l.019532.070312.007812.023438.015625.054688.007813.023437.011718.054687.007813.023438.015625.054688.007812.019531c.011719.050781.027344.101562.039063.152343l.003906.019532.019531.0625.003907.019531c.003906.019531.007812.035156.015625.054687l.007812.027344c.003906.015625.007813.035156.011719.050782l.007813.023437.015624.058594.003907.019531c.015625.050781.027343.101562.042969.152344l.003906.023437.015625.054688.007812.023437.015625.058594.003906.023438c.003907.019531.011719.039062.015626.058593l.003906.015625c.007812.027344.015625.050782.019531.078125l.023437.082031v.003907l.019532.074219.003906.019531.015625.058593.007813.023438.015624.058594.003907.019531c.003906.023437.011719.042969.015625.066406l.003906.011719c.015625.054688.027344.109375.042969.164062v.007813c.007812.023437.011719.046875.019531.070313l.003906.019531.015625.058593.003907.019532.015624.0625.003907.019531c.015625.054687.027343.109375.042969.160156l.003906.015625.015625.066406.003906.015626.015625.066406.003906.019531.015625.0625.003907.019531.015624.0625.003907.019532c.011719.054687.027343.105468.039062.160156l.003907.019531.015624.0625.003907.023437.023437.082032c.003906.019531.007813.042968.011719.0625l.003906.019531c.007813.023437.011719.046875.019531.070313v.011718l.019532.082032.007812.019531.011719.058593.007813.027344.011718.054688.007813.03125.011719.050781.007812.03125.011719.050781.007812.03125.015625.078125c.015625.054688.027344.109375.039063.164063l.007812.035156.011719.050781.003906.019531c.003906.019532.007813.039063.011719.0625l.007813.019532c.003906.019531.007812.042968.011718.0625l.003906.015625.015626.066406v.011719c.007812.023437.011718.046875.015624.070312v.003906l.019532.078126v.015624l.015625.066407.003906.015625.015625.070312v.011719c.003906.023437.011719.046875.015625.070313l.003906.015624c.003907.019532.007813.042969.011719.066407l.003906.015625c.003906.023437.007813.042968.015625.066406l.003907.019531c.003906.019531.007812.042969.011718.0625l.003906.015625.011719.070313.003907.007812c.003906.027344.007812.050781.015624.074219v.015625l.015626.066406v.015625c.007812.019532.011718.042969.015624.066406l.003907.011719c.003906.023438.007812.046875.011719.070313l.003906.015625.011718.066406.003907.011719.011719.070312.003906.011719.011718.070313v.015624c.007813.023438.011719.046876.015626.070313v.011719c.007812.023437.011718.046875.015624.070312v.011719l.015626.070313v.011718l.015624.070313v.011719c.003907.023437.007813.046874.011719.070312l.003907.011719.011718.070312.003906.011719c.003907.023438.007813.050781.011719.074219v.007812l.015625.074219v.011719l.011719.070312.003906.011719c.003907.023438.007813.046875.011719.070312v.011719l.011719.070313.003906.011718.011719.070313.003906.011719.007812.070312.003907.011719.011719.074219v.007812c.003906.023438.007812.050782.011718.074219l.003906.007813c.003907.023437.007813.050781.011719.074218v.007813c.003907.023437.007813.050781.011719.074219v.007812l.011719.074219.003906.007812.011719.078125v.003906l.011718.078126v.003906l.011719.078125v.003906l.011719.078125v.003906c.007812.027344.007812.054688.011719.078125l.003906.003907.011719.082031c.003906.027343.003906.054687.007812.082031h.003906l.007813.078125.003906.003906.007813.082031.011718.082032v.003906l.011719.078125.011719.082031v.003906c.003906.027344.007812.050782.007812.078126l.003907.003906c.003906.023437.007812.050781.007812.078125v.003906l.011719.078125.011719.082031v.003907l.007812.082031c1.433594 11.980469-1.902343 24.042969-9.292969 33.578125-.726562.949218-1.488281 1.871094-2.285156 2.761718-.019531.019532-.035156.039063-.050781.058594h-.003906l-.046875.054688-.003906.003906-.050782.054688-.003906.003906c-.015625.015625-.027344.03125-.046875.050781l-.007813.007813-.042968.050781-.007813.007812-.042969.046875-.011718.011719-.042969.046875-.007813.007812-.042968.050782-.011719.007812-.042969.046875-.007812.011719-.042969.046875-.011719.011719-.042968.046875-.011719.011719c-.011719.011718-.027344.027343-.039063.042968l-.054687.054688-.011719.015625-.039062.042969-.015626.015624-.039062.042969-.054688.054688-.011718.015625-.039063.042968-.015625.015626c-.011718.011718-.023437.027343-.039062.039062l-.015625.015625c-.011719.015625-.023438.027344-.039063.042969l-.015625.015625-.035156.039062-.054687.054688-.019532.023437-.058594.058594-.027343.03125-.136719.136719-.027344.03125-.054687.054687-.023438.027344-.03125.027344-.027343.027344-.027344.03125-.25.25-.023438.027343-.03125.027344-.082031.082031-.03125.027344-.023437.027344-.054688.054687-.035156.03125-.113282.113281-.023437.019532-.144531.144531-.023438.019531-.054687.054688-.039063.035156-.015625.019531-.039062.035157-.019531.019531-.039063.035156-.015625.019531-.039062.035156-.019532.015626-.042968.039062-.011719.015625c-.015625.011719-.027344.023437-.039063.035156l-.074218.074219-.042969.039062-.015625.015626-.050782.042968-.003906.007813-.050781.042969-.007813.011718-.050781.042969-.007812.011719-.046875.042968-.011719.007813-.050781.046875-.003906.007812-.050782.046876-.007812.007812-.054688.046875-.003906.003906-.054688.050781-.003906.003907c-.035156.035156-.074218.066406-.113281.101562l-.003906.003907c-.039063.035156-.074219.070312-.113281.105468h-.003907c-.035156.035156-.070312.066406-.109375.101563l-.007812.003906c-.78125.703125-1.585938 1.378906-2.414063 2.027344h-.003906c-.039063.03125-.082031.066406-.121094.097656h-.003906c-.039063.03125-.082031.0625-.121094.09375l-.003906.003906-.058594.046875h-.003906l-.058594.046875-.003906.003907-.058594.042968-.007812.003906-.054688.042969-.011719.007813-.050781.042968-.007812.003907-.054688.042969-.007812.003906-.054688.042968-.007812.003907-.054688.042969-.011719.007812-.050781.039062-.011719.007813-.054687.039063-.007813.007812-.054687.039062-.007813.007813-.054687.039063-.011719.007812-.050781.039062-.011719.007813-.050781.039063-.011719.007812-.054687.039062-.007813.007813-.054687.039063-.011719.011718-.050781.035156-.011719.007813-.050781.039063-.015625.007812-.050782.039062-.011718.007813-.050782.035156-.015624.011719-.050782.035156-.011718.011719c-.015626.011719-.03125.023437-.050782.035156l-.011718.007813-.054688.039062-.007812.007813-.050782.035156-.019531.011719-.0625.046875-.050781.035156-.011719.007813-.050781.035156-.0625.046875-.019532.011719-.046874.035156-.015626.007812-.050781.035156-.015625.011719-.050781.035157-.011719.007812-.050781.035156-.015625.011719-.050781.03125-.015625.015625-.046875.03125-.019531.011719-.046876.03125-.019531.015625-.042969.027344-.023437.015624-.042969.03125-.019531.011719-.046875.035157-.019531.007812-.046875.035156-.019532.011719-.042968.03125-.023438.011719-.046875.03125-.015625.015625-.046875.027343-.019531.015626-.046875.03125-.019531.011718-.046875.027344-.019531.015625-.046876.03125-.019531.011719-.046875.03125-.019531.015625-.046875.027343-.019531.015626-.042969.027343-.027344.015625-.039062.027344-.023438.015625-.042968.027344-.023438.015625-.042969.027344-.027343.015624-.039063.027344-.023437.015625-.042969.027344-.027344.015625-.039063.027344-.023437.015625-.046875.027343-.019531.015626-.046875.027343-.023438.011719-.042968.03125-.023438.011719-.042969.027343-.023437.015626-.042969.027343-.023437.015625-.042969.027344-.027344.015625-.039063.027344-.027343.015625c-.011719.007812-.027344.015625-.042969.023437l-.023438.015625-.042968.027344-.023438.015625-.042968.023437-.027344.019532-.039063.023437-.027343.015625-.039063.023438-.03125.019531-.039063.023437-.027343.015626-.035157.023437-.035156.019531-.03125.019532-.035156.023437-.035156.019531-.03125.019532-.039063.023437-.03125.015625-.03125.023438-.105469.058593-.035156.023438-.03125.015625-.035156.023437-.03125.019531-.070312.039063-.03125.019531-.039063.023438-.03125.015625-.035156.023437-.039063.019532-.03125.019531-.03125.015625-.039062.023437-.023438.015625-.042968.023438-.027344.015625-.042969.023437-.023437.015625-.046876.023438-.019531.015625-.046875.027344-.019531.007812-.050781.027344-.019532.011718-.050781.027344-.019531.015625-.050781.023438-.007813.007812-.058594.03125-.007812.003907-.0625.035156-.007812.003906-.0625.035156-.003907.003906c-1.015625.5625-2.050781 1.085938-3.109375 1.570313l-.003906.003906-.070312.03125c-4.519532 2.066407-9.34375 3.394531-14.285157 3.929688l-.082031.007812h-.003906c-.082032.007813-.164063.019531-.25.027344l-.164063.015625h-.003906l-.164063.015625h-.003906l-.078125.007813h-.003906l-.164063.015624h-.003906l-.246094.023438h-.003906l-.082031.003906h-.003906l-.078125.007813h-.003906l-.082032.007812h-.003906l-.078125.003907h-.003906c-.054688.007812-.109375.011718-.164063.015624h-.003906l-.082031.003907h-.003907l-.078124.007812h-.007813l-.078125.003907-.007812.003906-.074219.003906h-.007813l-.078125.003906h-.007812l-.074219.007813h-.015625l-.070313.003906h-.007812l-.074219.003906h-.011719c-.027343.003907-.050781.003907-.074218.003907h-.003906l-.082032.007812h-.003906l-.078125.003906h-.011719l-.074218.003906h-.011719c-.050781.003907-.105469.007813-.15625.007813h-.007813c-.140625.007813-.277344.015625-.417968.019531l-.085938.003906c-3.242188.117188-6.511719.179688-9.800781.179688h-.230469c-.050781 0-.105469 0-.15625 0h-.253906c-.046875 0-.09375 0-.144532 0l-.039062-.003906c-.058594 0-.121094 0-.179688 0h-.445312l-.148438-.003906h-.460937c-.121094-.003907-.246094-.003907-.363281-.003907h-.046875l-.160157-.003906h-.023437c-.058594 0-.125 0-.183594 0h-.039062l-.152344-.003906h-.21875l-.039063-.003907h-.191406l-.179687-.003906h-.035157l-.152343-.003906h-.042969c-.0625 0-.125 0-.1875-.003906h-.003906c-.0625 0-.121094 0-.179688 0l-.039062-.003906c-.125 0-.246094-.003907-.375-.003907h-.03125l-.171875-.003906h-.019531c-.0625-.003906-.121094-.003906-.1875-.003906h-.027344c-.058594-.003907-.113282-.003907-.167969-.003907h-.023437c-.0625-.003906-.128907-.003906-.1875-.003906l-.027344-.003906c-.054688 0-.109375 0-.167969 0l-.03125-.003906-.1875-.003906h-.011719c-.058594 0-.117187 0-.175781-.003907h-.035156c-.121094-.003906-.246094-.007812-.371094-.007812l-.039063-.003907-.378906-.007812h-.019531c-.128906-.003906-.261719-.007812-.390625-.011719h-.015625l-.1875-.007812h-.007813l-.199218-.003907h-.007813c-.0625-.003906-.125-.003906-.1875-.007812h-.015625c-.128906-.003906-.261718-.007812-.390625-.011719h-.015625l-.398437-.011719-.007813-.003906c-.132812-.003906-.265625-.007812-.398437-.011718h-.007813c-.132812-.003907-.265625-.011719-.402344-.015626l-.203124-.007812c-.269532-.007812-.539063-.019531-.808594-.027344l-.007813-.003906c-11.429687-.453125-22.816406-1.65625-34.089843-3.597656-.125-.019532-.253907-.042969-.378907-.066406l-.027343-.003907c-.125-.019531-.25-.042969-.371094-.0625l-.023438-.007812-.171875-.027344-.015625-.003906c-.058594-.011719-.117187-.019531-.179687-.03125l-.035157-.007813-.148437-.027344-.039063-.003906c-.058593-.011718-.117187-.023437-.171874-.03125l-.035157-.007812-.144531-.023438-.046875-.011718-.167969-.027344-.046875-.011719-.125-.019531-.066406-.011719-.121094-.023437-.082031-.015626c-.042969-.007812-.082031-.015624-.121094-.023437l-.082031-.011719-.085937-.019531-.132813-.023437-.09375-.015626-.09375-.019531-.0625-.011719c-.117187-.019531-.234375-.042968-.347656-.0625l-.042969-.007812c-.125-.023438-.25-.046875-.375-.070312l-.015625-.003907c-.941406-.175781-1.875-.359375-2.8125-.546875-.210937-.042968-.417969-.078125-.628906-.109375-.207031-.054687-.414063-.101562-.625-.144531-.96875-.199219-1.933594-.40625-2.898438-.613281l-.003906-.003907c-.042969-.007812-.085937-.015624-.128906-.027343h-.003907c-.132812-.03125-.261718-.058594-.394531-.085938l-.019531-.003906-.109375-.023437-.050781-.011719-.082032-.019531-.050781-.011719-.085937-.019531-.050782-.007813-.082031-.019531-.132812-.03125-.085938-.019532-.046875-.007812-.101562-.023438-.03125-.007812c-.722656-.160156-1.445313-.328125-2.164063-.496094h-.007812c-.179688-.042968-.355469-.082031-.535157-.125l-.003906-.003906c-.042968-.007812-.089844-.019531-.132812-.03125l-.132813-.03125h-.003906l-.265625-.0625-.003906-.003906c-.179688-.039063-.355469-.082032-.53125-.125l-.007813-.003906-.261719-.0625h-.007812c-.089844-.023438-.175781-.042969-.261719-.066407h-.007812c-.984375-.238281-1.96875-.484375-2.949219-.738281h-.007812c-.039063-.011719-.085938-.023438-.128907-.035156l-.265625-.066406-.007812-.003907-.117188-.03125-.035156-.007812-.101562-.027344-.03125-.007813-.097657-.023437-.042969-.011719-.089843-.023437-.039063-.011719-.089844-.023438-.050781-.011718-.085937-.023438-.046875-.011718-.082031-.023438-.050782-.011719-.128906-.035156-.082031-.023437-.058594-.011719-.078125-.023438-.050781-.011719-.078125-.023437-.054688-.011719c-.027344-.007812-.054687-.015625-.078125-.023437l-.054687-.011719-.074219-.019531-.0625-.019531-.074219-.019532-.054687-.011718-.070313-.019532-.0625-.019531-.074218-.019531-.058594-.015625-.070313-.015625-.0625-.019532-.070312-.015624-.0625-.019532-.0625-.015625-.070313-.019531-.066406-.019531-.0625-.015625-.066406-.019532-.066406-.015624-.070313-.019532-.058594-.019531-.066406-.015625-.070313-.019531-.066406-.019531-.0625-.015626-.066406-.019531-.066406-.015625-.066406-.019531-.0625-.019531-.066407-.015625-.066406-.019531-.070313-.019532-.0625-.015625-.066406-.019531-.0625-.015625-.132812-.039063-.0625-.015624-.070313-.019532-.0625-.019531-.066406-.015625-.058594-.019531-.074219-.019531-.058593-.015626-.070313-.019531-.058594-.015625-.074218-.019531-.070313-.023437-.058593-.015626-.066407-.019531-.066406-.015625-.085937-.027344-.171876-.046874-.027343-.007813-.003907-.003906-.023437-.003907h-.003906l-.027344-.007812v-.003906l-.023437-.003906-.007813-.003907-.023437-.007812-.027344-.007813h-.003906l-.050782-.015625h-.003906l-.054688-.019531h-.003906l-.027344-.007812-.058593-.019532-.058594-.015625v-.003906l-.027344-.007813h-.003906l-.054687-.019531h-.003907l-.058593-.019531c-.117188-.039062-.242188-.085938-.367188-.128906-1.648438-.640625-3.226562-1.460938-4.703125-2.4375l-.003906-.003906c-.09375-.058594-.191407-.121094-.289063-.1875-.066406-.042969-.136718-.089844-.207031-.136719l-.082031-.058594c-.113282-.074219-.222656-.152344-.335938-.230469-.027344-.015625-.054687-.035156-.082031-.054687l-.007813-.003907c-.023437-.019531-.050781-.039062-.078124-.054687l-.003907-.003906-.082031-.058594-.003906-.003906-.035156-.023438-.007813-.003906-.039063-.03125-.039062-.027344-.003906-.003906-.039063-.027344h-.003906l-.039063-.027343-.007812-.007813-.035156-.023437-.003906-.003907-.039063-.027343-.007813-.007813-.03125-.019531-.007812-.007813-.078125-.058593-.007813-.003907-.039062-.027343-.039062-.03125-.011719-.007813-.03125-.023437-.003907-.003907-.042968-.027343v-.003907l-.039063-.027343-.007812-.003907-.039063-.03125-.039062-.027343-.007813-.007813-.035156-.027344-.003906-.003906-.039063-.027344-.011718-.007812-.027344-.019531-.011719-.011719-.035156-.027344-.011719-.007813-.027344-.019531-.046875-.035156-.003906-.003906-.039063-.027344-.015624-.011719-.023438-.019531-.011719-.007813-.039062-.03125-.007813-.007812-.03125-.019531-.011718-.011719-.03125-.023438-.015626-.015624-.027343-.015626-.011719-.011718-.03125-.023438-.007812-.007812-.035157-.027344-.015625-.011719-.023437-.019531-.015625-.011719-.035156-.027343-.011719-.007813-.023438-.019531-.019531-.011719-.027344-.023437-.019531-.015626-.023437-.019531-.019532-.011719-.027344-.023437-.007812-.007813-.039062-.027343-.011719-.011719-.027344-.023438-.011719-.007812-.035156-.027344-.015625-.015625-.023437-.015625-.015626-.011718-.046874-.039063-.027344-.023437-.015625-.011719-.019531-.015625-.023438-.019532-.027344-.023437-.058594-.046875-.027343-.023438-.019531-.015624-.023438-.019532-.015625-.011718-.027344-.023438-.019531-.015625-.027344-.019531-.039062-.03125-.015625-.015625-.023438-.019531-.03125-.027344-.015625-.011719-.019531-.015625-.023437-.019531-.027344-.023438-.019532-.015625-.019531-.019531-.015625-.011719-.039062-.03125-.015625-.011718-.019531-.019532-.019532-.011718-.039062-.039063-.03125-.023437-.019532-.015626-.023437-.019531-.003906-.003906-.046875-.042969-.015625-.007812-.035157-.035156-.078124-.066407-.011719-.007812-.023438-.023438-.007812-.003906-.050781-.042969-.007813-.007812-.027344-.023438v-.003906l-.089843-.074219-.007813-.007812-.082031-.074219-.007813-.007812-.027343-.023438h-.003907l-.050781-.046875-.011719-.011719-.027343-.019531-.007813-.011719c-.027344-.023437-.054687-.046875-.082031-.070312l-.011719-.011719c-.027344-.023437-.054687-.046875-.078125-.070313l-.011719-.007812-.035156-.035156-.046875-.039063-.007812-.007812-.027344-.023438-.011719-.011719c-.011719-.011718-.027344-.023437-.042969-.039062l-.011718-.007812-.035157-.035157c-.027343-.023437-.054687-.050781-.082031-.074219l-.007812-.007812-.027344-.023438-.007813-.007812-.046875-.042969-.035156-.035156-.007812-.003906c-.027344-.027344-.054688-.054688-.082032-.078125l-.011718-.007813c-.027344-.027343-.058594-.054687-.085938-.082031l-.039062-.039062-.085938-.078126-.003906-.003906c-.027344-.027344-.058594-.054687-.089844-.085937-.070312-.070313-.144531-.136719-.214844-.203125l-.003906-.007813-.082031-.078125-.035157-.035156-.011718-.007812-.050782-.054688h-.003906l-.027344-.03125-.003906-.003906-.089844-.085938-.003906-.003906c-.070312-.070312-.140625-.140625-.210937-.210938h-.003907c-.058593-.0625-.121093-.125-.183593-.1875v.003907c-.039063-.042969-.078125-.082031-.121094-.125l-.003906-.003907c-.070313-.070312-.140625-.144531-.210938-.21875l-.003906-.003906c-.171875-.179687-.34375-.359375-.515625-.546875l-.003906-.003906c-.058594-.0625-.121094-.128906-.179688-.191406v-.003907c-.101562-.109374-.199218-.21875-.300781-.332031l-.003906-.003906c-.042969-.046875-.078125-.089844-.121094-.132813v-.003906c-.070313-.078125-.140625-.160156-.210937-.238281-.03125-.035156-.058594-.070313-.089844-.105469s-.058594-.070312-.089844-.101562v-.003906c-.070312-.078126-.140625-.160157-.210938-.242188v-.003906c-.039062-.046875-.078124-.09375-.117187-.140625h-.003906c-.027344-.035157-.058594-.070313-.085938-.105469l-.003906-.003906-.085937-.101563-.003907-.007812c-.039062-.046875-.078125-.09375-.117187-.140625l-.085938-.109375h-.003906c-.027344-.035157-.058594-.070313-.085938-.105469v-.003906l-.117187-.144532-.003906-.003906c-.15625-.195312-.3125-.390625-.464844-.59375-.039063-.050781-.078125-.101562-.117187-.152344-.097657-.128906-.191407-.253906-.289063-.382812-.027344-.039062-.054687-.078125-.085937-.117188-.066407-.089843-.132813-.179687-.199219-.269531v-.007812l-.113281-.152344v-.003906c-.03125-.039063-.054688-.078125-.082032-.113281l-.003906-.007813-.082031-.109375-.003907-.007812c-.035156-.050782-.074218-.101563-.109374-.15625l-.003907-.007813-.078125-.109375-.003906-.007812c-.027344-.039063-.054688-.074219-.078125-.113282l-.007813-.007812c-.035156-.050782-.070312-.105469-.105468-.15625l-.007813-.007813c-.023437-.039062-.050781-.078125-.074219-.113281l-.007812-.007812-.074219-.113282-.03125-.046875-.007812-.007812-.046875-.070313-.003906-.007812-.023438-.035156-.003906-.007813c-.027344-.039063-.050782-.078125-.074219-.113281l-.03125-.046875-.007813-.007813-.042968-.066406-.007813-.015625-.03125-.046875c-.023437-.035156-.046875-.074219-.074219-.109375l-.007812-.011719-.070312-.117187-.007813-.007813-.019531-.035156-.011719-.015625c-.011719-.019531-.027344-.039063-.039063-.0625l-.03125-.046875-.007812-.015625c-.015625-.023437-.03125-.046875-.046875-.074219l-.023437-.035156-.011719-.015625-.019531-.035156-.003907-.003907-.042969-.070312-.007812-.015625-.03125-.046875-.039062-.066406-.011719-.011719-.019531-.035156-.007813-.015625c-.023437-.035156-.046875-.074219-.070313-.109375l-.011718-.019531-.019532-.03125-.007812-.015626-.039062-.066406-.03125-.046875-.007813-.015625c-.011719-.019531-.027344-.042968-.039063-.066406l-.007812-.011719-.019531-.03125-.011719-.023437-.019531-.03125-.019531-.035156-.023438-.039063-.015625-.023437-.015625-.03125-.015625-.023438c-.007813-.015625-.019531-.03125-.027344-.050781l-.015625-.023438-.019531-.03125-.011719-.019531c-.011718-.019531-.019531-.039062-.03125-.054688l-.011718-.023437-.019532-.03125-.011718-.023437-.019532-.027344-.015625-.03125-.027343-.046875-.015626-.023438-.015624-.03125-.015626-.023437c-.007812-.015625-.015624-.03125-.027343-.046875l-.015625-.03125-.015625-.023438-.015625-.03125-.015625-.027343-.027344-.046876-.015625-.03125-.015625-.023437-.015625-.03125-.015625-.027344-.027344-.046875-.03125-.054687-.035156-.070313-.039063-.0625-.011718-.027344-.015625-.027343-.027344-.050781-.046875-.082032-.019531-.035156-.019531-.039062-.019532-.03125-.011718-.027344-.015626-.03125-.023437-.035156-.035156-.070313-.011719-.027344-.019531-.03125-.019531-.039062-.019532-.035157-.015625-.027343-.015625-.03125-.015625-.027344-.027343-.050781-.011719-.027344-.015625-.03125-.015625-.023438-.015625-.03125-.023438-.050781-.015625-.027343-.015625-.03125-.011718-.027344-.027344-.046875-.011719-.027344-.019531-.035156-.011719-.023438-.019531-.035156-.066406-.132813-.015626-.027343-.023437-.054688-.011719-.019531-.03125-.0625-.027344-.050781-.007812-.023438-.023438-.039062-.03125-.0625-.007812-.019531-.097656-.195313-.007813-.019531-.066406-.132813-.019531-.046875-.070313-.140625-.007812-.019531-.03125-.0625-.023438-.058594-.011719-.019531-.015624-.039063-.015626-.027343-.03125-.0625-.023437-.050781-.007813-.023438-.019531-.042969-.011719-.019531-.023437-.058594-.011719-.019531-.019531-.042969-.007813-.019531-.027343-.058594-.007813-.015625-.019531-.046875-.011719-.023437-.015625-.042969-.007812-.015625c-2.636719-5.859375-9.523438-8.476562-15.386719-5.839844-5.855469 2.636719-8.46875 9.511719-5.84375 15.371094 8.050781 17.9375 23.34375 29.265625 34.925781 32.539062 6.175781 1.746094 12.464844 3.277344 18.867188 4.59375.230469.046876.457031.089844.6875.121094.222656.058594.449219.113282.679687.15625 18.414063 3.671875 37.140625 5.519532 55.914063 5.507813 3.578125 0 7.128906-.066407 10.660156-.195313 20.898437-.765625 40.363281-10.84375 53.046875-27.472656 12.636719-16.351562 17.289062-37.503906 12.6875-57.648438-1.917969-9.070312-5.4375-17.722656-10.390625-25.554687-2.140625-3.332031-5.835937-5.347656-9.796875-5.34375zm0 0" fill="#e48d72"/><path d="m473.941406 162.238281c-5.164062.003907-9.722656 3.386719-11.222656 8.328125l-.277344.917969c-.042968.144531-.085937.289063-.121094.433594-.0625.160156-.117187.320312-.171874.484375-7.171876 22.097656-26.054688 42.671875-53.164063 57.941406-5.601563 3.148438-7.589844 10.246094-4.4375 15.84375 3.144531 5.59375 10.21875 7.582031 15.820313 4.453125 31.699218-17.839844 54.722656-42.6875 63.929687-71.089844.058594-.175781.109375-.351562.15625-.527343.058594-.160157.113281-.324219.167969-.488282l.046875-.15625.003906-.007812c.125-.410156.25-.816406.371094-1.226563v-.007812c.015625-.054688.035156-.113281.050781-.167969 1.746094-6.101562-1.757812-12.46875-7.847656-14.253906-1.074219-.316406-2.183594-.476563-3.304688-.476563zm0 0" fill="#8e1600"/><path d="m463.382812 89.09375c-.007812-.015625-.011718-.03125-.019531-.042969l-.019531-.042969v-.003906c-.011719-.027344-.023438-.054687-.039062-.082031v-.003906c-.007813-.011719-.011719-.027344-.019532-.042969l-.019531-.039062v-.003907c-.007813-.011719-.011719-.027343-.019531-.042969-.003906-.015624-.011719-.027343-.019532-.042968l-.078124-.171875c-.007813-.015625-.015626-.03125-.023438-.042969-.234375-.503906-.496094-1-.78125-1.492188l-.023438-.042968v-.003906c-.007812-.011719-.015624-.027344-.023437-.039063-.007813-.015625-.015625-.027344-.023437-.042969-.011719-.015625-.015626-.027344-.023438-.039062l-.003906-.003906c-.007813-.015626-.015625-.027344-.023438-.039063v-.003906c-.007812-.011719-.015625-.023438-.023437-.039063l-.003907-.003906c-.003906-.011719-.011718-.023438-.019531-.035156l-.003906-.007813-.019531-.035156-.007813-.007813-.019531-.035156-.003906-.003906-.019532-.035156-.003906-.007813c-.007812-.011719-.015625-.023437-.023437-.035156l-.003907-.003906c-.003906-.015625-.011718-.027344-.019531-.039063l-.003906-.003906c-.007813-.011719-.015625-.023438-.023437-.035156l-.003907-.007813c-.007812-.011719-.011719-.023437-.019531-.035156l-.003906-.007813-.023438-.035156-.003906-.003906-.019531-.035156-.003907-.007813-.023437-.035156-.003906-.007813c-.007813-.011718-.015625-.023437-.023438-.03125l-.003906-.007812-.023437-.035156v-.007813c-.011719-.011719-.015626-.023437-.023438-.035156l-.003906-.003906c-.007813-.015625-.015625-.027344-.023438-.035157l-.003906-.007812-.023438-.035156-.003906-.007813c-.007812-.011719-.015625-.023437-.023437-.035156l-.003907-.003906c-.007812-.011719-.011718-.023438-.019531-.035157l-.007812-.007812-.019531-.035156-.003907-.003906c-.007812-.011719-.015625-.023438-.023437-.035157l-.003906-.007812c-.007813-.011719-.015626-.023438-.023438-.035157l-.003906-.003906c-.007813-.011718-.015625-.027344-.023438-.035156l-.003906-.007812c-.007812-.011719-.015625-.023438-.023438-.035157l-.003906-.003906c-.007812-.011719-.015625-.027344-.027344-.039063v-.003906c-.007812-.011718-.015624-.027344-.027343-.039062-.007813-.011719-.019531-.027344-.027344-.039063v-.003906c-.148437-.21875-.304687-.433594-.464844-.652344l-.027343-.039062-.003907-.003907-.027343-.035156-.003907-.003906-.027343-.035156-.003907-.007813-.023437-.035156-.003906-.003906-.027344-.035157-.003906-.007812c-.011719-.011719-.015626-.023438-.027344-.03125l-.003906-.011719-.027344-.027343-.003906-.011719-.023438-.027344-.007812-.011719c-.007813-.011718-.015626-.019531-.023438-.03125l-.007812-.011718-.023438-.027344-.007812-.011719-.023438-.027344-.007812-.011719c-.007813-.011718-.015626-.019531-.023438-.03125l-.007812-.007812c-.007813-.011719-.015626-.019531-.023438-.027344l-.007812-.015625-.023438-.027343-.007812-.011719-.023438-.027344-.007812-.011719-.023438-.027344-.007812-.011718-.023438-.027344-.007812-.015625c-.007813-.007813-.015626-.015625-.023438-.027344l-.011719-.011719-.019531-.023437-.011719-.015625-.019531-.023438-.011719-.015624-.023437-.023438-.007813-.015625-.023437-.023437-.011719-.015626c-.003906-.007812-.011719-.015624-.019531-.023437l-.011719-.015625c-.007813-.007812-.011719-.015625-.019531-.023438l-.011719-.015624-.023437-.023438-.007813-.015625-.023437-.023437-.011719-.015626-.019531-.023437-.011719-.015625-.023438-.023438-.011719-.015624c-.007812-.007813-.011718-.015626-.019531-.023438l-.011719-.015625-.019531-.023437-.015625-.015626-.019531-.023437-.011719-.011719c-.007812-.011718-.015625-.019531-.019531-.027344l-.015625-.015624-.019531-.023438-.035157-.035156-.011718-.015625c-.007813-.007813-.015625-.015625-.019532-.023438l-.011718-.015625-.023438-.023437-.011718-.015625-.023438-.023438-.011719-.015625-.019531-.023437-.011719-.015625-.035156-.035157-.023437-.027343-.011719-.011719-.019531-.023438-.015626-.015624-.019531-.023438-.015625-.015625c-.003906-.007813-.011718-.015625-.019531-.023437l-.011719-.011719c-.011718-.011719-.015625-.019531-.023437-.027344l-.011719-.011719c-.011719-.011718-.019531-.019531-.027344-.03125l-.007812-.007812-.027344-.03125-.007812-.007813c-.007813-.007812-.019532-.015625-.023438-.027343l-.011719-.011719c-.011719-.011719-.023437-.023438-.035156-.039063-.023437-.027344-.050781-.054687-.078125-.082031-.007812-.007813-.015625-.015625-.027344-.027344l-.046875-.054687-.078125-.078125c-.019531-.027344-.042968-.050781-.066406-.074219-.007812-.011719-.019531-.019531-.027344-.03125l-.046875-.050781-.023437-.023438c-.335938-.359375-.675782-.71875-1.019532-1.078125l-.003906-.003906c-.027344-.027344-.050781-.054688-.078125-.082031-.015625-.019531-.035156-.035157-.050781-.054688l-.019531-.019531c-.023438-.027344-.046875-.050781-.074219-.078125-.210938-.21875-.417969-.429687-.628906-.648437-.101563-.101563-.203125-.203126-.308594-.300782-.121094-.136718-.25-.273437-.378906-.40625-4.761719-4.808594-9.84375-9.289062-15.207032-13.414062l-.003906-.003906-.441406-.335938v-.003906c-.09375-.074219-.191406-.144532-.289062-.21875l-.011719-.011719c-.09375-.070313-.191407-.144531-.285157-.21875l-.007812-.003906c-.046875-.03125-.085938-.066407-.128906-.097657-.007813-.003906-.015625-.011718-.023438-.019531-.09375-.066406-.183594-.136719-.277344-.207031l-.027343-.019531c-.042969-.03125-.082031-.0625-.125-.09375l-.011719-.007813c-.042969-.035156-.089844-.070312-.136719-.105468l-.027343-.019532c-.039063-.027344-.074219-.054687-.113282-.085937l-.03125-.023438-.132812-.097656-.015625-.011719c-.039063-.03125-.078125-.058594-.117188-.085937-.015625-.011719-.027343-.023438-.042969-.035157l-.097656-.070312-.035156-.027344c-5.164062-3.824218-12.453125-2.734375-16.277344 2.429688-3.8125 5.15625-2.738281 12.425781 2.40625 16.257812 4.277344 3.167969 8.359375 6.59375 12.222656 10.257813-.332031 0-.679687 0-1.035156 0-13.75 0-48.390625-1.304688-73.035156-13.390625-4.988281-2.449219-9.996094-5.152344-15.023438-8.121094-5.5-3.320312-12.65625-1.554688-15.976562 3.945312-3.324219 5.5-1.558594 12.652344 3.941406 15.976563.058594.035156.121094.074219.179688.105469 1.039062.617187 2.078125 1.222656 3.117187 1.8125.007813.007812.015625.011718.027344.019531.03125.019531.0625.035156.09375.054687.011719.003907.019531.007813.027344.015626l.105469.058593.039062.023438c.03125.015625.0625.035156.089844.050781.019531.007812.035156.019531.054687.03125.015625.007812.035157.019531.050781.027344l.066407.039062.039062.023438c.050781.027344.101563.058594.15625.085937l.011719.007813c.027344.015625.058594.03125.085938.050781l.019531.007813.089843.050781v.003906c2.359376 1.335937 4.714844 2.617187 7.066407 3.84375l.007812.003906.089844.046875.015625.007813.277344.144531.011718.007812c.027344.011719.054688.027344.085938.042969l.019531.011719c.027344.011719.058594.027344.085938.042969.058593.03125.109375.058593.167969.085937.011718.007813.023437.015625.035156.019532.023437.011718.046875.027343.074218.039062l.039063.019531c.023437.011719.042969.023438.066406.035157.015625.007812.03125.015624.046875.023437.039063.019531.078125.042969.117188.058594.015625.011719.035156.019531.050781.027343.023437.011719.042969.023438.0625.035157.015625.007812.03125.015625.046875.023437.023438.011719.046875.023438.070312.035156.015626.007813.03125.015626.046876.023438l.09375.046875c.023437.015625.050781.027344.074218.042969.015625.003906.03125.015625.050782.023437.023437.011719.042968.023438.070312.035157.015625.007812.03125.015624.042969.023437.027343.015625.054687.027344.082031.039063.015625.007812.03125.015624.046875.023437.03125.019531.070313.035156.105469.054687l.03125.015626c.027344.015624.054687.03125.085937.046874l.035157.015626c.035156.019531.070312.035156.101562.050781l.015625.011719c.042969.019531.082031.039062.121094.058593l.125.0625.019531.011719c.039062.019531.078125.039062.113281.058594l.011719.003906c.039062.023438.082031.042969.121094.0625l.015625.007812c.035156.015626.070312.035157.101562.054688.011719.003906.019531.007812.03125.011719.039063.019531.074219.039062.113281.058593h.003907c.082031.042969.164062.085938.246093.125l.023438.011719c.035156.019531.070312.035157.101562.050781l.019532.011719c.082031.039063.164062.082031.246094.125l.019531.007813.375.1875.011719.003906c.039062.019531.074218.039062.117187.058594l.007813.003906c.082031.042969.160156.082031.242187.121094l.03125.015625c.03125.015625.066406.035156.101563.050781l.015624.007812c.082032.039063.164063.082032.242188.121094l.023438.011719c.035156.015625.066406.03125.097656.046875l.03125.015625c.078125.039063.15625.078125.234375.113281l.035156.019532.117187.058593c.039063.019531.082032.039063.117188.058594 28.566406 14.011719 66.195312 15.769531 83.285156 15.769531h.539063.238281.144531.117188.261719c4.640624-.027344 7.484374-.175781 7.8125-.195312h.183593l.023438-.003906h.097656c.011719.003906.023437 0 .035156 0h.152344l.019531-.003907h.027344.027344.023437.023438.027343c.007813 0 .015626 0 .023438-.003906h.027344.027344.070312l.027344-.003906h.074218c.007813 0 .019532 0 .027344-.003907h.023438.027344.023437c.007813 0 .015625 0 .023437-.003906h.023438.027344.023437l.027344-.003906h.023437c.007813 0 .019532 0 .027344-.003906h.023438.023437c.007813 0 .015625 0 .023438-.003906.011719.003906.019531 0 .027343 0h.023438l.027344-.003907h.023437.023438c.007812 0 .019531 0 .027343-.003906h.046876l.023437-.003906h.027344.023437l.027344-.003907h.023438l.023437-.003906h.023437l.027344-.003906h.023438l.023437-.003906h.023438l.027343-.003906h.023438l.023438-.003907h.023437l.027344-.003906h.046875c.007812-.003906.015625-.003906.023437-.003906h.023438c.011719-.003907.019531-.003907.027343-.003907l.023438-.003906h.023438l.023437-.003906h.027344l.019531-.003906.03125-.003906h.019531l.027344-.003907h.023437c.007813 0 .015626-.003906.027344-.003906h.019532l.027343-.003906.019531-.003907h.027344l.023438-.003906c.011718 0 .019531-.003906.027344-.003906h.023437l.027344-.003906.019531-.003906h.027344l.015625-.003907.03125-.003906h.015625l.035156-.003906h.007812l.039063-.003907.011719-.003906c.125-.011718.246094-.03125.367187-.046875h.003907c.027343-.003906.054687-.007812.085937-.011719h.011719c.011718-.003906.023437-.007812.035156-.007812h.007812c.011719-.003906.023438-.003906.03125-.007812h.019532c.011718-.003907.023437-.003907.035156-.007813h.011719l.035156-.007813h.011719c.011718-.003906.023437-.003906.035156-.003906l.011719-.003906.035156-.003906.011719-.003906c.011718 0 .023437-.003907.035156-.003907l.011719-.003906.03125-.003906.015625-.003907.03125-.003906.015625-.003906.03125-.003906.015625-.003906c.011718 0 .023437-.003907.035156-.003907l.011719-.003906.035156-.003906.011719-.003907.03125-.003906.015625-.003906c.011719 0 .019531-.003906.03125-.007812h.015625c.011718-.003907.019531-.003907.03125-.007813h.015625l.03125-.007813h.015625l.046875-.011718.03125-.003906.046875-.011719h.011718l.035157-.007813.015625-.003906c.007812 0 .019531-.003906.03125-.003906l.011718-.003906.035157-.007813h.011719l.03125-.007813h.015624l.09375-.023437.03125-.003906.046876-.011719h.011718l.035156-.007812.007813-.003907c.011719 0 .023437-.003906.035156-.007812h.011719c.011719-.003907.023438-.003907.035156-.007813l.011719-.003906c.011719 0 .023437-.003906.035156-.007812l.007813-.003907c.011718 0 .023437-.003906.035156-.003906l.011719-.003906.035156-.007813.007813-.003906.039062-.007812h.007812l.039063-.007813.003906-.003906c.011719 0 .027344-.003907.039063-.007813h.003906l.089844-.023437c.417968-.097657.832031-.210938 1.238281-.335938h.003906l.042969-.015625c.042969-.011718.085938-.027344.128906-.039062.058594-.019532.117188-.039063.171875-.058594h.003907c.058593-.019531.113281-.035156.167968-.058594h.003906c.027344-.007812.054688-.015625.082032-.027344h.003906c.011719-.003906.027344-.007812.039062-.015624h.003907c.011719-.003907.027343-.007813.039062-.011719v-.003907c2.808594-.980468 5.34375-2.617187 7.398438-4.769531l.027343-.03125.03125-.03125.027344-.03125.03125-.03125c.007813-.011719.019532-.019531.027344-.03125.011719-.007812.019531-.019531.027344-.027343l.003906-.003907.027344-.03125c.011718-.007812.019531-.019531.027344-.027343l.003906-.003907c.007812-.007812.019531-.019531.027344-.03125l.027343-.03125c.019531-.019531.039063-.039062.054688-.0625h.003906l.027344-.03125h.003906c.007813-.011719.015625-.019531.023437-.03125l.003907-.003906c.007812-.007813.015625-.015625.023437-.027344l.003906-.003906c.007813-.007813.015626-.015625.023438-.027344l.007812-.003906c.003907-.007813.015626-.019531.023438-.027344v-.003906c.011719-.007813.015625-.019531.027344-.027344l.003906-.007812.023438-.023438.003906-.007812c.007812-.007813.015625-.015625.023437-.023438l.007813-.011719.019531-.023437.007813-.007813.019531-.023437.007812-.007813c.007813-.007812.015625-.015624.023438-.023437l.003906-.007813.023437-.027343.003907-.003907.023437-.027343.003906-.003907.023438-.03125h.003906l.023438-.03125c.011718-.011718.019531-.019531.027344-.03125l.003906-.007812c.007812-.007812.015625-.015625.023437-.027344.011719-.011718.019531-.019531.027344-.03125l.003906-.003906c.015625-.019531.03125-.039062.050781-.0625l.003907-.003906c.035156-.039063.070312-.082032.101562-.125l.007813-.007813c.066406-.082031.132812-.167969.199218-.25l.007813-.007812.019531-.027344.007813-.007813.019531-.023437.007812-.007813c.003907-.011718.011719-.019531.019532-.027343l.007812-.007813.011719-.019531.011719-.015625.015625-.015625.011719-.019531.011718-.015625.015625-.015625c.003907-.007813.007813-.015625.011719-.019532l.011719-.015624.015625-.019532.023437-.03125.015625-.015625.007813-.019531c.007812-.003906.011719-.011719.015625-.019531l.011718-.015625.015626-.015625.011718-.015625.011719-.019532.011719-.015624.015625-.019532.011719-.015625.011718-.019531.011719-.015625.015625-.015625.023438-.039062.011718-.011719.015625-.019531.007813-.015626c.003906-.007812.011718-.015624.015625-.019531l.011719-.015625.011718-.019531.011719-.015625.015625-.019531.007812-.015625.015626-.019532.007812-.011718.019531-.023438.007813-.011718c.003906-.007813.011718-.015626.015625-.023438l.007812-.011719.019531-.023437.003907-.011719.019531-.023437.03125-.046876.019531-.023437.054688-.082031.019531-.023438.03125-.046875.019531-.027343.003907-.007813.019531-.027344.003906-.007812.019531-.027344.003906-.007813.019532-.027343.003906-.007813.023438-.03125v-.003906c.007812-.011719.015624-.023438.023437-.035156.007813-.011719.015625-.023438.023437-.035156.90625-1.375 1.636719-2.851563 2.183594-4.402344.003906-.011719.007813-.023438.011719-.039063.007813-.015625.011719-.027343.015625-.039062v-.003907c.003906-.011718.007812-.023437.011719-.035156l.003906-.007812c.003906-.011719.007813-.023438.011719-.035156v-.003907c.003906-.011719.007812-.023437.011718-.035156l.003907-.007813.011719-.03125v-.007812c.003906-.011719.007812-.023438.011718-.035156l.003906-.007813.011719-.03125v-.007812c.003907-.011719.007813-.023438.011719-.035157l.003906-.007812c.003906-.011719.007813-.023438.011719-.035156v-.003906l.011719-.035157.003906-.007812.007812-.03125.003907-.011719.011719-.03125.003906-.007812.007812-.035157.003906-.007812.011719-.03125.003907-.011719.007812-.03125.003906-.007812.007813-.03125.003906-.011719c.003906-.011719.007813-.019531.011719-.03125v-.011719l.011718-.03125.003907-.011719c.003906-.007812.007812-.019531.007812-.027343l.003907-.011719.007812-.03125.003906-.011719.007813-.03125.003906-.011719.011719-.027343.003906-.011719.007812-.03125v-.011719l.011719-.03125.003907-.011719.007812-.03125.003906-.007812.007813-.03125.003906-.011719.007813-.03125.003906-.011719.007812-.03125.003906-.007812.007813-.03125.003906-.011719.007813-.03125.003906-.011719.007812-.03125.003907-.011719.007812-.027343.003907-.015625.007812-.027344.003906-.015625.007813-.027344.007812-.023437.003907-.019532c.007812-.027343.015624-.054687.023437-.082031v-.007812c.007813-.027344.015625-.050781.023437-.078125v-.007813l.007813-.035156.003906-.015625.007813-.027344.003906-.015625.007812-.027343.003907-.015626.003906-.027343.003906-.011719c.003907-.011719.007813-.019531.007813-.03125l.003906-.011719.007812-.03125.003907-.011719c0-.011718.003906-.019531.003906-.03125l.003906-.011718.007813-.027344.003906-.015625.007812-.027344.003907-.015625.003906-.027344.011719-.046874.003906-.011719.007812-.027344v-.011719l.019532-.078125v-.007812c.003906-.011719.003906-.023438.007812-.03125l.003906-.011719c0-.011719.003907-.023438.007813-.03125v-.011719c.003906-.011719.003906-.023437.007813-.03125l.003906-.015625.007812-.027344v-.011718l.007813-.03125v-.015625l.007812-.027344.003907-.015625.003906-.027344.003906-.015625.007812-.027343.003907-.015626c0-.007812.003906-.019531.003906-.027343l.003906-.015625.003907-.027344.003906-.015625c.003906-.007813.003906-.019531.007812-.027344v-.015625l.007813-.027344.003906-.011718.003906-.035156.003907-.011719.007812-.03125v-.007813l.007812-.035156v-.007812l.007813-.035157v-.007812l.007813-.035157.003906-.011718.003906-.035156v-.003907l.007812-.035156.003907-.011719.003906-.035156.003906-.007812.003907-.035157.003906-.007812c0-.011719.003906-.023438.007812-.035157v-.007812c0-.011719.003906-.023438.003906-.039062l.003907-.003907.007812-.039062v-.003907l.003907-.042968v-.003906c.007812-.027344.011718-.054688.015624-.082032v-.003906c.074219-.4375.132813-.875.175782-1.320312.023437-.234376.042968-.472657.058594-.707032v-.003906c.214843-3.183594-.339844-6.363281-1.609376-9.28125zm0 0" fill="#8e1600"/><path d="m323.675781 124.585938c-4.972656 0-9.433593 3.058593-11.226562 7.695312l-.023438.058594c-.007812.019531-.015625.035156-.023437.054687l-.042969.082031c-5.070313 9.527344-7.753906 20.140626-7.8125 30.933594-.050781 17.992188 7.097656 35.261719 19.855469 47.949219 4.683594 4.6875 7.25 8.390625 9.167968 16.761719 1.511719 6.628906-.050781 13.582031-4.25 18.925781-4.253906 5.609375-10.796874 9.015625-17.832031 9.289063-2.960937.109374-5.941406.164062-8.941406.164062-21.148437.054688-42.207031-2.761719-62.59375-8.371094-1.394531-.859375-7.585937-5.261718-7.601563-15.808594l-.191406-4.355468c-.265625-6.1875-5.359375-11.066406-11.550781-11.066406-.195313 0-.390625.003906-.585937.015624-6.425782.324219-11.386719 5.769532-11.109376 12.199219.070313 1.394531.128907 2.765625.183594 4.113281v.472657l.003906.003906v.066406.011719.054688.085937l.003907.042969v.148437l.003906.050781v.015626l.003906.128906v.128906l.003907.023438v.0625l.003906.042968v.136719l.003906.011719v.070312l.003906.054688v.066406l.003906.019531v.066407l.003907.039062v.089844l.003906.046875v.015625l.003906.054687v.007813c0 .019531 0 .039062.003907.0625v.027344l.003906.035156v.0625l.003906.027344v.0625l.003906.035156v.027344l.003906.039062v.023438l.003907.039062v.074219l.003906.03125.003906.039062v.03125l.003907.03125v.03125l.003906.03125v.0625l.003906.027344v.035156l.003906.027344v.035156l.003906.027344.003907.050781v.007813l.003906.0625v.015625l.003906.046875v.027343l.007813.0625v.03125l.003906.027344v.039063l.003906.023437.003906.035156v.027344l.003907.035156v.027344c.003906.039063.007812.078125.011719.121094v.019531l.003906.039063v.027344l.003906.035156v.027344l.003906.035156.003906.023437.003907.035157v.027343l.003906.035157.003906.027343v.039063l.003907.019531.003906.058594.007812.0625v.03125l.003906.027343.003907.03125v.027344l.003906.035156.003906.027344.003907.03125v.027344l.003906.035156.003906.023438.003906.035156v.019531c.003906.023438.007813.050781.007813.078125l.003906.019532v.03125l.003906.027343.011719.09375v.023438l.003906.035156.003906.027344.003907.03125v.027343l.007812.0625c.003907.039063.007813.078126.011719.121094l.003906.023438.011719.09375.003906.023437.003907.035157v.023437l.003906.035156.003906.027344.003906.03125.003906.027344.007813.0625c0 .023437.003906.046875.007813.066406v.015625l.003906.035156.003906.027344.003906.03125.003906.027344.003907.03125.003906.027344.003906.03125.003907.027343.003906.03125.003906.027344.007812.0625.003907.027344.003906.054687.003906.027344.003907.03125.003906.035156.003906.023438.003906.035156.003906.023438.007813.035156v.019531l.007813.039063v.019531l.007812.039062v.015625l.007812.039063v.015625c.003907.03125.007813.058594.015626.089844v.007812l.003906.039062.003906.015626.003906.039062.011719.058594v.015625l.011719.058593.003906.039063.003906.015625.003906.042969.003907.007812c.007812.050781.015625.101563.023437.148438v.007812l.003906.042969.003907.015625.007812.039063v.015624l.007813.035157.003906.023437.003906.039063.003906.015625.007813.039062v.015625c.011719.0625.023437.128907.035156.195313v.007812l.007813.046875v.007813l.007812.042968.003906.015626.007813.042968v.011719l.007813.042969.003906.011718.007812.046876v.003906c.011719.070312.023438.136718.035156.207031l.011719.046875v.011719l.007813.046875v.003906l.011718.046875v.007813c.019532.105468.039063.207031.058594.3125v.003906c.003906.015625.007813.03125.011719.050781l.007813.050781v.003906l.011718.046876v.007812l.007813.046875.003906.003906c.019531.105469.039063.207031.058594.3125h.003906l.007813.050781v.003907l.011718.046875v.003906c.023438.105469.042969.207031.066406.308594v.003906l.023438.101562v.003907c.027344.117187.050781.238281.078125.359375l.011719.046875v.003906c.0625.273437.128906.546875.195312.8125v.003906c1.644532 6.601563 4.941406 12.675781 9.585938 17.648438l.023437.027343.003907.003907.023437.027343h.003906l.023438.027344.007812.007813c.042969.046875.085938.089843.128907.136719l.023437.027343.007813.003907.023437.027343.027344.027344v.003906c.054687.054688.109375.109375.160156.164063v.003906l.027344.023438.003906.003906.019531.023437.011719.007813c.050781.054687.101563.105468.152344.160156l.007812.007812.015625.019532.011719.007812.019531.019532.007813.011718.019531.019532.007812.003906.023438.023437.003906.007813c.023438.023437.046875.046875.070313.070312l.035156.035156.015625.019532.015625.011718.042969.042969.015625.019531.011719.007813.03125.03125c.019531.019531.039062.039063.058593.058594l.007813.007812.023437.019531.007813.011719.117187.117188.023438.019531.007812.007812.027344.03125.007813.003907.121093.121093.019531.015626.070313.070312.058594.054688.058593.058593.011719.007813.054688.054687.152343.144531.003907.003907.027343.023437.007813.007813.054687.050781.003907.003906c.039062.039063.082031.074219.121093.113282l.003907.003906.027343.023437.035157.035157c.058593.054687.121093.109374.179687.164062l.03125.03125h.003906l.027344.023438.003906.003906c2.757813 2.597656 5.96875 4.667968 9.472657 6.109375l.042969.015625h.003906l.035156.011718.007812.003907.035157.011719.007812.003906.027344.007812.015625.007813.015625.003906.023437.007813.019532.007812.023437.007812.015625.003907.058594.023437.015625.003906.023437.007813.015626.003906.027343.011719.007813.003906.03125.007813.011718.003906.027344.007813.007813.003906.03125.011718h.007812l.03125.011719h.003907l.035156.011719h.007812l.03125.011719.035156.011719h.003907l.03125.007812.007812.003906.03125.007813.007813.003906.03125.007813.003906.003906.03125.007812h.003906l.035156.011719h.003907l.03125.007813c22.730469 6.34375 46.222656 9.539062 69.824219 9.503906 3.289062 0 6.554687-.0625 9.800781-.179688l.082031-.003906c.140625-.007812.28125-.011719.417969-.019531h.007812c.050781-.003907.105469-.003907.160157-.007813h.007812l.074219-.003906h.011719l.078124-.003906h.007813l.078125-.007813h.003906c.023438 0 .050782 0 .074219-.003906h.011719l.074218-.003906h.011719l.070313-.003907h.011718l.078126-.007812h.007812l.074219-.003906h.007812l.078125-.003906.007813-.003907.074219-.003906h.007812l.082031-.007813h.003907l.078124-.003906h.003907c.058593-.003906.113281-.011718.167969-.015625l.082031-.003906h.003906l.078125-.007813h.003906l.082032-.007812h.003906l.078125-.003906h.003906l.082031-.007813.085938-.007812.082031-.007813.167969-.015625.082031-.007812h.003906l.078125-.007813h.003906l.164063-.015625h.003906l.082031-.007812c.082032-.007813.164063-.019531.25-.027344l.082032-.007813c4.941406-.535156 9.765625-1.863281 14.285156-3.929687h.003906l.070313-.03125v-.003906c1.058593-.484375 2.097656-1.011719 3.109375-1.570313l.007812-.003906c.019532-.011719.039063-.023438.0625-.035156l.003906-.003906.0625-.035157.007813-.003906.058594-.03125.011719-.007813.046874-.023437.023438-.015625.046875-.027344.019531-.011718.050782-.027344.019531-.011719.046875-.023437.023437-.015626.042969-.023437.027344-.015625.042968-.023438.023438-.015624.042969-.023438.027343-.015625.039063-.023437.03125-.015626.03125-.019531.035156-.023437.035157-.019532.03125-.015624.039062-.023438.03125-.019531.070312-.039063.03125-.019531.035157-.023437.035156-.015626.035156-.023437.03125-.019531.070313-.039063.035156-.023437.027344-.015625.039062-.023438.03125-.019531.039063-.023438.03125-.019531.035156-.019531.03125-.019531.035156-.023438.03125-.015625.039063-.023437.027344-.019531.039062-.023438.027344-.015625.039062-.023437.027344-.019532.042969-.023437.023437-.015625.042969-.027344.023437-.015625.042969-.027344.027344-.011719.039063-.027343.03125-.015625.039062-.027344.023438-.015625.042968-.027344.023438-.015625.042968-.027344.023438-.011718.046875-.03125.023437-.011719.042969-.027344.023438-.015625.042969-.027344.023437-.015624.042969-.027344.027344-.015625.039062-.027344.027344-.015625.039062-.027344.023438-.015625.042968-.027343.023438-.015626.042969-.027343.023437-.015625.042969-.027344.027344-.015625.039062-.027344.023438-.015625.042969-.027344.023437-.015624.042969-.03125.023437-.011719.042969-.03125.023438-.015625.042968-.027344.019532-.011719.046874-.03125.019532-.015625.046875-.03125.019531-.011718.046875-.03125.019531-.011719.046875-.03125.015625-.011719.050782-.035156.015624-.011719.046876-.03125.019531-.011719.042969-.03125.023437-.015625.042969-.027343.019531-.015626.046875-.03125.019531-.011718.046875-.035156.019532-.011719.046874-.03125.019532-.011719.046875-.035156.015625-.007813.050781-.035156.011719-.011719.050781-.035156.015625-.007812.046875-.035157.019531-.015625.046875-.03125.015625-.011718.050782-.035157.0625-.046875.015624-.007812.050782-.035156.015625-.011719.050781-.035157.011719-.007812c.015625-.011719.035156-.027344.050781-.039062l.011719-.007813.054687-.039063.011719-.007812.050781-.035156.011719-.011719.050781-.035156.011719-.007813c.019531-.015625.035156-.027344.054687-.039062l.011719-.007813.050781-.039062.011719-.007813.050781-.039062.011719-.007813.054688-.039062.007812-.007813.054688-.039062.011719-.007813.054687-.039062.007813-.007813.050781-.039062.011719-.007813.054687-.039062.007813-.007813.054687-.039062.011719-.007813.054687-.039062.007813-.007813.054687-.039062.007813-.007813.058594-.042969.003906-.003906.054687-.042968.007813-.003907.054687-.042969.007813-.007812.050781-.039062.015625-.007813.054688-.042969.003906-.003906.058594-.042969.003906-.003906.058594-.046875.003906-.003906.058594-.042969.003906-.003906c.042968-.03125.082031-.0625.121094-.09375l.003906-.003907c.039062-.03125.082031-.0625.121094-.09375l.003906-.003906c.828125-.648437 1.632812-1.324218 2.414062-2.023437l.007813-.007813c.039062-.03125.074219-.066406.113281-.097656v-.003906c.039062-.035156.078125-.066406.113281-.101563l.003907-.003906.113281-.101563.007812-.007812.050781-.046875.003907-.003906.054687-.046875.007813-.011719.050781-.042969.003906-.007812.050782-.046875.011718-.007813.046875-.046875.011719-.007812.046875-.042969.011719-.011719.046875-.042969.054687-.054687.015625-.011719.042969-.039062.074219-.074219.039062-.035156.054688-.054688.019531-.015625.039062-.039062.019532-.015625.054687-.054688.039063-.035156.015625-.019531.039062-.035156.019531-.019532.039063-.035156.019531-.023438.035156-.03125.078126-.078124.035156-.03125.078125-.078126.035156-.03125.246094-.246093.03125-.027344.054687-.054687.027344-.03125.191406-.191407.027344-.03125.027344-.027343.03125-.027344.023437-.023438.03125-.035156.109375-.109375.023438-.027344.085937-.085937.023438-.027344.03125-.03125.019531-.023438.054688-.054687.035156-.039063.054687-.054687.015625-.019531.054688-.054688.039062-.042968.015625-.015626.039063-.042968.011718-.011719.039063-.042969.015625-.015625.039062-.042969.054688-.054687.011719-.015625.039062-.042969.011719-.011719.042969-.046874.011719-.011719.042968-.046875.011719-.007813.042969-.050781.007812-.007812.042969-.046876.007813-.011718.046874-.046875.007813-.011719.042969-.046875.007812-.007813.046875-.050781.007813-.007812c.015625-.015625.027344-.03125.046875-.050781l.003906-.003907.046875-.054687.003906-.003906.050782-.054688.050781-.058594c8.925781-9.875 13.148437-23.125 11.582031-36.339844l-.023438-.164062-.007812-.082031v-.003907c-.003906-.027343-.007812-.050781-.011719-.078124v-.003907l-.011719-.078125v-.003906l-.011718-.078125v-.003906l-.007813-.078125-.003906-.003906-.007813-.082032c-.003906-.027344-.007812-.050781-.011718-.078125v-.003906l-.011719-.082031c-.003906-.027344-.007813-.054688-.011719-.082032-.003906-.027343-.007812-.054687-.011718-.082031v-.003906c-.003907-.023437-.007813-.050781-.011719-.078125v-.003906l-.011719-.078125-.003906-.003907-.007813-.078124-.003906-.003907-.011719-.078125v-.003906l-.011718-.078125v-.007813l-.011719-.074218v-.007813c-.003907-.023437-.011719-.046875-.015625-.074219v-.007812c-.003906-.023438-.007813-.050781-.011719-.074219v-.007812l-.011719-.074219-.003906-.007812-.011719-.074219v-.011719l-.011719-.070312-.003906-.011719-.011718-.070313v-.011718c-.003907-.023438-.007813-.046876-.011719-.070313l-.003907-.011719c-.003906-.023437-.007812-.046875-.011718-.070312v-.011719l-.015625-.070313v-.011718l-.011719-.070313-.003906-.011719c-.003906-.023437-.007813-.050781-.011719-.070312l-.003906-.011719-.011719-.074219v-.011718c-.003906-.019532-.007812-.046875-.011719-.066406l-.003906-.015626c-.003906-.019531-.007813-.046874-.011719-.070312l-.003906-.011719c-.003906-.023437-.007812-.046875-.011719-.070312l-.003906-.011719-.011719-.070312-.003906-.011719c-.003906-.023438-.007812-.046875-.011719-.070313l-.003906-.011718-.011719-.070313-.003906-.011719-.011719-.070312-.003906-.015625-.011719-.066407-.003906-.015624c-.003906-.023438-.007812-.042969-.011719-.070313l-.003906-.011719c-.003906-.023437-.007813-.042968-.011719-.066406l-.003906-.015625-.011719-.066406-.003906-.015625c-.003906-.023438-.007813-.046875-.015625-.070313v-.011719l-.015625-.070312-.003906-.011719-.011719-.066406-.003906-.019531-.011719-.066406-.003906-.015626c-.003907-.019531-.011719-.042968-.015625-.066406l-.003906-.015625-.011719-.070312-.003907-.011719-.015624-.070312v-.011719c-.007813-.023438-.011719-.046875-.015626-.070313l-.003906-.015625c-.003906-.027343-.011718-.050781-.015625-.078125-.007812-.027344-.011719-.050781-.015625-.074218l-.003906-.011719-.015625-.066407-.003906-.015624c-.003907-.019532-.007813-.039063-.011719-.0625l-.003906-.019532c-.007813-.019531-.011719-.042968-.015625-.0625l-.003907-.019531-.011718-.046875-.007813-.039062c-.011719-.054688-.023437-.105469-.035156-.164063-2.878906-12.558594-7.613281-20.230469-15.390625-28.011719-8.378906-8.339844-13.078125-19.679687-13.046875-31.5.074219-7.054687 1.855469-13.984375 5.191406-20.199218.117188-.222657.226563-.453126.328125-.683594.058594-.109375.117188-.21875.171875-.328125.203125-.4375.390625-.878907.566407-1.320313l.003906-.015625.019531-.046875c.109375-.28125.214844-.566406.316406-.851562v-.003906c.136719-.390626.261719-.78125.378907-1.175782 1.519531-5.710937-1.636719-11.621094-7.222657-13.539062-1.261719-.4375-2.578125-.660156-3.90625-.660156zm0 0" fill="#8e1600"/><path d="m39.902344 204.871094c-19.289063.023437-34.902344 15.679687-34.875 34.964844.007812 5.882812 1.5 11.671874 4.34375 16.824218 3.253906 5.820313 7.128906 11.277344 11.550781 16.269532l.003906.003906c.058594.0625.113281.125.167969.1875v.003906c.085938.097656.171875.191406.253906.285156l.003906.003906.167969.1875.003907.003907c.054687.0625.109374.125.167968.1875l.003906.007812c.054688.0625.113282.125.167969.183594l.003907.003906c.085937.097657.167968.1875.253906.285157l.003906.003906c.058594.0625.113281.121094.171875.183594l.003906.007812c.144531.15625.289063.3125.433594.472656l.171875.1875.007812.003906c.054688.0625.113282.121094.171876.183594l.007812.007813c.054688.0625.113281.121093.171875.183593l.003906.003907c.027344.03125.054688.058593.082031.089843l.003907.003907.171875.183593.007812.007813c.054688.058594.113282.117187.167969.179687l.015625.011719c.054688.058594.113281.121094.167969.179688l.007812.007812c.058594.058594.113281.117188.171875.179688l.011719.007812.078125.085938.007812.003906.085938.09375.097656.097656.171875.179688.007813.007812.082031.085938.003906.003906.089844.089844.003906.007812.09375.09375.085938.089844c.03125.03125.058593.058594.085937.085937l.011719.011719c.054687.058594.113281.117188.171875.175781l.015625.011719.171875.175781.007812.011719.179688.175781.003906.007813c.027344.027344.054688.054687.082032.082031l.011718.011719c.058594.054687.117188.117187.175782.171875l.011718.011719.175782.179687.007812.007813.179688.175781.089843.089844.011719.007812.089844.089844c.027344.027344.058594.058594.089844.089844l.003906.003906.179687.175781.015625.015625c.058594.054688.117188.113282.175782.171875l.011718.011719c.027344.027344.054688.054688.082032.078125l.007812.007813.089844.085937.101562.101563c.03125.027343.0625.054687.089844.085937l.089844.082031.015625.015625.175781.171875.015625.011719.085937.082031v.003906c.03125.027344.0625.058594.09375.085938l.011719.011719.078125.074219.011719.011718c.03125.03125.0625.058594.09375.085938l.003906.003906c.027344.027344.054688.054688.085938.082031l.011719.011719c.058593.058594.117187.113281.179687.171875l.015625.015625.179688.167969.011718.007812c.027344.03125.058594.058594.089844.085938v.003906c.03125.027344.0625.058594.097656.085937l.003906.003907c.027344.027343.0625.058593.089844.085937l.003906.003906c.066407.058594.125.117188.1875.175782l.011719.007812.183594.171875.015625.011719c.058594.058594.121094.117188.183594.171875l.011718.007813.085938.082031.007812.007812c.0625.054688.128907.117188.1875.171875l.011719.007813c.058594.054687.125.117187.1875.171875l.011719.007812c.0625.058594.125.117188.1875.171875l.007812.007813c.03125.03125.0625.058594.09375.085937.035157.03125.066407.058594.097657.085938l.007812.007812.089844.082031.007813.003907.1875.171875.015624.011718c.0625.054688.125.113282.1875.167969l.011719.011719c.0625.058594.128907.113281.195313.171875.035156.03125.066406.058594.097656.089844h.003906c.0625.058593.128906.117187.195313.175781l.007812.003906c.066407.058594.128907.113282.195313.171875l.007812.007813c.066406.058594.128906.113281.195313.171875l.007812.007812c.066407.054688.132813.113281.195313.171875l.007812.003906.09375.082032.003906.003906c.066407.054688.132813.113281.199219.171875l.007813.007813c.066406.054687.132812.113281.199218.171874l.003907.003907c.105469.085937.203125.171875.304687.257812l.003906.003907c.066407.058593.132813.113281.199219.171874l.003907.003907.203124.171875.007813.003906c.066406.058594.136719.117188.203125.171875v.003906c.105469.085938.207031.171875.3125.257813v.003906c.070312.058594.136719.113281.207031.171875l.003907.003906c.066406.054688.136718.113281.203124.167969l.007813.007812c.167969.140626.34375.285157.515625.425782l.007812.007812.203126.164063.011718.011719c.066406.054687.136719.109374.203125.164062l.003907.003906c.070312.058594.140624.113282.210937.171875l.105469.085938c.070312.054687.140625.113281.214844.171875.070312.058594.140624.113281.210937.167968l.003906.003907c.105469.085937.210938.167969.316407.253906l.003906.003906c.070312.054688.140625.113281.210937.167969l.003907.003906c.070312.054688.140624.109375.210937.164063l.007813.007812c.070312.054688.140624.109375.210937.164063l.003906.007812c.070313.054688.140625.109375.210938.164063l.007812.003906c.03125.027344.066407.054687.097657.078125l.007812.007812c.070312.054688.136719.105469.207031.160157l.011719.011719.207031.160156.015625.007812c.070313.054688.140625.109375.210938.164063.183594.140625.363281.28125.546875.421875h.003906c13.773437 10.285156 29.039063 18.402344 45.269531 24.066406v.003906c.25.085938.5.175782.746094.265625l.011719.003907c.097656.035156.191406.066406.289062.101562l.015625.003906c.097656.035156.195313.070313.292969.105469.101563.035156.203125.070313.300781.105469l.007813.003906c.046875.015625.09375.03125.144531.050781h.003906c.097656.035157.195313.066407.292969.101563l.015625.007812.285156.097656.023438.007813c.046875.015625.085937.03125.132812.046875h.007813l.140625.050781.023437.007813.125.042968.019531.007813.144532.046875.003906.003906c.046875.015625.089844.027344.136719.042969l.023437.011719.277344.09375.035156.011718c.042969.015626.085938.027344.132813.042969l.003906.003907c.046875.015624.089844.027343.136719.046874l.03125.007813c.039062.015625.085937.027344.125.042969l.015625.003906c.046875.015625.089843.03125.136719.046875l.027343.007813.121094.042968.164063.054688.019531.007812.121093.039063.03125.011719.136719.042968c.152344.050782.300781.101563.449219.152344l.050781.015625c.132813.042969.269531.085937.402344.132813l.070313.023437c.128906.042969.257812.085937.386718.128906l.078125.023438.378907.125.085937.027343c.128906.042969.253906.085938.382813.128907l.109374.035156c.121094.039063.242188.078125.363282.121094.039062.011719.078125.023437.117187.035156.113281.039063.226563.078125.339844.113281l.117187.039063c.105469.035156.214844.070312.320313.105469l.148437.050781c.105469.03125.207032.066406.308594.101562l.183594.058594c.09375.03125.1875.058594.277344.089844.070312.023437.140625.046875.210937.070312l.296875.097657c.054688.015624.109375.035156.164063.050781.089843.03125.179687.0625.269531.089843.066406.023438.128906.042969.195312.0625.085938.03125.171876.058594.261719.085938l.238281.078125c.070313.023437.136719.046875.207032.070313.089844.027343.175781.054687.261718.082031.066407.023437.132813.046875.199219.066406.09375.03125.183594.058594.273438.089844l.148437.046875.308594.101562.136719.042969c.148437.050781.300781.097656.449219.148437.023437.007813.046874.015626.074218.023438.121094.039062.242188.078125.363282.117188l.070312.023437c.128906.042969.257812.082031.386719.125l.03125.011719c9.589843 3.109375 19.214843 6.125 28.824219 9.175781.191406.058594.378906.117187.570312.175781.199219.066406.398438.132813.597656.195313.054688.019531.105469.035156.160156.050781.359376.113281.71875.230469 1.078126.34375 18.367187 5.851562 38.003906-4.292969 43.859374-22.664062 5.851563-18.371094-4.296874-38.007813-22.664062-43.859376-.007812 0-.011719-.003906-.019531-.003906l-1.242188-.398437c-.207031-.0625-.410156-.128907-.617187-.1875-.207032-.070313-.414063-.140625-.625-.207031l-7.996094-2.53125c-9.6875-3.066407-19.375-6.128907-29.011719-9.335938-24.726562-8.21875-36.5625-19.855469-39.65625-25.433594-6.15625-11.105468-17.859375-17.992187-30.554687-17.976562zm0 0" fill="#8e1600"/><path d="m221.167969 313.226562c-12.855469.007813-23.273438 10.429688-23.269531 23.285157.003906 9.960937 6.34375 18.8125 15.769531 22.027343l.339843.113282.136719.046875.089844.03125.082031.027343.097656.03125.101563.035157c.039063.011719.078125.023437.117187.039062l.074219.027344c.039063.011719.070313.023437.109375.035156l.0625.019531c.050782.019532.101563.035157.15625.054688l.0625.019531c.039063.011719.074219.023438.109375.035157l.066407.023437c.050781.015625.105468.035156.15625.050781l.054687.019532.121094.039062.0625.023438.148437.046874.019532.007813.171874.054687.050782.019532c.042968.011718.089844.027344.132812.042968l.046875.015626c.054688.015624.109375.035156.167969.054687l.042969.011719c.042969.015625.089843.03125.136719.046875l.046874.015625c.054688.019531.113282.035156.171876.054687l.027343.007813c.050781.019531.097657.035156.148438.050781l.046875.015625.351562.113281.039063.011719.164062.054688.015625.003906c.058594.019531.121094.039062.179688.058594l.03125.011718c.054687.015625.109375.035156.164062.050782l.019532.007812c.0625.019531.125.039062.1875.058594l.011718.003906c.058594.019531.113282.035156.171875.054688l.027344.007812c.121094.039062.246094.078125.371094.117188l.023437.007812.378906.121094h.003907c.0625.019531.125.039062.1875.058594l.011719.003906c.125.039062.257812.082031.382812.121094l.011719.003906c.128906.039062.253906.078125.382812.121094l.015625.003906.382813.117187.007812.003907c10.917969 3.363281 22.039063 6.023437 33.300781 7.960937.640626.109375 1.277344.21875 1.917969.324219h.003907l.421874.070312h.007813c.140625.023438.28125.046875.421875.070313h.003906c.210938.035156.421875.066406.636719.101562h.007813c.140624.023438.28125.046875.417968.070313h.015625c.136719.023437.277344.042968.414063.066406h.011718c.070313.011719.140626.023438.207032.035156h.003906c.136719.019532.277344.042969.417969.0625l.015625.003906c.140625.019532.277344.042969.417968.0625l.015626.003907c.136718.019531.273437.039062.410156.0625l.023437.003906.1875.027344.019531.003906c.070313.007813.140626.019531.207032.03125h.011718l.21875.03125c.132813.023437.265626.042969.402344.0625l.035156.003906c.132813.019531.269532.039063.402344.058594l.21875.03125.011719.003906c.066406.007813.136719.019531.203125.027344l.027344.003906c.058594.007813.125.019531.183594.027344l.019531.003906.210937.027344.003906.003906.199219.027344.027344.003906c.132813.019531.269531.039063.40625.054688l.027344.003906c.066406.011719.128906.019531.191406.027344l.011719.003906c.070312.007813.136718.019531.207031.027344l.023437.003906.175782.023437.035156.003907.199219.027343.019531.003907c.0625.007812.121094.015625.183594.023437l.035156.007813c.132812.015625.265625.035156.398438.050781l.039062.007812c.0625.007813.128906.015626.191406.023438l.007813.003906.203125.023438.035156.007812c.058594.007813.113281.015625.171875.019532l.03125.003906c.066406.011718.132813.019531.195313.027344l.039062.003906.167969.023437.039062.003907.199219.027343h.007812l.191407.027344.042969.003906.183593.023438.015625.003906.195313.023437.042969.003907c.054687.007812.113281.015625.167968.023437l.035156.003906c.066407.007813.128907.015626.195313.023438l.035156.003906c.054688.007813.113281.015625.167969.023438l.046875.003906.191406.023438.023438.003906.175781.023437.050781.003907c.0625.007812.125.015624.191407.023437l.199218.023437.050782.007813c.054687.007813.109374.015625.167968.019531l.027344.003906c.066406.007813.128906.015626.195312.023438l.046876.003906c.054687.007813.101562.015625.15625.019532l.046874.007812c.066407.007812.128907.015625.195313.023438l.027344.003906.171875.019531.046875.003906c.132812.015625.265625.03125.398437.046875l.039063.007813.183593.019531h.019532l.199218.023438.039063.003906c.054687.007812.113281.015625.167969.019531l.039062.003906.199219.023438.027344.003906.171875.019531.046875.003906.199219.023438h.007812l.1875.019531.050781.007813c.058594.007812.121094.011718.179688.019531l.015625.003906c.066406.003907.132812.011719.195312.019531l.054688.003907.160156.019531.234375.023438.035156.003906c.054688.007812.113281.011718.167969.019531l.042969.003906c.066406.007813.136719.015625.199219.019531l.023437.003907.175781.019531.046875.003906.191407.019532.007812.003906c.066406.003906.132812.011718.199219.019531l.046875.003906.164062.015625.039063.003906c.066406.007813.132812.015626.195312.023438l.042969.003906.164062.015625.042969.003907.199219.019531.023438.003906.171874.015625.054688.007812c.132812.011719.265625.023438.394531.035157l.050781.007812.175782.015625.019531.003906c.066406.003907.136719.011719.203125.019532l.039062.003906c.058594.003906.113282.011719.171876.015625l.035156.003906c.066406.007813.136718.011719.203125.019531h.023437c.0625.007813.121094.011719.183594.019532l.035156.003906c.140625.011719.273438.023438.410156.039062h.035157l.199219.019532h.003906l.210937.019531.027344.003906.1875.015625.023437.003906.210938.019532h.011719c.066406.003906.128906.011718.195312.015625l.027344.003906c.140625.011719.277344.023437.414063.035156l.035156.003907c.140625.011718.277344.023437.417968.035156l.019532.003906.429687.035156h.003907l.210937.019532h.011719c.144531.011718.289062.023437.433594.035156h.011718c.144532.011718.292969.023437.433594.035156h.011719c.144531.011719.292969.023438.4375.035156l.21875.019532h.007812c.140625.011718.285157.023437.429688.03125l.019531.003906c.144531.011718.285156.019531.429688.03125h.015624c.144532.011718.289063.023437.4375.03125 2.53125.1875 5.074219.339844 7.628907.457031.207031.011719.410156.015625.617187.019531.207032.015625.414063.027344.621094.035156l.039062.003907.125.003906.089844.003906c.039063.003907.074219.003907.113282.003907l.101562.003906.105469.003906c.046875.003906.09375.003906.140625.007812h.0625c.070312.003907.136718.007813.207031.007813l.066406.003906.148438.007813h.070312l.144531.007812h.066407l.160156.007813h.050781l.1875.007812h.027344c.148438.007813.296875.011719.445312.015625h.007813l.207031.007813.027344.003906.195312.003906h.027344c.070313.003907.140625.007813.210938.007813h.003906c.300781.011718.601562.019531.898438.027344h.015624l.207032.007812h.015625c.300781.007812.597656.015625.898437.023438h.007813l.214843.003906.011719.003906.21875.003906h.003907c.300781.007813.597656.011719.898437.019532h.019531c.070313 0 .136719.003906.207032.003906h.015624l.214844.003906h.007813c.226562.003906.449219.007812.675781.011719h.011719l.207031.003906h.03125c.0625 0 .128906.003906.191406.003906h.03125c.066406 0 .136719.003907.199219.003907h.019531c.148438 0 .296875.003906.445313.003906l.027343.003906h.234376c.058593.003906.117187.003906.171874.003906h.226563l.046875.003906h.183594.03125c.148437.003907.292968.003907.4375.003907h.050781l.164063.003906h.066406.148437.074219c.050781 0 .101562 0 .152344.003906h.777344.144531l.078125.003907h.214844.148437.5.117187.34375l.089844-.003907h.589844.128906.039063l.128906-.003906h.039063.125.046874.125l.042969-.003906h.476563l.03125-.003907h.167968.144532.023437c.050781-.003906.101563-.003906.152344-.003906h.183594l.15625-.003906h.011719.15625.015624l.15625-.003906h.175782c2.375-.03125 4.742187-.09375 7.097656-.179688 12.84375-.511718 22.84375-11.335937 22.332031-24.179687-.496093-12.476563-10.75-22.339844-23.238281-22.347657-.292969 0-.585938.003907-.878906.015626-3.046875.113281-6.113282.167968-9.199219.167968-3.488281 0-6.945313-.070312-10.382813-.214844-.179687-.007812-.359374-.015624-.535156-.019531-.179687-.011719-.359375-.019531-.539062-.027343-21.246094-.90625-42.257813-4.804688-62.417969-11.578126-2.414063-.824218-4.949219-1.246093-7.503906-1.246093zm245.925781-55.425781c-7.207031-.011719-14.011719 3.324219-18.417969 9.023438-3.355469 4.3125-7.027343 8.367187-10.980469 12.140625-.113281.105468-.222656.214844-.332031.324218-.113281.105469-.230469.210938-.34375.316407-13.207031 12.460937-30.558593 23.214843-50.179687 31.089843-11.929688 4.785157-17.722656 18.332032-12.9375 30.261719 4.777344 11.921875 18.3125 17.71875 30.238281 12.953125 25.285156-10.152344 47.367187-23.980468 64.84375-40.472656.148437-.140625.292969-.28125.4375-.421875.15625-.144531.3125-.289063.464844-.433594l.007812-.007812c.042969-.042969.085938-.082031.125-.121094l.015625-.011719c.039063-.039062.074219-.074218.113282-.109375l.015624-.015625c.085938-.082031.171876-.164062.257813-.246094l.007813-.011718c.085937-.082032.171874-.167969.257812-.25l.007812-.007813c.042969-.039062.082032-.078125.125-.121093l.007813-.003907c.085937-.085937.171875-.167969.257813-.253906l.003906-.003906c4.515625-4.402344 8.765625-9.074219 12.722656-13.984375l.007812-.007813c.070313-.089843.144532-.179687.214844-.269531l.011719-.011719c.035156-.046875.070313-.089843.105469-.132812l.109375-.140625.003906-.003906c.035156-.042969.066406-.085938.101563-.128907l.011718-.011719c.070313-.089843.136719-.175781.207032-.261718l.023437-.03125c.03125-.039063.0625-.078125.09375-.117188l.007813-.007812.097656-.128906.023437-.027344c.027344-.035156.054688-.070313.082031-.105469l.023438-.027344.09375-.121093.027344-.035157c.023437-.03125.050781-.0625.074218-.09375l.03125-.039062.078126-.101563.03125-.042968c.027343-.03125.054687-.066407.078124-.097657l.039063-.046875c.019531-.027344.039063-.054687.0625-.082031l.027344-.039063c7.867187-10.167968 6.003906-24.785156-4.164063-32.648437-4.070312-3.15625-9.074218-4.867187-14.222656-4.871094zm0 0" fill="#e48d72"/><g fill="#d65128"><path d="m93.089844 140.136719c0-12.855469-15.628906-23.273438-34.90625-23.273438-19.28125 0-34.910156 10.417969-34.910156 23.273438 0 12.851562 15.628906 23.273437 34.910156 23.273437 19.277344 0 34.90625-10.421875 34.90625-23.273437zm0 0"/><path d="m134.816406 144.949219c-5.207031-5.210938-12.480468-6.382813-16.242187-2.621094-3.765625 3.761719-2.59375 11.035156 2.609375 16.242187 5.207031 5.210938 12.480468 6.386719 16.246094 2.625 3.761718-3.761718 2.59375-11.035156-2.613282-16.246093zm0 0"/><path d="m256 93.589844c0-12.851563-15.628906-23.273438-34.910156-23.273438-19.277344 0-34.90625 10.421875-34.90625 23.273438 0 12.855468 15.628906 23.273437 34.90625 23.273437 19.28125 0 34.910156-10.417969 34.910156-23.273437zm0 0"/><path d="m302.546875 128.5c0 6.425781-5.210937 11.636719-11.636719 11.636719-6.425781 0-11.636718-5.210938-11.636718-11.636719s5.210937-11.636719 11.636718-11.636719c6.425782 0 11.636719 5.210938 11.636719 11.636719zm0 0"/><path d="m349.089844 58.683594c0 6.425781-5.207032 11.632812-11.636719 11.632812-6.425781 0-11.636719-5.207031-11.636719-11.632812 0-6.429688 5.210938-11.636719 11.636719-11.636719 6.429687 0 11.636719 5.207031 11.636719 11.636719zm0 0"/><path d="m395.636719 175.046875c0 6.425781-5.210938 11.632813-11.636719 11.632813s-11.636719-5.207032-11.636719-11.632813c0-6.429687 5.210938-11.636719 11.636719-11.636719s11.636719 5.207032 11.636719 11.636719zm0 0"/></g></svg>