<svg xmlns="http://www.w3.org/2000/svg" xmlns:v="http://vecta.io" xmlns:xlink="http://www.w3.org/1999/xlink" viewBox="0 0 111 82" stroke="#000" stroke-linecap="round" stroke-linejoin="round" fill="#fff" fill-rule="evenodd" font-family="Roboto" font-size="14" text-anchor="middle" width="300" height="300"><defs><style/></defs><use xlink:href="#nlZzhrsMJJk2iYv_ha8mMQ.sym" x=".5" y=".5"/><g id="j4rmrkxifl" class="Group.cls" v:size="111,82,0.5,0.5" stroke="none"><path d="M16.94 20.324L0 26.811V0l16.94 5.838z" fill="#804998" transform="translate(33.44)" id="j4rmrkptef"/><path d="M0 4.324v17.513l12.54 4.757V0L0 4.324zM1.32 20.54l-.66-.216V5.838l.66-.217.66-.216.66-.216v15.784l-.66-.217-.66-.215zm3.3.865l-.88-.216V4.973l.88-.216.88-.217.88-.216v17.73l-.88-.216-.88-.433zm3.96 1.298l-1.1-.433V3.892l1.1-.216 1.1-.433L11 2.81v20.54l-1.32-.431-1.1-.216z" fill="#804998" transform="translate(18.26 .216)" id="j4rmrkqfeg"/><path d="M16.94 20.324L0 26.811V0l16.94 5.838z" fill="#804998" transform="translate(72.82)" id="j4rmrkr6eh"/><path d="M0 4.324v17.513l12.54 4.757V0L0 4.324zM1.32 20.54l-.66-.216V5.838l.66-.217.66-.216.66-.216v15.784l-.66-.217-.66-.215zm3.3.865l-.88-.216V4.973l.88-.216.88-.217.88-.216v17.73l-.88-.216-.88-.433zm3.96 1.298l-1.1-.433V3.892l1.1-.216 1.1-.433L11 2.81v20.54l-1.32-.431-1.1-.216z" fill="#804998" transform="translate(57.64 .216)" id="j4rmrkrnei"/><path d="M16.94 20.324L0 26.811V0l16.94 5.838z" fill="#804998" transform="translate(33.44 53.19)" id="j4rmrkrvej"/><path d="M0 4.324v17.514l12.54 4.757V0L0 4.324zM1.32 20.54l-.66-.215V5.838l.66-.216.66-.217.66-.216v15.784l-.66-.216-.66-.216zm3.3.866l-.88-.217V4.973l.88-.216.88-.216.88-.217v17.73l-.88-.216-.88-.432zm3.96 1.297l-1.1-.433V3.892l1.1-.216 1.1-.433L11 2.811v20.54l-1.32-.432-1.1-.216z" fill="#804998" transform="translate(18.26 53.405)" id="j4rmrks6ek"/><path d="M16.94 20.324L0 26.811V0l16.94 5.838z" fill="#804998" transform="translate(72.82 53.19)" id="j4rmrkseel"/><path d="M0 4.324v17.514l12.54 4.757V0L0 4.324zM1.32 20.54l-.66-.215V5.838l.66-.216.66-.217.66-.216v15.784l-.66-.216-.66-.216zm3.3.866l-.88-.217V4.973l.88-.216.88-.216.88-.217v17.73l-.88-.216-.88-.432zm3.96 1.297l-1.1-.433V3.892l1.1-.216 1.1-.433L11 2.811v20.54l-1.32-.432-1.1-.216z" fill="#804998" transform="translate(57.64 53.405)" id="j4rmrkspem"/><path d="M16.72 20.324L0 26.594V0l16.72 5.838z" fill="#804998" transform="translate(54.56 26.595)" id="j4rmrkt5en"/><path d="M0 4.324v17.513l12.54 4.758V0L0 4.324zM1.32 20.54l-.66-.216V5.838l.66-.217.66-.216.66-.216v15.784l-.66-.217-.66-.215zm3.3 1.082l-.88-.217V5.19l.88-.216.88-.216.88-.217v17.73l-.88-.216-.88-.432zm3.96 1.297l-1.1-.433V4.108l1.1-.216 1.1-.433L11 3.027v20.54l-1.32-.432-1.1-.216z" fill="#804998" transform="translate(39.16 26.595)" id="j4rmrktheo"/><path d="M16.72 20.324L0 26.594V0l16.72 5.838z" fill="#804998" transform="translate(15.4 26.595)" id="j4rmrktrep"/><path d="M0 4.324v17.513l12.54 4.758V0L0 4.324zM1.32 20.54l-.66-.216V5.838l.66-.217.66-.216.66-.216v15.784l-.66-.217-.66-.215zm3.3 1.082l-.88-.217V5.19l.88-.216.88-.216.88-.217v17.73l-.88-.216-.88-.432zm3.96 1.297l-1.1-.433V4.108l1.1-.216 1.1-.433L11 3.027v20.54l-1.32-.432-1.1-.216z" fill="#804998" transform="translate(0 26.595)" id="j4rmrku6eq"/><path d="M16.72 20.324L0 26.594V0l16.72 5.838z" fill="#804998" transform="translate(93.28 26.595)" id="j4rmrkuder"/><path d="M16.94 20.324L0 26.811V0l16.94 5.838z" opacity=".2" transform="translate(33.44)" id="j4rmrkukes"/><path d="M16.94 20.324L0 26.811V0l16.94 5.838z" opacity=".2" transform="translate(72.82)" id="j4rmrkutet"/><path d="M16.94 20.324L0 26.811V0l16.94 5.838z" opacity=".2" transform="translate(33.44 53.19)" id="j4rmrkv0eu"/><path d="M16.94 20.324L0 26.811V0l16.94 5.838z" opacity=".2" transform="translate(72.82 53.19)" id="j4rmrkv6ev"/><path d="M16.72 20.324L0 26.594V0l16.72 5.838z" opacity=".2" transform="translate(54.56 26.595)" id="j4rmrkvfew"/><path d="M16.72 20.324L0 26.594V0l16.72 5.838z" opacity=".2" transform="translate(15.4 26.595)" id="j4rmrkvmex"/><path d="M16.72 20.324L0 26.594V0l16.72 5.838z" opacity=".2" transform="translate(93.28 26.595)" id="j4rmrkvsey"/><path d="M0 4.324v17.513l12.54 4.758V0L0 4.324zM1.32 20.54l-.66-.216V5.838l.66-.217.66-.216.66-.216v15.784l-.66-.217-.66-.215zm3.3 1.082l-.88-.217V5.19l.88-.216.88-.216.88-.217v17.73l-.88-.216-.88-.432zm3.96 1.297l-1.1-.433V4.108l1.1-.216 1.1-.433L11 3.027v20.54l-1.32-.432-1.1-.216z" fill="#804998" transform="translate(77.88 26.595)" id="j4rmrkw4ez"/></g></svg>