<?xml version="1.0" standalone="no"?>
<!DOCTYPE svg PUBLIC "-//W3C//DTD SVG 20010904//EN"
        "http://www.w3.org/TR/2001/REC-SVG-20010904/DTD/svg10.dtd">
<svg version="1.0" xmlns="http://www.w3.org/2000/svg"
     width="217.000000pt" height="216.000000pt" viewBox="0 0 217.000000 216.000000"
     preserveAspectRatio="xMidYMid meet">

    <g transform="translate(0.000000,216.000000) scale(0.100000,-0.100000)"
       fill="#326DE6" stroke="none">
        <path d="M793 1922 l-233 -135 0 -306 0 -306 255 -148 c141 -81 262 -147 271
-147 22 0 474 263 474 276 0 6 -49 39 -110 74 l-110 62 -124 -71 c-68 -39
-126 -71 -130 -71 -8 0 -230 126 -268 152 l-28 19 0 159 c0 115 4 162 13 171
6 6 64 41 127 78 l115 66 3 133 c2 102 0 132 -10 131 -7 -1 -118 -62 -245
-137z"/>
        <path d="M1120 1928 l0 -133 113 -64 c61 -35 120 -71 130 -79 15 -13 17 -34
17 -158 l0 -142 106 -61 c58 -34 110 -61 115 -61 5 0 9 120 9 280 l0 279 -92
54 c-51 30 -156 91 -233 136 -77 44 -145 81 -152 81 -10 0 -13 -32 -13 -132z"/>
        <path d="M970 1480 l0 -170 25 0 c25 0 25 1 25 88 l0 87 33 -36 c17 -19 53
-59 79 -88 38 -42 53 -52 74 -49 25 3 23 6 -54 93 l-81 90 77 78 77 77 -37 0
c-33 0 -43 -7 -95 -65 -32 -36 -61 -65 -65 -65 -5 0 -8 29 -8 65 0 63 -1 65
-25 65 l-25 0 0 -170z"/>
        <path d="M457 708 c-8 -24 -31 -87 -51 -141 l-36 -98 27 3 c21 2 29 10 37 36
9 31 10 32 66 32 56 0 57 -1 66 -32 7 -23 17 -34 32 -36 12 -2 22 2 22 9 0 6
-21 69 -46 140 -44 123 -48 129 -74 129 -24 0 -30 -6 -43 -42z m62 -59 c7 -23
15 -47 18 -55 4 -11 -5 -14 -37 -14 -32 0 -41 3 -37 14 3 8 11 32 18 55 7 23
15 41 19 41 4 0 12 -18 19 -41z"/>
        <path d="M650 575 c0 -105 0 -105 25 -105 24 0 24 2 27 83 l3 82 35 0 35 0 3
-83 c3 -79 4 -83 25 -80 20 3 22 10 27 83 l5 80 35 0 35 0 3 -83 c3 -79 4 -83
25 -80 20 3 22 9 25 82 4 97 -11 126 -64 126 -19 0 -45 -5 -56 -11 -14 -8 -23
-8 -31 0 -14 14 -63 14 -90 0 -16 -9 -22 -9 -25 0 -2 6 -12 11 -23 11 -18 0
-19 -8 -19 -105z"/>
        <path d="M1023 673 c-7 -2 -13 -12 -13 -20 0 -12 8 -14 39 -9 29 4 44 2 55
-10 30 -29 20 -44 -29 -44 -51 0 -85 -25 -85 -63 0 -47 62 -73 111 -47 13 7
19 7 19 0 0 -5 9 -10 20 -10 19 0 20 7 20 95 0 83 -2 96 -19 105 -20 10 -96
13 -118 3z m95 -135 c2 -11 -6 -22 -23 -30 -21 -9 -29 -9 -42 4 -9 9 -13 24
-9 33 8 23 70 17 74 -7z"/>
        <path d="M1200 661 c0 -17 8 -20 50 -23 l51 -3 -56 -65 c-30 -36 -54 -72 -52
-80 2 -12 21 -16 85 -18 77 -3 82 -2 82 18 0 18 -6 20 -56 20 l-56 0 56 64
c31 35 56 74 56 85 0 20 -5 21 -80 21 -73 0 -80 -2 -80 -19z"/>
        <path d="M1406 649 c-19 -23 -26 -42 -26 -74 0 -32 7 -51 26 -74 22 -27 33
-31 73 -31 68 0 96 31 96 107 0 48 -4 58 -28 79 -20 17 -40 24 -72 24 -36 0
-47 -5 -69 -31z m112 -27 c28 -35 1 -122 -38 -122 -23 0 -50 41 -50 75 0 63
52 91 88 47z"/>
        <path d="M1620 575 c0 -98 1 -105 20 -105 17 0 19 8 22 77 3 71 5 79 27 90 17
8 31 9 43 2 15 -8 18 -23 18 -89 0 -79 0 -80 25 -80 25 0 25 1 25 86 0 47 -5
94 -10 105 -12 22 -68 26 -103 8 -16 -9 -22 -9 -25 0 -2 6 -12 11 -23 11 -18
0 -19 -8 -19 -105z"/>
        <path d="M1230 337 c-18 -9 -26 -22 -28 -46 -4 -41 15 -63 73 -85 52 -20 65
-48 38 -78 -15 -16 -27 -19 -66 -15 -32 3 -47 1 -44 -7 2 -6 27 -12 55 -14 64
-4 95 21 90 71 -3 28 -10 36 -63 62 -49 24 -61 35 -63 57 -4 34 28 50 85 41
26 -4 35 -2 28 5 -17 18 -78 23 -105 9z"/>
        <path d="M820 215 l0 -125 70 0 c84 0 94 18 13 22 l-58 3 -3 48 -3 47 55 0
c31 0 56 5 56 10 0 6 -25 10 -55 10 l-55 0 0 45 0 45 60 0 c33 0 60 4 60 10 0
6 -30 10 -70 10 l-70 0 0 -125z"/>
        <path d="M1000 215 c0 -72 4 -125 10 -125 5 0 10 25 12 56 l3 56 62 -56 c85
-77 102 -70 23 9 l-64 65 59 60 c46 47 55 60 40 60 -12 0 -42 -23 -72 -57
l-53 -58 0 58 c0 31 -4 57 -10 57 -6 0 -10 -48 -10 -125z"/>
    </g>
</svg>
