<svg version="1.0" xmlns="http://www.w3.org/2000/svg" width="289.333" height="288" viewBox="0 0 217 216"><g fill="#326DE6"><path d="M79.3 23.8L56 37.3v61.2l25.5 14.8c14.1 8.1 26.2 14.7 27.1 14.7 2.2 0 47.4-26.3 47.4-27.6 0-.6-4.9-3.9-11-7.4l-11-6.2-12.4 7.1c-6.8 3.9-12.6 7.1-13 7.1-.8 0-23-12.6-26.8-15.2L79 83.9V68c0-11.5.4-16.2 1.3-17.1.6-.6 6.4-4.1 12.7-7.8l11.5-6.6.3-13.3c.2-10.2 0-13.2-1-13.1-.7.1-11.8 6.2-24.5 13.7z"/><path d="M112 23.2v13.3l11.3 6.4c6.1 3.5 12 7.1 13 7.9 1.5 1.3 1.7 3.4 1.7 15.8v14.2l10.6 6.1c5.8 3.4 11 6.1 11.5 6.1s.9-12 .9-28V37.1l-9.2-5.4c-5.1-3-15.6-9.1-23.3-13.6-7.7-4.4-14.5-8.1-15.2-8.1-1 0-1.3 3.2-1.3 13.2z"/><path d="M97 68v17h2.5c2.5 0 2.5-.1 2.5-8.8v-8.7l3.3 3.6c1.7 1.9 5.3 5.9 7.9 8.8 3.8 4.2 5.3 5.2 7.4 4.9 2.5-.3 2.3-.6-5.4-9.3l-8.1-9 7.7-7.8 7.7-7.7h-3.7c-3.3 0-4.3.7-9.5 6.5-3.2 3.6-6.1 6.5-6.5 6.5-.5 0-.8-2.9-.8-6.5 0-6.3-.1-6.5-2.5-6.5H97v17zM45.7 145.2c-.8 2.4-3.1 8.7-5.1 14.1l-3.6 9.8 2.7-.3c2.1-.2 2.9-1 3.7-3.6.9-3.1 1-3.2 6.6-3.2s5.7.1 6.6 3.2c.7 2.3 1.7 3.4 3.2 3.6 1.2.2 2.2-.2 2.2-.9 0-.6-2.1-6.9-4.6-14C53 141.6 52.6 141 50 141c-2.4 0-3 .6-4.3 4.2zm6.2 5.9c.7 2.3 1.5 4.7 1.8 5.5.4 1.1-.5 1.4-3.7 1.4s-4.1-.3-3.7-1.4c.3-.8 1.1-3.2 1.8-5.5s1.5-4.1 1.9-4.1c.4 0 1.2 1.8 1.9 4.1zM65 158.5c0 10.5 0 10.5 2.5 10.5 2.4 0 2.4-.2 2.7-8.3l.3-8.2h7l.3 8.3c.3 7.9.4 8.3 2.5 8 2-.3 2.2-1 2.7-8.3l.5-8h7l.3 8.3c.3 7.9.4 8.3 2.5 8 2-.3 2.2-.9 2.5-8.2.4-9.7-1.1-12.6-6.4-12.6-1.9 0-4.5.5-5.6 1.1-1.4.8-2.3.8-3.1 0-1.4-1.4-6.3-1.4-9 0-1.6.9-2.2.9-2.5 0-.2-.6-1.2-1.1-2.3-1.1-1.8 0-1.9.8-1.9 10.5zM102.3 148.7c-.7.2-1.3 1.2-1.3 2 0 1.2.8 1.4 3.9.9 2.9-.4 4.4-.2 5.5 1 3 2.9 2 4.4-2.9 4.4-5.1 0-8.5 2.5-8.5 6.3 0 4.7 6.2 7.3 11.1 4.7 1.3-.7 1.9-.7 1.9 0 0 .5.9 1 2 1 1.9 0 2-.7 2-9.5 0-8.3-.2-9.6-1.9-10.5-2-1-9.6-1.3-11.8-.3zm9.5 13.5c.2 1.1-.6 2.2-2.3 3-2.1.9-2.9.9-4.2-.4-.9-.9-1.3-2.4-.9-3.3.8-2.3 7-1.7 7.4.7zM120 149.9c0 1.7.8 2 5 2.3l5.1.3-5.6 6.5c-3 3.6-5.4 7.2-5.2 8 .2 1.2 2.1 1.6 8.5 1.8 7.7.3 8.2.2 8.2-1.8 0-1.8-.6-2-5.6-2h-5.6l5.6-6.4c3.1-3.5 5.6-7.4 5.6-8.5 0-2-.5-2.1-8-2.1-7.3 0-8 .2-8 1.9zM140.6 151.1c-1.9 2.3-2.6 4.2-2.6 7.4s.7 5.1 2.6 7.4c2.2 2.7 3.3 3.1 7.3 3.1 6.8 0 9.6-3.1 9.6-10.7 0-4.8-.4-5.8-2.8-7.9-2-1.7-4-2.4-7.2-2.4-3.6 0-4.7.5-6.9 3.1zm11.2 2.7c2.8 3.5.1 12.2-3.8 12.2-2.3 0-5-4.1-5-7.5 0-6.3 5.2-9.1 8.8-4.7zM162 158.5c0 9.8.1 10.5 2 10.5 1.7 0 1.9-.8 2.2-7.7.3-7.1.5-7.9 2.7-9 1.7-.8 3.1-.9 4.3-.2 1.5.8 1.8 2.3 1.8 8.9 0 7.9 0 8 2.5 8s2.5-.1 2.5-8.6c0-4.7-.5-9.4-1-10.5-1.2-2.2-6.8-2.6-10.3-.8-1.6.9-2.2.9-2.5 0-.2-.6-1.2-1.1-2.3-1.1-1.8 0-1.9.8-1.9 10.5zM123 182.3c-1.8.9-2.6 2.2-2.8 4.6-.4 4.1 1.5 6.3 7.3 8.5 5.2 2 6.5 4.8 3.8 7.8-1.5 1.6-2.7 1.9-6.6 1.5-3.2-.3-4.7-.1-4.4.7.2.6 2.7 1.2 5.5 1.4 6.4.4 9.5-2.1 9-7.1-.3-2.8-1-3.6-6.3-6.2-4.9-2.4-6.1-3.5-6.3-5.7-.4-3.4 2.8-5 8.5-4.1 2.6.4 3.5.2 2.8-.5-1.7-1.8-7.8-2.3-10.5-.9zM82 194.5V207h7c8.4 0 9.4-1.8 1.3-2.2l-5.8-.3-.3-4.8-.3-4.7h5.5c3.1 0 5.6-.5 5.6-1 0-.6-2.5-1-5.5-1H84v-9h6c3.3 0 6-.4 6-1s-3-1-7-1h-7v12.5zM100 194.5c0 7.2.4 12.5 1 12.5.5 0 1-2.5 1.2-5.6l.3-5.6 6.2 5.6c8.5 7.7 10.2 7 2.3-.9l-6.4-6.5 5.9-6c4.6-4.7 5.5-6 4-6-1.2 0-4.2 2.3-7.2 5.7l-5.3 5.8v-5.8c0-3.1-.4-5.7-1-5.7s-1 4.8-1 12.5z"/></g></svg>