<svg xmlns="http://www.w3.org/2000/svg" xmlns:xlink="http://www.w3.org/1999/xlink" width="128" height="128"><linearGradient id="a" gradientUnits="userSpaceOnUse" x1="64" y1="7.034" x2="64" y2="120.789"><stop offset="0" stop-color="#4387fd"/><stop offset="1" stop-color="#4683ea"/></linearGradient><path d="M27.79 115.217L1.54 69.749a11.499 11.499 0 010-11.499l26.25-45.467a11.5 11.5 0 019.96-5.75h52.5a11.5 11.5 0 019.959 5.75l26.25 45.467a11.499 11.499 0 010 11.5l-26.25 45.467a11.5 11.5 0 01-9.959 5.749h-52.5a11.499 11.499 0 01-9.96-5.75z" fill="url(#a)"/><defs><path id="b" d="M27.791 115.217L1.541 69.749a11.499 11.499 0 010-11.499l26.25-45.467a11.499 11.499 0 019.959-5.75h52.5a11.5 11.5 0 019.96 5.75l26.25 45.467a11.499 11.499 0 010 11.5l-26.25 45.467a11.499 11.499 0 01-9.96 5.749h-52.5a11.499 11.499 0 01-9.959-5.75z"/></defs><clipPath id="c"><use xlink:href="#b" overflow="visible"/></clipPath><path opacity=".07" clip-path="url(#c)" d="M124.052 82.865L89.63 48.44 64 37 39.5 50.312l-1.027 29.333 42.543 42.542 16.651-.145z"/><g><path d="M89.026 47.993l-23.677-13.67a2.698 2.698 0 00-2.698 0l-23.677 13.67a2.699 2.699 0 00-1.349 2.337v27.34c0 .964.514 1.854 1.35 2.336l23.676 13.67a2.698 2.698 0 002.698 0l23.677-13.67a2.699 2.699 0 001.349-2.336V50.33c0-.964-.514-1.855-1.35-2.337zM85.777 75.05l-8.26-4.769V57.72L65.319 64.76v14.086l10.88-6.282 8.26 4.77L64 89.145 43.541 77.334l8.26-4.769 10.88 6.282V64.76L50.483 57.72V70.28l-8.26 4.77V51.426L62.68 39.615v9.538l-10.88 6.281L64 62.477l12.198-7.043-10.88-6.28v-9.54l20.46 11.813V75.05z" fill="#fff"/></g></svg>