<svg width="702" height="683" xmlns="http://www.w3.org/2000/svg" xmlns:xlink="http://www.w3.org/1999/xlink"><defs><path id="a" d="M701.06 684.263V1.593H0v682.67z"/></defs><g fill="none" fill-rule="evenodd"><g transform="translate(0 -1.445)"><mask id="b" fill="#fff"><use xlink:href="#a"/></mask><path d="M351.21 1.59c-9.517 0-19.038 2.27-28.104 6.346L93.736 117.638c-18.135 8.61-30.825 24.476-35.357 43.967L1.713 407.75c-4.533 19.49 0 39.438 12.694 55.305l158.654 197.184c12.242 15.415 30.825 24.024 50.317 24.024h254.306c19.49 0 38.074-8.61 50.316-24.024l158.654-197.184c12.694-15.415 17.227-35.814 12.694-55.305l-56.665-246.145c-4.533-19.491-17.223-35.358-35.358-43.967L378.863 7.936c-8.613-4.077-18.135-6.345-27.652-6.345m0 21.303c6.345 0 12.694 1.36 18.587 4.081l229.37 109.246c11.785 5.893 20.85 16.775 23.571 29.465l56.662 246.144c3.172 13.146 0 26.745-8.614 37.17L512.133 646.19c-8.161 10.426-20.851 16.319-33.997 16.319H223.834c-13.146 0-25.84-5.893-33.998-16.32L31.178 449c-8.157-10.425-11.33-24.024-8.613-37.17L79.23 165.686c3.172-13.146 11.786-24.024 23.572-29.465l229.37-109.698c5.893-2.269 12.694-3.629 19.039-3.629" fill="#326DE6" mask="url(#b)"/></g><path d="M218.498 603.501c8.133 10.21 20.329 15.846 33.06 15.846l199.57-.352c12.735 0 24.803-5.989 32.935-15.846l121.658-153.172c3.513-4.781 3.123-14.158 3.123-22.058V214.026L347.455 364.527v-.004L86.315 214.167V427.92c0 8.029 2.836 15.858 8.053 22.41l124.13 153.172z" fill="#1FBFCF"/><path fill="#C9E9EC" d="M347.455 364.526l261.39-150.496L347.21 63.62 86.315 214.158z"/><path d="M409.813 480.797c-7.494 4.77-17.716 3.41-23.85-4.089-2.044-2.044-2.724-4.769-3.404-7.493l-6.134-111.071c47.015 5.453 89.946 26.574 122.654 59.282l-89.266 63.371zm-92.67-14.311c-.684 9.542-8.178 17.72-18.4 17.72-2.725 0-6.13-.684-8.174-2.044l-90.63-64.736c27.939-27.939 62.69-47.015 101.532-55.873 7.494-1.365 14.308-2.729 21.806-4.09l-6.134 109.023zm254.845-45.65l6.814-6.134v-1.365c0-3.405.68-6.813 3.409-10.218 8.173-7.498 18.396-13.632 30.659-21.125 2.044-1.365 4.089-2.045 6.133-3.41 4.09-2.04 7.498-4.084 11.587-6.813.68-.68 2.04-1.36 3.405-2.724.68-.68 1.364-.68 1.364-1.365 9.539-8.174 11.583-21.8 4.77-30.659-3.41-4.773-9.539-7.498-15.672-7.498-5.454 0-10.223 2.045-14.992 5.454l-1.364 1.36c-1.36.684-2.045 2.044-3.405 2.724-3.409 3.41-6.134 6.134-8.858 9.543-1.365 1.36-2.725 3.404-4.77 4.769-9.542 10.222-18.4 18.396-27.258 24.53-2.044 1.364-4.089 2.044-6.133 2.044-1.36 0-2.725 0-4.09-.68h-1.36l-8.178 5.45c-8.858-9.539-18.396-17.717-27.938-25.895-40.882-32.023-90.626-51.784-142.41-56.553l-.685-8.858-1.36-1.365c-2.044-2.044-4.773-4.089-5.453-8.858-.68-10.903.68-23.17 2.044-36.797v-.68c0-2.044.68-4.769 1.365-6.814.68-4.089 1.36-8.178 2.044-12.947V219.82c0-12.263-9.542-22.486-21.125-22.486-5.45 0-10.903 2.725-14.992 6.814-4.089 4.09-6.133 9.538-6.133 15.672v5.454c0 4.768.684 8.857 2.044 12.942.685 2.045.685 4.09 1.365 6.818v.68c1.364 13.627 3.404 25.894 2.044 36.797-.68 4.769-3.409 6.814-5.453 8.858l-1.36 1.36-.685 8.858c-12.262 1.365-24.53 2.73-36.792 5.454-52.469 11.583-98.804 38.157-134.92 76.318l-6.814-4.773h-1.365c-1.36 0-2.724.684-4.085.684-2.044 0-4.089-.684-6.133-2.044-8.858-6.134-17.716-14.992-27.259-25.215-1.36-1.36-2.724-3.404-4.769-4.769-2.724-3.404-5.45-6.133-8.858-9.538-.68-.68-2.044-1.364-3.405-2.724-.684-.685-1.364-.685-1.364-1.365-4.09-3.409-9.538-5.453-14.992-5.453-6.133 0-12.263 2.729-15.671 7.498-6.814 8.858-4.77 22.485 4.769 30.663.684 0 .684.68 1.364.68 1.36.68 2.045 2.045 3.405 2.725 4.089 2.728 7.498 4.773 11.587 6.817 2.044.68 4.089 2.04 6.129 3.405 12.267 7.498 22.49 13.627 30.663 21.125 3.41 3.405 3.41 6.814 3.41 10.219v1.364l6.813 6.134c-1.364 2.044-2.725 3.404-3.405 5.449-7.991 12.628-14.776 25.795-20.437 39.339l38.846 47.932c5.254-18.55 12.947-36.47 23.153-53.199l81.087 72.23c7.498 6.129 8.178 17.716 2.045 25.21-2.045 2.724-4.77 4.768-8.174 5.453l-46.824 13.594L218.63 603.5c8.132 10.214 20.324 15.845 33.06 15.845l199.569-.352c12.731 0 24.8-5.984 32.936-15.846l21.842-27.503-47.844-13.76c-9.538-2.725-14.992-12.267-12.947-21.805.68-2.725 2.044-5.45 4.089-7.494l82.451-74.274c10.036 16.534 18.02 35.121 23.518 55.305l39.621-49.88a283.528 283.528 0 00-22.937-42.902z" fill="#326DE6"/></g></svg>