<?xml version="1.0" encoding="iso-8859-1"?>
<!-- Generator: Adobe Illustrator 16.0.0, SVG Export Plug-In . SVG Version: 6.00 Build 0)  -->
<!DOCTYPE svg PUBLIC "-//W3C//DTD SVG 1.1//EN" "http://www.w3.org/Graphics/SVG/1.1/DTD/svg11.dtd">
<svg version="1.1" id="Capa_1" xmlns="http://www.w3.org/2000/svg" xmlns:xlink="http://www.w3.org/1999/xlink" x="0px" y="0px"
	 width="457.47px" height="457.469px" viewBox="0 0 457.47 457.469" style="enable-background:new 0 0 457.47 457.469;"
	 xml:space="preserve">
<g>
	<path d="M228.734,0C102.41,0,0,102.41,0,228.735C0,355.06,102.41,457.469,228.734,457.469
		c126.325,0,228.735-102.409,228.735-228.734C457.47,102.41,355.06,0,228.734,0z M359.268,265.476h-97.326v97.315
		c0,16.668-13.506,30.186-30.181,30.186c-16.668,0-30.189-13.518-30.189-30.186v-97.315h-97.309
		c-16.674,0-30.192-13.512-30.192-30.187c0-16.674,13.518-30.188,30.192-30.188h97.315v-97.31c0-16.674,13.515-30.183,30.189-30.183
		c16.675,0,30.187,13.509,30.187,30.183v97.315h97.314c16.669,0,30.192,13.515,30.192,30.188
		C389.46,251.97,375.937,265.476,359.268,265.476z"/>
</g>
<g>
</g>
<g>
</g>
<g>
</g>
<g>
</g>
<g>
</g>
<g>
</g>
<g>
</g>
<g>
</g>
<g>
</g>
<g>
</g>
<g>
</g>
<g>
</g>
<g>
</g>
<g>
</g>
<g>
</g>
</svg>
