<svg xmlns="http://www.w3.org/2000/svg" width="457.47" height="457.469"><path d="M228.734 0C102.41 0 0 102.41 0 228.735 0 355.06 102.41 457.469 228.734 457.469c126.325 0 228.735-102.409 228.735-228.734C457.47 102.41 355.06 0 228.734 0zm130.534 265.476h-97.326v97.315c0 16.668-13.506 30.186-30.181 30.186-16.668 0-30.189-13.518-30.189-30.186v-97.315h-97.309c-16.674 0-30.192-13.512-30.192-30.187 0-16.674 13.518-30.188 30.192-30.188h97.315v-97.31c0-16.674 13.515-30.183 30.189-30.183 16.675 0 30.187 13.509 30.187 30.183v97.315h97.314c16.669 0 30.192 13.515 30.192 30.188 0 16.676-13.523 30.182-30.192 30.182z"/></svg>